<?xml version="1.0" encoding="utf-8"?>
<!-- Generator: Adobe Illustrator 24.3.0, SVG Export Plug-In . SVG Version: 6.00 Build 0)  -->
<svg version="1.1" id="Layer_1" xmlns="http://www.w3.org/2000/svg" xmlns:xlink="http://www.w3.org/1999/xlink" x="0px" y="0px"
	 viewBox="0 0 187 38" style="enable-background:new 0 0 187 38;" xml:space="preserve">
<style type="text/css">
	.st0{enable-background:new    ;}
	.st1{fill:#FFFFFF;}
	.st2{fill:url(#SVGID_1_);}
</style>
<g>
	<g>
		<g class="st0">
			<path class="st1" d="M21.2,31.7h2c1.5,0,2.6,1,2.6,2.4s-1,2.4-2.6,2.4h-2V31.7z M23.2,35.8c1.2,0,1.9-0.7,1.9-1.8
				s-0.8-1.8-1.9-1.8h-1.3v3.6H23.2z"/>
			<path class="st1" d="M28.7,32.8v0.6c-0.1,0-0.1,0-0.1,0c-0.7,0-1.1,0.4-1.1,1.2v1.8h-0.6v-3.6h0.6v0.6
				C27.6,33,28.1,32.8,28.7,32.8z"/>
			<path class="st1" d="M32.7,34.9h-2.9c0.1,0.6,0.6,1,1.3,1c0.4,0,0.8-0.1,1-0.4l0.4,0.4c-0.3,0.4-0.8,0.6-1.4,0.6
				c-1.2,0-1.9-0.8-1.9-1.8c0-1.1,0.8-1.8,1.8-1.8s1.8,0.7,1.8,1.8C32.7,34.7,32.7,34.8,32.7,34.9z M29.8,34.4h2.3
				c-0.1-0.6-0.5-1-1.1-1C30.3,33.4,29.9,33.8,29.8,34.4z"/>
			<path class="st1" d="M36.4,34.3v2.2h-0.6V36c-0.2,0.3-0.6,0.5-1.2,0.5c-0.8,0-1.3-0.4-1.3-1.1c0-0.6,0.4-1,1.4-1h1v-0.1
				c0-0.5-0.3-0.9-1-0.9c-0.4,0-0.9,0.1-1.1,0.4l-0.3-0.5c0.4-0.3,0.9-0.5,1.5-0.5C35.8,32.8,36.4,33.3,36.4,34.3z M35.7,35.3v-0.5
				h-1c-0.6,0-0.8,0.3-0.8,0.6c0,0.4,0.3,0.6,0.8,0.6C35.2,36,35.6,35.7,35.7,35.3z"/>
			<path class="st1" d="M43.6,34.4v2.1h-0.6v-2c0-0.7-0.3-1-0.9-1c-0.6,0-1.1,0.4-1.1,1.2v1.8h-0.6v-2c0-0.7-0.3-1-0.9-1
				c-0.6,0-1.1,0.4-1.1,1.2v1.8h-0.6v-3.6h0.6v0.5c0.3-0.4,0.7-0.6,1.2-0.6c0.5,0,1,0.2,1.2,0.7c0.3-0.4,0.8-0.7,1.4-0.7
				C43,32.8,43.6,33.3,43.6,34.4z"/>
			<path class="st1" d="M44.5,36c0-0.3,0.2-0.5,0.5-0.5c0.2,0,0.4,0.2,0.4,0.5c0,0.3-0.2,0.5-0.4,0.5C44.7,36.5,44.5,36.3,44.5,36z"
				/>
			<path class="st1" d="M48.3,31.7h2c1.5,0,2.6,1,2.6,2.4s-1,2.4-2.6,2.4h-2V31.7z M50.3,35.8c1.2,0,1.9-0.7,1.9-1.8
				s-0.8-1.8-1.9-1.8H49v3.6H50.3z"/>
			<path class="st1" d="M57.1,34.9h-2.9c0.1,0.6,0.6,1,1.3,1c0.4,0,0.8-0.1,1-0.4l0.4,0.4c-0.3,0.4-0.8,0.6-1.4,0.6
				c-1.2,0-1.9-0.8-1.9-1.8c0-1.1,0.8-1.8,1.8-1.8s1.8,0.7,1.8,1.8C57.1,34.7,57.1,34.8,57.1,34.9z M54.2,34.4h2.3
				c-0.1-0.6-0.5-1-1.1-1C54.7,33.4,54.3,33.8,54.2,34.4z"/>
			<path class="st1" d="M57.6,36l0.3-0.5c0.3,0.2,0.8,0.4,1.3,0.4c0.6,0,0.9-0.2,0.9-0.5c0-0.8-2.3-0.1-2.3-1.5
				c0-0.6,0.6-1.1,1.5-1.1c0.5,0,1,0.1,1.3,0.3l-0.3,0.5c-0.3-0.2-0.7-0.3-1-0.3c-0.6,0-0.8,0.2-0.8,0.5c0,0.8,2.3,0.2,2.3,1.5
				c0,0.6-0.6,1.1-1.5,1.1C58.5,36.5,57.9,36.3,57.6,36z"/>
			<path class="st1" d="M61.4,31.7c0-0.2,0.2-0.4,0.4-0.4c0.3,0,0.4,0.2,0.4,0.4c0,0.2-0.2,0.4-0.4,0.4C61.5,32.2,61.4,32,61.4,31.7
				z M61.5,32.8h0.6v3.6h-0.6V32.8z"/>
			<path class="st1" d="M66.8,32.8v3.1c0,1.3-0.6,1.8-1.9,1.8c-0.7,0-1.3-0.2-1.7-0.5l0.3-0.5c0.3,0.3,0.9,0.5,1.4,0.5
				c0.8,0,1.2-0.4,1.2-1.2v-0.3c-0.3,0.4-0.8,0.6-1.3,0.6c-1,0-1.8-0.7-1.8-1.7c0-1,0.8-1.7,1.8-1.7c0.5,0,1,0.2,1.3,0.6v-0.6H66.8z
				 M66.2,34.5c0-0.7-0.5-1.2-1.2-1.2c-0.7,0-1.2,0.5-1.2,1.2c0,0.7,0.5,1.2,1.2,1.2C65.7,35.7,66.2,35.2,66.2,34.5z"/>
			<path class="st1" d="M71.5,34.4v2.1h-0.6v-2c0-0.7-0.4-1-1-1c-0.7,0-1.1,0.4-1.1,1.2v1.8h-0.6v-3.6h0.6v0.5
				c0.3-0.4,0.7-0.6,1.3-0.6C70.9,32.8,71.5,33.3,71.5,34.4z"/>
			<path class="st1" d="M72.4,36c0-0.3,0.2-0.5,0.5-0.5c0.2,0,0.4,0.2,0.4,0.5c0,0.3-0.2,0.5-0.4,0.5C72.6,36.5,72.4,36.3,72.4,36z"
				/>
			<path class="st1" d="M83.7,31.7h2c1.5,0,2.6,1,2.6,2.4s-1,2.4-2.6,2.4h-2V31.7z M85.6,35.8c1.2,0,1.9-0.7,1.9-1.8
				s-0.8-1.8-1.9-1.8h-1.3v3.6H85.6z"/>
			<path class="st1" d="M88.9,34.6c0-1.1,0.8-1.8,1.9-1.8s1.9,0.8,1.9,1.8s-0.8,1.8-1.9,1.8S88.9,35.7,88.9,34.6z M91.9,34.6
				c0-0.8-0.5-1.3-1.2-1.3s-1.2,0.5-1.2,1.3s0.5,1.3,1.2,1.3S91.9,35.4,91.9,34.6z"/>
			<path class="st1" d="M99.5,34.4v2.1h-0.6v-2c0-0.7-0.3-1-0.9-1c-0.6,0-1.1,0.4-1.1,1.2v1.8h-0.6v-2c0-0.7-0.3-1-0.9-1
				c-0.6,0-1.1,0.4-1.1,1.2v1.8h-0.6v-3.6h0.6v0.5c0.3-0.4,0.7-0.6,1.2-0.6c0.5,0,1,0.2,1.2,0.7c0.3-0.4,0.8-0.7,1.4-0.7
				C98.9,32.8,99.5,33.3,99.5,34.4z"/>
			<path class="st1" d="M100.6,31.7c0-0.2,0.2-0.4,0.4-0.4s0.4,0.2,0.4,0.4c0,0.2-0.2,0.4-0.4,0.4C100.8,32.2,100.6,32,100.6,31.7z
				 M100.7,32.8h0.6v3.6h-0.6V32.8z"/>
			<path class="st1" d="M106,34.4v2.1h-0.6v-2c0-0.7-0.4-1-1-1c-0.7,0-1.1,0.4-1.1,1.2v1.8h-0.6v-3.6h0.6v0.5
				c0.3-0.4,0.7-0.6,1.3-0.6C105.4,32.8,106,33.3,106,34.4z"/>
			<path class="st1" d="M110.1,34.3v2.2h-0.6V36c-0.2,0.3-0.6,0.5-1.2,0.5c-0.8,0-1.3-0.4-1.3-1.1c0-0.6,0.4-1,1.4-1h1v-0.1
				c0-0.5-0.3-0.9-1-0.9c-0.4,0-0.9,0.1-1.1,0.4l-0.3-0.5c0.4-0.3,0.9-0.5,1.5-0.5C109.6,32.8,110.1,33.3,110.1,34.3z M109.5,35.3
				v-0.5h-1c-0.6,0-0.8,0.3-0.8,0.6c0,0.4,0.3,0.6,0.8,0.6C108.9,36,109.3,35.7,109.5,35.3z"/>
			<path class="st1" d="M113.4,36.2c-0.2,0.2-0.5,0.2-0.8,0.2c-0.7,0-1.1-0.4-1.1-1.1v-2h-0.6v-0.5h0.6v-0.8h0.6v0.8h1v0.5h-1v1.9
				c0,0.4,0.2,0.6,0.6,0.6c0.2,0,0.4-0.1,0.5-0.2L113.4,36.2z"/>
			<path class="st1" d="M117.3,34.9h-2.9c0.1,0.6,0.6,1,1.3,1c0.4,0,0.8-0.1,1-0.4l0.4,0.4c-0.3,0.4-0.8,0.6-1.4,0.6
				c-1.2,0-1.9-0.8-1.9-1.8c0-1.1,0.8-1.8,1.8-1.8s1.8,0.7,1.8,1.8C117.3,34.7,117.3,34.8,117.3,34.9z M114.4,34.4h2.3
				c-0.1-0.6-0.5-1-1.1-1C114.9,33.4,114.5,33.8,114.4,34.4z"/>
			<path class="st1" d="M117.9,36c0-0.3,0.2-0.5,0.5-0.5c0.2,0,0.4,0.2,0.4,0.5c0,0.3-0.2,0.5-0.4,0.5
				C118.1,36.5,117.9,36.3,117.9,36z"/>
		</g>
	</g>
	<g>
		<g>
			<g>
				<g>
					<g>
						<path class="st1" d="M25.5,20.8c-0.8-0.4-2.4-0.9-4.6-1.4c-0.9-0.3-1.6-0.8-2.3-1.5c-1.2-1.2-1.8-2.6-1.8-4.3s0.6-3.1,1.8-4.3
							c1.2-1.2,2.8-1.9,4.9-2.1c0.5-0.1,1-0.1,1.5-0.1c1.7,0,3.6,0.3,5.7,0.8l-1.1,5c-1.7-0.6-3.1-0.9-4.2-0.9h-0.2
							c-1.3,0-2.1,0.1-2.6,0.4c-0.5,0.3-0.7,0.7-0.7,1.1v0.1c0,0.4,0.2,0.7,0.7,0.9c0.9,0.4,2.4,0.9,4.6,1.4
							c0.8,0.3,1.6,0.8,2.2,1.4c1.2,1.2,1.8,2.6,1.8,4.3c0,1.7-0.6,3.1-1.8,4.3c-1.2,1.2-2.8,1.9-4.8,2.1c-0.4,0.1-0.8,0.1-1.3,0.1
							c-1.8,0-4.2-0.4-6.9-1.2l1.3-4.8c2.4,0.8,4.2,1.2,5.4,1.2h0.3c0.9,0,1.6-0.1,2-0.4c0.5-0.3,0.7-0.7,0.7-1.2v-0.1
							C26,21.2,25.8,21,25.5,20.8z"/>
					</g>
				</g>
				<g>
					<g>
						<path class="st1" d="M38,8.9c1.3-1,2.7-1.4,4.1-1.4c2.8,0,5.1,0.9,6.8,2.6s2.5,4,2.5,6.9v11.2h-5.1V16.9c0-1.5-0.3-2.5-1-3.2
							s-1.7-1-3.1-1c-1.2,0-2.6,0.6-4.1,1.8v13.6h-5.2V0.2H38V8.9z"/>
					</g>
				</g>
				
					<linearGradient id="SVGID_1_" gradientUnits="userSpaceOnUse" x1="63.4" y1="39.0124" x2="63.4" y2="1.2594" gradientTransform="matrix(1 0 0 -1 0 37.8898)">
					<stop  offset="0.2207" style="stop-color:#DC1C24"/>
					<stop  offset="1" style="stop-color:#A21C24"/>
				</linearGradient>
				<path class="st2" d="M73.7,17.8c0,2.8-1,5.3-3,7.3s-4.5,3-7.3,3s-5.3-1-7.3-3s-3-4.5-3-7.3s1-5.3,3-7.3s4.5-3,7.3-3s5.3,1,7.3,3
					C72.7,12.6,73.7,15,73.7,17.8z M63.4,12.7c-1.4,0-2.7,0.5-3.7,1.5s-1.5,2.2-1.5,3.7c0,1.4,0.5,2.7,1.5,3.7s2.2,1.5,3.7,1.5
					c1.4,0,2.7-0.5,3.7-1.5s1.5-2.2,1.5-3.7c0-1.4-0.5-2.7-1.5-3.7C66,13.2,64.8,12.7,63.4,12.7z"/>
				<g>
					<g>
						<path class="st1" d="M75.4,17.2c0-3.9,2.4-7.4,6-8.8c1.6-0.6,3-0.9,4.3-0.9c2.8,0,5.3,1,7.3,3c2.2,2.2,3.2,4.9,3,8.1
							c-0.1,2.2-1,4.3-2.4,5.9c-2.1,2.4-4.7,3.6-7.9,3.6c-1.8,0-3.5-0.6-5-1.7c-0.1,0-0.1,0-0.1,0.1v9.8c0,0,0,0.1-0.1,0.1h-5
							c0,0-0.1,0-0.1-0.1C75.4,36.3,75.4,17.2,75.4,17.2z M80.5,17.8c0,1.4,0.5,2.7,1.5,3.7s2.2,1.5,3.7,1.5c1.4,0,2.7-0.5,3.7-1.5
							s1.5-2.2,1.5-3.7c0-1.4-0.5-2.7-1.5-3.7s-2.2-1.5-3.7-1.5c-0.3,0-0.6,0-1,0.1C82.3,13.2,80.5,15.4,80.5,17.8L80.5,17.8z"/>
					</g>
				</g>
				<g>
					<g>
						<path class="st1" d="M106,20.8c-0.8-0.4-2.4-0.9-4.6-1.4c-0.9-0.3-1.6-0.8-2.3-1.5c-1.2-1.2-1.8-2.6-1.8-4.3s0.6-3.1,1.8-4.3
							c1.2-1.2,2.8-1.9,4.9-2.1c0.5-0.1,1-0.1,1.5-0.1c1.7,0,3.6,0.3,5.7,0.8l-1.1,5c-1.7-0.6-3.1-0.9-4.2-0.9h-0.2
							c-1.3,0-2.1,0.1-2.6,0.4c-0.5,0.3-0.7,0.7-0.7,1.1v0.1c0,0.4,0.2,0.7,0.7,0.9c0.9,0.4,2.4,0.9,4.6,1.4
							c0.8,0.3,1.6,0.8,2.2,1.4c1.2,1.2,1.8,2.6,1.8,4.3c0,1.7-0.6,3.1-1.8,4.3c-1.2,1.2-2.8,1.9-4.8,2.1c-0.4,0.1-0.8,0.1-1.3,0.1
							c-1.8,0-4.2-0.4-6.9-1.2l1.3-4.8c2.4,0.8,4.2,1.2,5.4,1.2h0.3c0.9,0,1.6-0.1,2-0.4c0.5-0.3,0.7-0.7,0.7-1.2v-0.1
							C106.5,21.2,106.3,21,106,20.8z"/>
					</g>
				</g>
				<g>
					<g>
						<path class="st1" d="M118.5,13.7c1.5-2.3,4-4.7,7.4-7.3l3.1,3.9c-2.2,1.8-4,3.6-5.4,5.5c3.1,2.9,5.3,7.1,6.4,12.4h-5.3
							c-1.3-4.6-3.4-8-6.2-10.3v10.3h-5.2V0.3h5.2V13.7L118.5,13.7z"/>
					</g>
				</g>
				<g>
					<g>
						<path class="st1" d="M142.5,27.6c-2.7,0.9-5.3,0.8-7.9-0.5c-2.6-1.2-4.3-3.2-5.3-5.9s-0.8-5.3,0.4-7.9s3.2-4.3,5.9-5.3
							c2.7-0.9,5.3-0.8,7.9,0.4c1.9,0.9,3.4,2.3,4.4,4l-3.9,4l0,0l-6.4,6.3c0.7,0.2,1.4,0.2,2.1,0.2l0,0c0.4,0,0.7-0.1,1.1-0.3
							c1.4-0.5,2.8-1.7,4.3-3.5l3.6,3.8C146.7,25.3,144.6,26.8,142.5,27.6z M141,13.1c-1.3-0.4-2.5-0.5-3.5-0.1
							c-1.4,0.5-2.3,1.4-3,2.6c-0.4,0.9-0.4,2.2,0.1,3.7l0.1,0.2L141,13.1z"/>
					</g>
				</g>
				<g>
					<g>
						<path class="st1" d="M158.5,22.4c2.2-5.4,3.7-10.3,4.5-14.9h5.6c-1,6.1-3.4,13-7,20.6l0,0l0,0c-1.3,2.7-2.7,5.4-4.3,8.3h-5.6
							c1.6-2.9,3.1-5.6,4.3-8.3c-3.4-5.5-5.8-12.4-7.2-20.6h5.6C155.3,13.1,156.7,18.1,158.5,22.4z"/>
					</g>
				</g>
			</g>
			<g>
				<circle class="st1" cx="168.2" cy="25.7" r="2.4"/>
			</g>
		</g>
	</g>
</g>
</svg>
