<?xml version="1.0" encoding="utf-8"?>
<!-- Generator: Adobe Illustrator 24.3.0, SVG Export Plug-In . SVG Version: 6.00 Build 0)  -->
<svg version="1.1" id="Layer_1" xmlns="http://www.w3.org/2000/svg" xmlns:xlink="http://www.w3.org/1999/xlink" x="0px" y="0px"
	 viewBox="0 0 32.8 48" style="enable-background:new 0 0 32.8 48;" xml:space="preserve">
<style type="text/css">
	.st0{fill:#FF6600;}
</style>
<path class="st0" d="M31.3,27.4c-0.7-0.7-1-1.5-1-2.5V9.7C30.3,4.3,26,0,20.7,0H12C6.6,0,2.3,4.3,2.3,9.7v15.2c0,0.9-0.4,1.8-1,2.5
	L0,28.6l1.4,1.7c0.5,0.6,0.8,1.4,0.8,2.2v13.8C2.2,47.3,3,48,3.9,48h6.8c0.9,0,1.6-0.7,1.6-1.6V34.9c0-0.7,0.6-1.3,1.3-1.3h5.7
	c0.7,0,1.3,0.6,1.3,1.3v11.5c0,0.9,0.7,1.6,1.6,1.6h6.7c0.9,0,1.6-0.7,1.6-1.6V32.6c0-0.9,0.4-1.8,1-2.5l1.2-1.2L31.3,27.4z
	 M21,22.6c0,0.8-0.6,1.4-1.4,1.4h-6.2c-0.8,0-1.4-0.6-1.4-1.4V11.8c0-0.8,0.6-1.4,1.4-1.4h6.2c0.8,0,1.4,0.6,1.4,1.4V22.6z"/>
</svg>
