<?xml version="1.0" encoding="utf-8"?>
<!-- Generator: Adobe Illustrator 24.3.0, SVG Export Plug-In . SVG Version: 6.00 Build 0)  -->
<svg version="1.1" id="Layer_1" xmlns="http://www.w3.org/2000/svg" xmlns:xlink="http://www.w3.org/1999/xlink" x="0px" y="0px"
	 viewBox="0 0 51.4 30.3" style="enable-background:new 0 0 51.4 30.3;" xml:space="preserve">
<style type="text/css">
	.st0{fill:#FF6600;}
</style>
<path class="st0" d="M0,13.5c0.2,3,2.7,5,6.5,5c4,0,6.5-2,6.5-5.3c0-2.5-1.4-3.9-4.9-4.8L6.2,8C4,7.5,3.1,6.8,3.1,5.6
	c0-1.5,1.4-2.5,3.5-2.5c2,0,3.3,1,3.6,2.5h2.6C12.6,2.8,10,0.8,6.6,0.8c-3.7,0-6.2,2-6.2,5c0,2.5,1.4,4,4.5,4.7L7.1,11
	c2.2,0.5,3.2,1.3,3.2,2.6c0,1.5-1.5,2.6-3.7,2.6c-2.3,0-3.8-1-4.1-2.6H0z"/>
<path class="st0" d="M31.1,5.3h-2.5l-2.3,9.7h-0.2l-2.6-9.7H21l-2.6,9.7h-0.2l-2.3-9.7h-2.6l3.5,12.8h2.6l2.6-9.4h0.2l2.6,9.4h2.6
	L31.1,5.3z"/>
<path class="st0" d="M32.3,18.1h2.5V5.3h-2.5V18.1z M33.5,3.1c0.9,0,1.6-0.7,1.6-1.5c0-0.9-0.7-1.5-1.6-1.5s-1.6,0.7-1.6,1.5
	C31.9,2.4,32.6,3.1,33.5,3.1z"/>
<path class="st0" d="M38.9,18.1h2.5V7.5h2.8V5.4h-2.8V4.2c0-1.3,0.6-1.9,2-1.9c0.4,0,0.7,0,1,0.1v-2c-0.4-0.1-0.9-0.1-1.5-0.1
	c-2.6,0-3.9,1.3-3.9,3.8v1.4h-2.1v2.1h2.1V18.1z"/>
<path class="st0" d="M46.1,2.1v3.2h-2v2.1h2v7.2c0,2.5,1.1,3.4,3.9,3.4c0.5,0,1-0.1,1.4-0.1v-2.1c-0.4,0-0.6,0.1-1,0.1
	c-1.3,0-1.8-0.6-1.8-1.9V7.5h2.8V5.4h-2.8V2.1H46.1z"/>
<path class="st0" d="M8.7,30.3c1.6,0,2.8-1,3-2.4h-1.2c-0.2,0.8-0.8,1.3-1.7,1.3c-1.2,0-1.9-1-1.9-2.6C6.8,25,7.5,24,8.7,24
	c0.9,0,1.6,0.5,1.7,1.4h1.2c-0.1-1.5-1.4-2.5-3-2.5c-2,0-3.2,1.4-3.2,3.7C5.5,28.8,6.7,30.3,8.7,30.3z"/>
<path class="st0" d="M15.1,30.2c1.6,0,2.6-1,2.6-2.8c0-1.7-1-2.8-2.6-2.8c-1.6,0-2.6,1.1-2.6,2.8C12.5,29.1,13.5,30.2,15.1,30.2z
	 M15.1,29.2c-0.8,0-1.3-0.6-1.3-1.8c0-1.1,0.5-1.8,1.3-1.8c0.8,0,1.3,0.6,1.3,1.8C16.4,28.5,15.9,29.2,15.1,29.2z"/>
<path class="st0" d="M18.7,30.1h1.2v-3.2c0-0.7,0.4-1.1,1-1.1c0.6,0,1,0.4,1,0.9v3.5h1.2v-3.3c0-0.6,0.4-1.1,1-1.1c0.6,0,1,0.3,1,1
	v3.4h1.2v-3.7c0-1.1-0.6-1.8-1.7-1.8c-0.7,0-1.4,0.4-1.6,1h-0.1c-0.2-0.6-0.7-1-1.5-1c-0.7,0-1.3,0.4-1.5,1h-0.1v-0.9h-1.2V30.1z"/>
<path class="st0" d="M30.5,30.2c1.3,0,2.2-1.1,2.2-2.8c0-1.7-0.8-2.8-2.2-2.8c-0.7,0-1.3,0.4-1.6,0.9h-0.1v-2.9h-1.2v7.4h1.2v-0.8
	h0.1C29.1,29.8,29.8,30.2,30.5,30.2z M30.1,25.7c0.8,0,1.3,0.7,1.3,1.7s-0.5,1.7-1.3,1.7c-0.8,0-1.3-0.7-1.3-1.7
	C28.8,26.3,29.3,25.7,30.1,25.7z"/>
<path class="st0" d="M33.7,30.1h1.2v-5.3h-1.2V30.1z M34.3,23.9c0.4,0,0.7-0.3,0.7-0.7c0-0.4-0.3-0.7-0.7-0.7
	c-0.4,0-0.7,0.3-0.7,0.7C33.6,23.6,33.9,23.9,34.3,23.9z"/>
<path class="st0" d="M36.2,30.1h1.2V27c0-0.8,0.5-1.3,1.2-1.3c0.7,0,1.1,0.4,1.1,1.2v3.2h1.2v-3.5c0-1.3-0.6-2-1.8-2
	c-0.8,0-1.3,0.4-1.6,1h-0.1v-0.9h-1.2V30.1z"/>
<path class="st0" d="M44.4,25.6c0.7,0,1.2,0.5,1.2,1.3h-2.5C43.2,26.1,43.7,25.6,44.4,25.6z M45.6,28.6c-0.2,0.4-0.6,0.6-1.2,0.6
	c-0.8,0-1.3-0.6-1.3-1.4v-0.1h3.7v-0.4c0-1.7-0.9-2.7-2.4-2.7c-1.5,0-2.5,1.1-2.5,2.8c0,1.7,0.9,2.8,2.5,2.8c1.3,0,2.1-0.6,2.4-1.6
	H45.6z"/>
</svg>
