<?xml version="1.0" encoding="utf-8"?>
<!-- Generator: Adobe Illustrator 24.3.0, SVG Export Plug-In . SVG Version: 6.00 Build 0)  -->
<svg version="1.1" id="Layer_1" xmlns="http://www.w3.org/2000/svg" xmlns:xlink="http://www.w3.org/1999/xlink" x="0px" y="0px"
	 viewBox="0 0 44.1 48" style="enable-background:new 0 0 44.1 48;" xml:space="preserve">
<style type="text/css">
	.st0{fill-rule:evenodd;clip-rule:evenodd;fill:#FF6600;}
</style>
<path class="st0" d="M22.2,0c-18,0-23.4,6.1-22,10.4l22-2.7l7.3,10.1v20.6c0,0-1.2,1.3-10.6,1.1c-9.4-0.2-16.5-8.4-16.5-8.4L2.8,35
	c0.4,4.3,2.4,8.3,6.3,10.1c3.3,1.5,7.8,2.9,13.2,2.9c7.9,0,12.7-2.7,14.8-4.8c0.8-0.7,1.1-1.7,1.3-2.7c0.6-3.3,1.4-7.2,2.1-11.2l0,0
	l0,0c1.8-9.4,3.6-19,3.6-20.7C44.1,6.8,40.3,0,22.2,0z M15,19.2c-4.1-0.6-9.5-3-11.7-4.2l1.6,13.1c0.2,1.9,1.2,3.7,2.8,4.8
	c1.8,1.2,4.4,2.6,7.3,3.3c3,0.7,6.4,0.6,8.9,0.4c1.9-0.2,3.3-1.8,3.3-3.7V19.6C24.8,19.7,19.2,19.8,15,19.2z M19.4,10L3.3,12.3
	c1.3,1.2,5.5,3.8,11.4,4.6c5.9,0.8,10.5,0.7,12,0.5l-4.5-6.2C21.6,10.3,20.5,9.8,19.4,10z"/>
</svg>
