<?xml version="1.0" encoding="utf-8"?>
<!-- Generator: Adobe Illustrator 24.3.0, SVG Export Plug-In . SVG Version: 6.00 Build 0)  -->
<svg version="1.1" id="Layer_1" xmlns="http://www.w3.org/2000/svg" xmlns:xlink="http://www.w3.org/1999/xlink" x="0px" y="0px"
	 viewBox="0 0 48 48" style="enable-background:new 0 0 48 48;" xml:space="preserve">
<style type="text/css">
	.st0{fill:#FF6600;}
</style>
<path class="st0" d="M24,0c-4.7,0-9.4,1.4-13.3,4c-3.9,2.6-7,6.4-8.8,10.8S-0.5,24,0.5,28.7C1.4,33.3,3.7,37.6,7,41
	c3.4,3.4,7.6,5.6,12.3,6.6c4.7,0.9,9.5,0.5,13.9-1.4c4.4-1.8,8.1-4.9,10.8-8.8c2.6-3.9,4-8.6,4-13.3c0-6.4-2.5-12.5-7-17
	C36.5,2.5,30.4,0,24,0L24,0z M22.7,28H10.8L22.7,4.7V28z M25.2,43.2V20h12L25.2,43.2z"/>
</svg>
