<?xml version="1.0" encoding="utf-8"?>
<!-- Generator: Adobe Illustrator 24.3.0, SVG Export Plug-In . SVG Version: 6.00 Build 0)  -->
<svg version="1.1" id="Layer_1" xmlns="http://www.w3.org/2000/svg" xmlns:xlink="http://www.w3.org/1999/xlink" x="0px" y="0px"
	 viewBox="0 0 48 42.9" style="enable-background:new 0 0 48 42.9;" xml:space="preserve">
<style type="text/css">
	.st0{fill:#FF6600;}
</style>
<path class="st0" d="M48,27.8v15.2c-0.2,0-0.3,0-0.5,0c-4.7,0-9.5,0-14.2,0c-0.3,0-0.5-0.1-0.8-0.3c-1-1-2.1-2.1-3.1-3.1
	c-1-1-2-2-3-3h10.1c-3.3-3.3-6.6-6.5-9.9-9.7c-0.1,0.1-0.2,0.2-0.3,0.3C21.2,32.2,16,37.4,10.8,42.6c-0.2,0.2-0.5,0.3-0.8,0.3
	c-3.2,0-6.3,0-9.5,0c-0.1,0-0.3,0-0.5,0c7.2-7.2,14.3-14.3,21.5-21.5C14.3,14.3,7.2,7.2,0.1,0c0.2,0,0.3,0,0.5,0C3.7,0,6.8,0,10,0
	c0.3,0,0.5,0.1,0.8,0.3c5.2,5.2,10.4,10.4,15.6,15.6c0.1,0.1,0.2,0.3,0.2,0.3c3.3-3.3,6.6-6.6,9.8-9.8h-9.9c0.1-0.1,0.1-0.1,0.2-0.2
	c2-2,4-4,6-6C32.8,0.1,33,0,33.2,0c1.5,0,2.9,0,4.4,0c3.5,0,7,0,10.5,0v15.2c-0.1,0.1-0.2,0.2-0.3,0.3c-1.9,1.9-3.8,3.8-5.7,5.7
	c-0.1,0.1-0.2,0.2-0.3,0.3c0,0.1,0.1,0.1,0.1,0.1C43.9,23.6,45.9,25.7,48,27.8L48,27.8z M32,21.5c3.1,3.2,6.3,6.4,9.5,9.6V12
	C38.3,15.1,35.2,18.3,32,21.5L32,21.5z"/>
</svg>
