<?xml version="1.0" encoding="utf-8"?>
<!-- Generator: Adobe Illustrator 24.3.0, SVG Export Plug-In . SVG Version: 6.00 Build 0)  -->
<svg version="1.1" id="Layer_1" xmlns="http://www.w3.org/2000/svg" xmlns:xlink="http://www.w3.org/1999/xlink" x="0px" y="0px"
	 viewBox="0 0 48 48" style="enable-background:new 0 0 48 48;" xml:space="preserve">
<style type="text/css">
	.st0{fill:#FF6600;}
</style>
<path class="st0" d="M37.7,8C39,8,40,9,40,10.3v27.5c0,1.3-1,2.3-2.3,2.3H10.3C9,40,8,39,8,37.7V10.3C8,9,9,8,10.3,8H37.7z M37.7,0
	H10.3c-1.4,0-2.7,0.3-4,0.8C5,1.3,3.9,2.1,3,3C2.1,3.9,1.3,5,0.8,6.3C0.3,7.5,0,8.9,0,10.3v27.5c0,1.4,0.3,2.7,0.8,4
	C1.3,43,2.1,44.1,3,45c0.9,0.9,2,1.7,3.3,2.2c1.3,0.5,2.6,0.8,4,0.8h27.5c1.4,0,2.7-0.3,4-0.8c1.2-0.5,2.3-1.3,3.3-2.2
	c0.9-0.9,1.7-2,2.2-3.3c0.5-1.3,0.8-2.6,0.8-4V10.3c0-1.4-0.3-2.7-0.8-4C46.7,5,45.9,3.9,45,3c-0.9-0.9-2-1.7-3.3-2.2
	C40.5,0.3,39.1,0,37.7,0L37.7,0z"/>
<path class="st0" d="M29.7,17H18.3c-0.8,0-1.4,0.6-1.4,1.4v11.3c0,0.8,0.6,1.4,1.4,1.4h11.3c0.8,0,1.4-0.6,1.4-1.4V18.3
	C31,17.6,30.4,17,29.7,17z"/>
</svg>
