<?xml version="1.0" encoding="utf-8"?>
<!-- Generator: Adobe Illustrator 24.3.0, SVG Export Plug-In . SVG Version: 6.00 Build 0)  -->
<svg version="1.1" id="Layer_1" xmlns="http://www.w3.org/2000/svg" xmlns:xlink="http://www.w3.org/1999/xlink" x="0px" y="0px"
	 viewBox="0 0 36.9 50" style="enable-background:new 0 0 36.9 50;" xml:space="preserve">
<style type="text/css">
	.st0{fill:#FF6600;}
</style>
<path class="st0" d="M11.9,38.7c0,0-1.9,1.2,1.3,1.5c3.9,0.5,6,0.4,10.4-0.4c0.9,0.5,1.8,1,2.8,1.3C16.6,45.3,4.2,40.8,11.9,38.7
	L11.9,38.7z M10.7,33.2c0,0-2.1,1.6,1.2,1.9c4.3,0.4,7.6,0.5,13.4-0.7c0.6,0.6,1.2,1,2,1.3C15.4,39.2,2.2,36.1,10.7,33.2L10.7,33.2z
	 M33.7,42.7c0,0,1.4,1.2-1.6,2.1c-5.6,1.7-23.5,2.2-28.5,0c-1.8-0.8,1.6-1.8,2.7-2C7.4,42.6,8,42.6,8,42.6
	c-1.9-1.3-12.8,2.8-5.5,3.9C22.4,49.8,38.9,45.1,33.7,42.7L33.7,42.7z M12.8,27.6c0,0-9.1,2.2-3.3,2.9c2.5,0.3,7.4,0.2,12-0.1
	c3.8-0.3,7.5-1,7.5-1s-1.3,0.6-2.3,1.2c-9.3,2.4-27.1,1.3-22-1.2C9.2,27.3,12.8,27.6,12.8,27.6L12.8,27.6z M29.1,36.7
	c9.3-4.8,5-9.5,2-8.9c-0.8,0.2-1.1,0.3-1.1,0.3s0.2-0.5,0.8-0.7c5.9-2.1,10.6,6.3-1.9,9.5C28.9,36.9,29,36.8,29.1,36.7L29.1,36.7z
	 M13.7,49.8c9,0.6,22.8-0.3,23.1-4.6c0,0-0.7,1.7-7.4,2.9c-7.7,1.4-17.2,1.2-22.8,0.3C6.6,48.5,7.8,49.5,13.7,49.8L13.7,49.8z"/>
<path class="st0" d="M23.4,0c0,0,5.2,5.3-4.9,13.2c-8.1,6.4-1.8,10.1,0,14.3c-4.8-4.3-8.2-8-5.8-11.5C16.1,10.8,25.5,8.3,23.4,0z
	 M20.8,24c2.4,2.8-0.7,5.3-0.7,5.3s6.2-3.2,3.3-7.1c-2.6-3.8-4.6-5.6,6.3-11.9C29.7,10.3,12.6,14.5,20.8,24z"/>
</svg>
