<?xml version="1.0" encoding="utf-8"?>
<!-- Generator: Adobe Illustrator 24.3.0, SVG Export Plug-In . SVG Version: 6.00 Build 0)  -->
<svg version="1.1" id="Layer_1" xmlns="http://www.w3.org/2000/svg" xmlns:xlink="http://www.w3.org/1999/xlink" x="0px" y="0px"
	 viewBox="0 0 48 47.3" style="enable-background:new 0 0 48 47.3;" xml:space="preserve">
<style type="text/css">
	.st0{fill:#FF6600;}
</style>
<path class="st0" d="M46.1,30.6c1.7-3,2.3-6.2,1.7-9.6c-1.2,2.5-2.6,5-4.8,6.8c0.1-0.2,0.2-0.4,0.3-0.6c1.4-2.1,2.2-4.4,2.3-7
	c0.1-2.4-0.4-4.7-1.8-6.7c-0.2-0.3-0.5-0.6-0.7-0.9C43.9,15,44,17,43.7,19c-0.8,5.1-3.2,9.4-7.1,12.8c-0.4,0.4-0.9,0.7-1.4,1.1
	c1.4,0.2,2.8,0,4.1-0.3c1.3-0.4,2.5-1,3.6-1.8c-3.7,3.8-8.1,6.3-13.5,6.7c1,1,2.1,1.7,3.4,2.2c1.2,0.5,2.5,0.7,3.8,0.8
	c-0.9,0.2-1.7,0.3-2.6,0.4c-1.9,0.2-3.7,0.1-5.6-0.5c-3.4-1-6.2-3-8.7-5.3c-0.7-0.6-1.3-1.2-2-1.9c0.1,2.7,1.7,4.6,3.6,6.5
	c-0.2,0-0.3,0-0.3-0.1c-2.9-1.4-5.3-3.4-6.7-6.3c-1.3-2.5-1.6-5.2-1.3-8c0.2-2,0.8-3.9,2.1-5.5c1.8-2.3,4.3-3.8,7.1-4.6
	c0.3-0.1,0.6,0,0.9,0.1c1.7,0.6,3.3,1.4,5,2c3,1,6,1.8,9.2,1.7c1.2,0,2.3-0.2,3.4-0.7c1.1-0.6,1.8-1.5,1.8-2.8
	c0-0.9-0.2-1.6-0.6-2.4c-0.7-1.5-1.8-2.8-3-4c-4.5-4.2-9.8-6.8-16.1-6.9c-0.2,0-0.5-0.1-0.7-0.3c-0.8-0.7-1.6-1.2-2.6-1.5
	C17-0.3,15-0.1,13.4,1.9c-0.5,0.6-1,1.1-1.5,1.7C11,4.4,10,5,8.8,5.1c-0.7,0.1-1.3,0.2-2,0.4c-1.6,0.4-2.4,1.3-2.5,3
	c-0.1,0.7-0.1,1.4-0.1,2.1c0,1.1-0.4,2.1-1.3,2.8c-0.7,0.5-1.3,1.2-1.9,1.8c-0.7,0.8-1,1.7-0.7,2.7c0.2,0.9,0.5,1.9,0.8,2.8
	C1.5,21.9,1.5,23,0.6,24c-0.9,1-0.8,2.1-0.1,3.1c0.6,0.9,1.3,1.6,1.9,2.5c0.2,0.3,0.4,0.5,0.5,0.8c1.7,4.4,4.2,8.1,7.9,11
	c6.3,4.9,13.3,7,21.2,5.2c7.3-1.7,12.3-6.2,15.3-13.1c0.1-0.1,0.1-0.3,0.2-0.5c-2.6,2-5.2,3.7-8.4,4.2
	C42.1,35.8,44.4,33.5,46.1,30.6L46.1,30.6z M29.7,9.6c0.6,0,1.1,0.5,1.1,1.1c0,0.6-0.5,1.1-1.1,1.1c-0.6,0-1.1-0.5-1.1-1.1
	C28.7,10,29.1,9.6,29.7,9.6z"/>
</svg>
