<?xml version="1.0" encoding="utf-8"?>
<!-- Generator: Adobe Illustrator 24.3.0, SVG Export Plug-In . SVG Version: 6.00 Build 0)  -->
<svg version="1.1" id="Layer_1" xmlns="http://www.w3.org/2000/svg" xmlns:xlink="http://www.w3.org/1999/xlink" x="0px" y="0px"
	 viewBox="0 0 65.8 70" style="enable-background:new 0 0 65.8 70;" xml:space="preserve">
<style type="text/css">
	.st0{fill:#FC501B;}
</style>
<g>
	<path class="st0" d="M51.8,33c-0.1,5.5-2.1,10.1-6.2,13.8c-1,0.9-1.8,1.8-2.4,3c-0.5,1.1-0.9,2.2-0.9,3.4c0,1.4-0.4,2.7-1.6,3.6
		c-0.3,0.2-0.3,0.4-0.2,0.7c0.1,0.6,0.1,1.1-0.2,1.7c-0.1,0.3-0.1,0.5,0,0.8c0.2,0.6,0.2,1.3,0,1.9c-0.2,0.4-0.1,0.7,0,1
		c0.2,0.6,0.2,1.2,0,1.8c-0.4,1-1.1,1.5-2.1,1.5c-0.6,0-0.9,0.2-1.1,0.8c-0.2,0.5-0.5,1-0.8,1.4c-1.8,2.1-4.7,2.2-6.6,0.1
		c-0.2-0.3-0.5-0.5-0.6-0.9c-0.3-1-0.9-1.4-2-1.5c-1.2-0.1-2-1.4-1.7-2.7c0.1-0.7,0.3-1.4,0-2.1c0,0,0-0.1,0-0.2
		c0.2-1.2,0.1-2.3,0-3.5c0-0.4,0-0.7-0.4-1c-0.9-0.8-1.4-1.8-1.4-3c-0.1-2.6-1.1-4.8-3-6.5c-3-2.7-5-5.9-6-9.8
		c-2.4-9.6,3.3-19.5,12.8-22.4C38,11.8,49,18.2,51.3,29c0.1,0.5,0.2,1.1,0.3,1.7C51.7,31.5,51.8,32.2,51.8,33L51.8,33z M32.9,55.6
		L32.9,55.6c1.7,0,3.4,0,5.1,0c1.4,0,2.1-0.7,2.1-2.1c0-0.7,0.1-1.4,0.3-2.1c0.5-2.3,1.8-4.2,3.6-5.9c4.9-4.5,6.7-10.1,5.2-16.6
		c-2-8.4-10.1-13.7-18.7-12.5c-9.7,1.4-16.2,11.2-13.8,20.7c0.9,3.4,2.7,6.3,5.4,8.6c1.8,1.6,3,3.6,3.4,5.9c0.1,0.7,0.2,1.5,0.2,2.2
		c0.1,0.9,0.6,1.5,1.5,1.7c0.4,0.1,0.7,0.1,1.1,0.1C29.8,55.6,31.4,55.6,32.9,55.6L32.9,55.6z M32.9,63.4L32.9,63.4
		c-1.6,0-3.1,0-4.7,0c-0.3,0-0.8-0.2-0.9,0.3c0,0.6,0.5,0.4,0.9,0.4c3.1,0,6.2,0,9.3,0c0.2,0,0.4,0,0.5,0c0.2-0.1,0.3-0.2,0.3-0.4
		s-0.1-0.3-0.3-0.3s-0.4,0-0.5,0C36,63.4,34.5,63.4,32.9,63.4L32.9,63.4z M32.9,58.5c1.5,0,3,0,4.5,0c0.2,0,0.4,0,0.6,0
		c0.3,0,0.4-0.2,0.4-0.4s-0.1-0.3-0.3-0.3c-0.1,0-0.2,0-0.3,0c-3.3,0-6.5,0-9.8,0c-0.2,0-0.6-0.1-0.6,0.3c0,0.4,0.3,0.4,0.6,0.4
		c0.2,0,0.4,0,0.5,0C30,58.5,31.4,58.5,32.9,58.5L32.9,58.5z M33,60.6c-1.6,0-3.1,0-4.7,0c-0.2,0-0.5,0-0.7,0s-0.2,0.2-0.2,0.3
		s0.1,0.3,0.2,0.3c0.2,0,0.5,0,0.7,0.1c3.1,0,6.1,0,9.2,0c0.2,0,0.4,0,0.5,0c0.2,0,0.4-0.2,0.4-0.4s-0.2-0.3-0.3-0.3
		c-0.2,0-0.4,0-0.5,0C36,60.6,34.5,60.6,33,60.6z M34.8,66.7c-1.1-0.2-3.3-0.1-3.8,0.1C32,68.3,34,68.2,34.8,66.7z"/>
	<path class="st0" d="M56.5,55.3c0,0.8-0.9,1.3-1.5,0.9c-0.2-0.1-0.4-0.3-0.6-0.5c-2-2-4-4-6-5.9c-0.2-0.2-0.3-0.3-0.5-0.5
		c-0.3-0.4-0.3-0.9,0.1-1.3c0.3-0.4,0.9-0.4,1.3-0.1c0.2,0.1,0.4,0.3,0.5,0.5c2,2,4,4,6,6C56.2,54.6,56.5,54.9,56.5,55.3L56.5,55.3z
		"/>
	<path class="st0" d="M31.8,5.7c0-1.3,0-2.6,0-3.9c0-0.3,0-0.6,0.1-0.9C32,0.3,32.4,0,32.9,0s0.9,0.3,1,0.8C34,1.1,34,1.3,34,1.5
		c0,2.8,0,5.7,0,8.5c0,0.2,0,0.5-0.1,0.7c-0.2,0.5-0.6,0.8-1.1,0.8s-0.8-0.3-0.9-0.8c-0.1-0.4-0.1-0.7-0.1-1.1
		C31.8,8.3,31.8,7,31.8,5.7z"/>
	<path class="st0" d="M56.5,10.4c0,0.3-0.2,0.6-0.4,0.8c-2.2,2.2-4.3,4.3-6.5,6.5c-0.5,0.5-0.9,0.5-1.4,0.3
		c-0.5-0.3-0.7-0.9-0.4-1.4c0.1-0.2,0.3-0.4,0.5-0.6c2-2,4-4,6-6c0.2-0.2,0.4-0.4,0.6-0.5C55.6,9,56.5,9.5,56.5,10.4L56.5,10.4z"/>
	<path class="st0" d="M10.4,56.4c-0.8,0-1.3-0.8-0.9-1.5c0.1-0.2,0.3-0.4,0.5-0.6c2-2,4-4,6-6c0.1-0.2,0.3-0.3,0.5-0.4
		c0.5-0.4,1-0.3,1.4,0.1c0.4,0.4,0.4,0.9,0.1,1.4c-0.1,0.1-0.2,0.3-0.4,0.4c-2,2-4.1,4.1-6.1,6.1C11.1,56.1,10.8,56.4,10.4,56.4
		L10.4,56.4z"/>
	<path class="st0" d="M60,31.8c1.5,0,2.9,0,4.4,0c1,0,1.5,0.4,1.4,1.1c0,0.7-0.5,1-1.4,1c-2.9,0-5.9,0-8.8,0c-0.2,0-0.4,0-0.5,0
		c-0.5-0.1-0.8-0.5-0.8-1s0.3-0.9,0.9-1c0.2,0,0.5,0,0.7,0C57.2,31.8,58.6,31.8,60,31.8L60,31.8z"/>
	<path class="st0" d="M5.7,33.9c-1.3,0-2.5,0-3.8,0c-0.2,0-0.4,0-0.6,0c-0.8,0-1.3-0.4-1.3-1.1c0-0.6,0.5-1,1.3-1c3,0,6,0,9,0
		c0.1,0,0.2,0,0.4,0c0.5,0.1,0.9,0.5,0.9,1s-0.3,1-0.9,1.1c-0.3,0.1-0.6,0-0.9,0C8.4,33.9,7.1,33.9,5.7,33.9z"/>
	<path class="st0" d="M10.3,9.3c0.4,0,0.7,0.2,0.9,0.4c0.5,0.5,1,1,1.5,1.4c1.6,1.6,3.2,3.2,4.8,4.7c0.2,0.2,0.4,0.4,0.5,0.6
		c0.2,0.4,0.1,0.9-0.2,1.2c-0.4,0.3-0.8,0.4-1.2,0.1c-0.2-0.1-0.4-0.3-0.6-0.5c-2-2-4-4-6-6c-0.2-0.2-0.4-0.3-0.5-0.5
		c-0.2-0.4-0.2-0.7,0-1.1C9.7,9.5,10,9.3,10.3,9.3L10.3,9.3z"/>
	<path class="st0" d="M48,32.1c0,0.3,0,0.6,0,0.8c-0.1,0.5-0.5,1-1,1s-1-0.4-1-0.9c-0.1-0.7-0.1-1.5-0.2-2.2
		c-0.4-2.6-1.6-4.9-3.4-6.8c-0.2-0.2-0.3-0.4-0.5-0.6c-0.2-0.4-0.1-0.9,0.2-1.2c0.3-0.3,0.8-0.4,1.2-0.1c0.2,0.2,0.5,0.4,0.7,0.6
		C46.4,25.2,47.9,28.7,48,32.1L48,32.1z"/>
	<path class="st0" d="M47.5,36.5c0,0.1,0,0.2-0.1,0.4c-0.4,1.5-1.1,3-2,4.3c-0.4,0.6-1,0.7-1.5,0.4s-0.7-0.9-0.3-1.5
		c0.8-1.2,1.3-2.5,1.8-3.9c0.2-0.6,0.7-0.9,1.2-0.8C47.2,35.5,47.5,35.9,47.5,36.5L47.5,36.5z"/>
</g>
</svg>
