<?xml version="1.0" encoding="utf-8"?>
<!-- Generator: Adobe Illustrator 24.3.0, SVG Export Plug-In . SVG Version: 6.00 Build 0)  -->
<svg version="1.1" id="Layer_1" xmlns="http://www.w3.org/2000/svg" xmlns:xlink="http://www.w3.org/1999/xlink" x="0px" y="0px"
	 viewBox="0 0 56 70" style="enable-background:new 0 0 56 70;" xml:space="preserve">
<style type="text/css">
	.st0{fill:#FC501B;}
</style>
<g>
	<path class="st0" d="M46.6,23.7c-0.1,5.8-2.3,11.1-6.5,15.6c-0.1,0.1-0.2,0.2-0.2,0.2c-0.5,0.6-0.5,0.6-0.1,1.2
		c0.9,1.2,1.8,2.5,2.7,3.7C46.7,50.3,51,56.1,55.2,62c0.2,0.2,0.3,0.5,0.5,0.7c0.4,0.7,0.3,1.3-0.3,1.8c-0.5,0.4-1.1,0.8-1.7,1.2
		c-1.6,1.2-3.3,2.4-4.9,3.5c-1.3,0.9-1.7,0.9-2.7-0.4c-5.3-7.4-10.7-14.7-15.9-22.1c-0.6-0.8-1.1-1-2.1-0.8
		C15.4,48.7,3,40.6,0.5,27.8c-2.5-12.2,5-23.9,16.8-27C30.1-2.6,42.9,5.1,46,17.9C46.5,19.7,46.6,21.5,46.6,23.7z M2.5,23.3
		C2.5,34.7,11.8,44,23.3,44c11.6,0,20.8-9.2,20.8-20.8c0-10.9-8.8-20.6-20.8-20.6C11.9,2.5,2.5,11.9,2.5,23.3z M32.1,44.9
		c0,0.5,0.3,0.7,0.5,1c3,4.2,6.1,8.4,9.1,12.6c1.9,2.6,3.8,5.2,5.7,7.9c0.3,0.4,0.6,0.5,1,0.2s0.9-0.7,1.3-1
		c0.9-0.6,1.7-1.3,2.6-1.9c0.4-0.3,0.6-0.5,0.2-1c-0.1-0.1-0.1-0.2-0.2-0.2c-4.8-6.6-9.6-13.2-14.4-19.9c-0.1-0.1-0.2-0.3-0.3-0.4
		c-0.2-0.3-0.4-0.3-0.7-0.1c-0.4,0.3-0.9,0.6-1.3,0.9C34.6,43.7,33.3,44.3,32.1,44.9L32.1,44.9z"/>
	<path class="st0" d="M25.9,4.5c4,0.3,7.6,1.8,10.6,4.6c0.2,0.2,0.4,0.4,0.5,0.6c0.3,0.5,0.2,1.1-0.2,1.5c-0.5,0.4-1,0.5-1.5,0.1
		c-0.2-0.1-0.4-0.3-0.6-0.5C32,8.4,28.9,7.1,25.3,7c-0.2,0-0.4,0-0.6-0.1c-0.6-0.2-1-0.7-1-1.3s0.5-1.1,1.2-1.2
		C25.2,4.5,25.6,4.5,25.9,4.5L25.9,4.5z"/>
	<path class="st0" d="M38.5,12.2c0.4,0,0.8,0.2,1,0.6c1,1.7,1.7,3.5,2.1,5.4c0.1,0.6-0.3,1.2-0.9,1.4c-0.7,0.2-1.2-0.1-1.5-0.7
		c-0.1-0.2-0.1-0.4-0.2-0.6c-0.3-1.4-0.8-2.6-1.5-3.9c-0.1-0.2-0.2-0.4-0.3-0.7C37,12.9,37.6,12.2,38.5,12.2L38.5,12.2z"/>
	<path class="st0" d="M48.6,62.6c-0.4,0-0.7-0.2-1-0.5c-0.9-1.2-1.8-2.4-2.7-3.6c-0.5-0.7-0.3-1.4,0.2-1.8c0.6-0.4,1.2-0.3,1.8,0.3
		c0.9,1.2,1.8,2.4,2.7,3.6c0.3,0.4,0.4,0.9,0.1,1.4C49.5,62.4,49.1,62.6,48.6,62.6L48.6,62.6z"/>
</g>
</svg>
