<?xml version="1.0" encoding="utf-8"?>
<!-- Generator: Adobe Illustrator 24.3.0, SVG Export Plug-In . SVG Version: 6.00 Build 0)  -->
<svg version="1.1" id="Layer_1" xmlns="http://www.w3.org/2000/svg" xmlns:xlink="http://www.w3.org/1999/xlink" x="0px" y="0px"
	 viewBox="0 0 69.1 63.9" style="enable-background:new 0 0 69.1 63.9;" xml:space="preserve">
<style type="text/css">
	.st0{fill:#FC501B;}
</style>
<path class="st0" d="M23.1,47.8c0.8-1.4,1.6-2.8,2.4-4.2c4.9-8.5,9.9-17.1,14.9-25.7c0.3-0.5,0.4-1,0.4-1.6c0-4.9,0-9.9,0-14.8
	c0-0.2,0-0.4,0-0.5c0.2-1,1-1.3,1.8-0.7c0.3,0.3,0.7,0.3,1.1,0.3c3.6,0,7.2,0,10.8,0c0.3,0,0.7,0,1,0c0.9,0.2,1.2,0.9,0.8,1.7
	C56.2,2.6,56,2.8,55.9,3c-0.7,1-1.3,1.9-2,2.9c-0.4,0.6-0.4,0.6,0,1.2c0.7,1.1,1.5,2.1,2.2,3.2c0.1,0.2,0.3,0.4,0.3,0.6
	c0.2,0.6-0.1,1.2-0.8,1.4c-0.3,0.1-0.6,0-0.9,0c-3.5,0-7.1,0-10.6,0c-0.2,0-0.5,0-0.7,0c-0.3,0-0.4,0.1-0.4,0.4c0,1.4,0,2.8,0,4.3
	c0,0.5,0.4,0.9,0.6,1.3c3.1,5.4,6.3,10.8,9.4,16.2c5.2,9,10.5,18,15.7,27.1c0.1,0.2,0.3,0.5,0.4,0.7c0.3,0.8-0.1,1.4-0.9,1.5
	c-0.2,0-0.4,0-0.6,0c-21.9,0-43.9,0-65.8,0c-1.6,0-2-0.7-1.2-2.1c4.7-8.1,9.4-16.3,14.1-24.4c0.1-0.2,0.2-0.4,0.4-0.6
	c0.5-0.5,1.1-0.5,1.5,0c0.2,0.2,0.4,0.5,0.5,0.8c1.8,3.1,3.6,6.3,5.4,9.4C22.6,47.3,22.7,47.6,23.1,47.8L23.1,47.8z M50.2,34.1
	c-0.2,0.3-0.4,0.5-0.5,0.7c-1.7,2.3-3.4,4.6-5.1,6.8c-0.1,0.2-0.2,0.3-0.3,0.4c-0.6,0.7-1.3,0.7-1.9,0c-0.1-0.2-0.2-0.3-0.4-0.5
	c-0.7-1.1-1.5-2.2-2.2-3.2c-0.2-0.4-0.4-0.4-0.8-0.1c-0.7,0.6-1.3,1.2-2,1.7c-0.8,0.6-1.3,0.6-1.9-0.2c-0.8-1-1.5-2-2.2-3
	c-0.1-0.2-0.2-0.4-0.5-0.5c-0.2,0.3-0.3,0.5-0.5,0.8c-3.8,6.5-7.5,13-11.3,19.5c-0.1,0.3-0.3,0.5-0.5,0.8c-0.4,0.4-1,0.5-1.4,0.2
	s-0.6-0.8-0.4-1.3c0.1-0.2,0.2-0.5,0.4-0.7c0.9-1.6,1.8-3.1,2.7-4.7c0.1-0.2,0.4-0.4,0.2-0.7c-0.4-0.8-0.9-1.6-1.5-2.5
	c-0.3,0.8-0.6,1.4-0.9,2c-0.4,1-0.8,2-1.3,3c-0.5,0.9-1.5,0.9-2,0c-0.2-0.3-0.3-0.7-0.5-1c-0.4-0.8-0.8-1.6-1.1-2.4
	c-0.1,0-0.2,0-0.2,0.1c-0.3,0.4-0.6,0.8-0.9,1.2c-0.8,1.1-1.6,1-2.3-0.2c-0.2-0.3-0.3-0.7-0.7-1.1C7.8,53.4,5.4,57.4,3,61.6
	c2,0.2,62.3,0.1,63-0.1C60.8,52.4,55.5,43.3,50.2,34.1L50.2,34.1z M43.3,39.6c1.8-2.5,3.6-4.8,5.3-7.2c0.2-0.3,0.2-0.6,0-0.9
	c-2.2-3.7-4.3-7.5-6.5-11.2C42,20.2,42,19.9,41.7,20c-0.2,0.2-0.3,0.4-0.5,0.7c-1.6,2.8-3.2,5.5-4.8,8.3c-0.9,1.5-1.8,3-2.6,4.5
	c-0.2,0.3-0.3,0.5-0.1,0.8c0.8,1.1,1.6,2.2,2.4,3.2c0.3,0,0.4-0.2,0.5-0.3c0.7-0.6,1.4-1.2,2.1-1.8c0.8-0.6,1.3-0.5,1.9,0.3
	c0.2,0.3,0.4,0.7,0.7,1C42,37.6,42.6,38.6,43.3,39.6L43.3,39.6z M53.2,10c-0.6-0.9-1.2-1.8-1.8-2.6c-0.4-0.6-0.4-1.1,0-1.7
	c0.5-0.7,1-1.5,1.5-2.2C53,3.3,53.2,3.1,53,2.8c-3.2,0-6.3,0-9.5,0C43,2.8,43,3.1,43,3.5c0,2,0,3.9,0,5.9c0,0.8,0,0.8,0.9,0.8
	c2.8,0,5.7,0,8.5,0C52.6,10.2,52.9,10.3,53.2,10L53.2,10z M16.9,49.4c0.6-1.4,1.1-2.6,1.6-3.7c0.2-0.4,0.2-0.7-0.1-1.1
	c-0.8-1.4-1.6-2.8-2.5-4.2c0.1-0.2,0-0.4-0.2-0.4c-0.2,0.2-0.3,0.4-0.5,0.7c-1.1,1.8-2.2,3.7-3.2,5.6c-0.5,0.8-0.5,0.9,0.3,1.8
	c0.2,0,0.3-0.2,0.4-0.4c0.3-0.4,0.6-0.8,0.9-1.2c0.7-0.8,1.5-0.7,2,0.2c0.1,0.2,0.2,0.5,0.4,0.7C16.2,47.9,16.5,48.6,16.9,49.4z"/>
</svg>
