<?xml version="1.0" encoding="utf-8"?>
<!-- Generator: Adobe Illustrator 24.3.0, SVG Export Plug-In . SVG Version: 6.00 Build 0)  -->
<svg version="1.1" id="Layer_1" xmlns="http://www.w3.org/2000/svg" xmlns:xlink="http://www.w3.org/1999/xlink" x="0px" y="0px"
	 viewBox="0 0 32 32" style="enable-background:new 0 0 32 32;" xml:space="preserve">
<style type="text/css">
	.st0{fill:#FF6600;}
</style>
<path class="st0" d="M24.1,0c0.7,0.1,1.4,0.1,2.1,0.2c0.7,0.1,1.3,0.4,2,0.7c0.6,0.3,1.2,0.7,1.7,1.3c1,1,1.7,2.3,1.9,3.7
	C31.9,6.6,32,7.3,32,8h0v16.1c0,0.7-0.1,1.4-0.2,2.1c-0.1,0.7-0.3,1.4-0.7,2c-0.3,0.6-0.7,1.2-1.2,1.7c-0.5,0.5-1.1,0.9-1.8,1.2
	c-0.6,0.3-1.3,0.5-1.9,0.7c-0.7,0.1-1.4,0.2-2.1,0.2H7.9c-0.7-0.1-1.4-0.1-2.1-0.2c-0.7-0.1-1.3-0.4-2-0.7c-0.6-0.3-1.2-0.7-1.7-1.2
	c-1-1-1.6-2.3-1.9-3.7C0.1,25.5,0,24.8,0,24.1V7.8c0-0.7,0.1-1.4,0.2-2.1c0.1-0.7,0.3-1.4,0.7-2C1.2,3,1.6,2.5,2.1,2
	c0.1-0.1,0.3-0.2,0.4-0.3C2.9,1.3,3.4,1,3.8,0.8l0.5-0.2c0.5-0.2,1-0.3,1.5-0.4C6.3,0.1,6.8,0,7.3,0H24.1z M18.8,5.9
	c2.3,3.1,3.4,6.8,2.5,10.1c-0.1,0.3-0.2,0.6-0.3,0.9l-0.4-0.2c-4-2.6-7.8-5.5-11.2-8.9c2,2.9,4.3,5.7,6.8,8.3
	c-3.4-2.1-6.6-4.5-9.6-7.1c0.4,0.6,0.8,1.2,1.3,1.8c2.9,3.7,6.2,7.1,9.9,10c-2.8,1.7-6.8,1.8-10.8,0c-1-0.4-1.9-1-2.7-1.6
	c1.8,2.8,4.4,4.9,7.4,6.1c3.9,1.6,7.7,1.4,10.5-0.1l0,0c1.4-0.6,4.1-1.4,5.5,1.3c0.3,0.6,1.1-2.8-1.6-6l0-0.1c0-0.1,0.1-0.3,0.1-0.4
	C27.4,15,24.2,9.1,18.8,5.9z"/>
</svg>
