<?xml version="1.0" encoding="utf-8"?>
<!-- Generator: Adobe Illustrator 24.3.0, SVG Export Plug-In . SVG Version: 6.00 Build 0)  -->
<svg version="1.1" id="Layer_1" xmlns="http://www.w3.org/2000/svg" xmlns:xlink="http://www.w3.org/1999/xlink" x="0px" y="0px"
	 viewBox="0 0 44 44" style="enable-background:new 0 0 44 44;" xml:space="preserve">
<style type="text/css">
	.st0{fill-rule:evenodd;clip-rule:evenodd;fill:#FF6600;}
	.st1{fill:#FF6600;}
</style>
<path class="st0" d="M9.5,42.8h25.1c4.6,0,8.3-3.7,8.3-8.3V9.5c0-4.6-3.7-8.3-8.3-8.3H9.5c-4.6,0-8.3,3.7-8.3,8.3v25.1
	C1.2,39.1,4.9,42.8,9.5,42.8z M9.5,44h25.1c5.2,0,9.5-4.2,9.5-9.5V9.5C44,4.2,39.8,0,34.5,0H9.5C4.2,0,0,4.2,0,9.5v25.1
	C0,39.8,4.2,44,9.5,44z"/>
<path class="st1" d="M8.1,11.1c0,0,8.4,12.5,15.4,16.7C20.9,28.7,15.1,32.1,5,26c2.6,3.5,7.1,10.4,18.3,9.8c3.9-0.2,6.3-1.4,8.5-2.3
	c2.2-0.8,4.3-0.8,6.1,2.4c0.4-2.9,0.5-5.6-2.6-8.7c0,0,3-11.3-9.8-20.3c2.7,5.3,4.2,8.2,3,15.5c-2.9-1.9-13.4-10.3-15.8-13
	c1.7,3,6.6,9.6,8.4,11.3C17.9,18.7,8.1,11.1,8.1,11.1z"/>
</svg>
