<?xml version="1.0" encoding="UTF-8"?>
<svg width="102px" height="49px" viewBox="0 0 102 49" version="1.1" xmlns="http://www.w3.org/2000/svg" xmlns:xlink="http://www.w3.org/1999/xlink">
    <!-- Generator: Sketch 52.6 (67491) - http://www.bohemiancoding.com/sketch -->
    <title>universal_logo</title>
    <desc>Created with Sketch.</desc>
    <g id="Page-1" stroke="none" stroke-width="1" fill="none" fill-rule="evenodd">
        <g id="Group-21" transform="translate(-392.000000, -4.000000)" fill="#FFFFFF">
            <g id="Group-4">
                <g id="Group-14">
                    <g id="Group-10">
                        <g id="universal_logo" transform="translate(392.156988, 4.040000)">
                            <path d="M28.1214938,17.0209838 C31.2432134,7.36051329 38.5888812,0 50.8924152,0 C62.2776055,0 70.7249613,7.54477 73.7547383,17.2046985 C70.541617,8.18858459 61.5431469,1.65614259 50.8924152,1.65614259 C40.3330852,1.65614259 31.4270984,8.09645624 28.1214938,17.0209838" id="Fill-2"></path>
                            <path d="M74.3748653,31.5784918 C71.3450883,41.2389623 62.6224457,48.691062 51.6039439,48.691062 C39.942926,48.691062 32.0466846,41.3310906 28.9249651,31.7627485 C32.2305697,40.6867341 41.1365565,47.0354613 51.6039439,47.0354613 C62.1632739,47.0354613 71.1612032,40.5951477 74.3748653,31.5784918" id="Fill-4"></path>
                            <path d="M57.3676055,16.7457846 C56.9084336,16.9300413 56.3573193,16.7457846 55.8986882,17.1137561 C55.8986882,17.0216277 55.8067457,16.837913 55.6228606,16.9300413 L55.4395164,16.9300413 C55.8986882,16.5615279 55.1642296,16.1940984 55.8986882,16.1940984 C56.4492618,16.1940984 56.9084336,16.5615279 57.3676055,16.7457846" id="Fill-6"></path>
                            <polygon id="Fill-8" points="101.282792 28.3574456 101.282792 25.96536 100.640276 26.5175882 96.3243848 26.5175882 96.3243848 20.168861 96.8754992 19.432918 93.2026652 19.432918 93.7537796 20.168861 93.7537796 27.713089 93.2026652 28.3574456"></polygon>
                            <path d="M90.5616149,28.3574456 L86.2462649,19.432918 L83.2159471,19.432918 L83.5837172,20.168861 L79.543654,28.3574456 L82.8487177,28.3574456 L82.2981442,27.713089 L82.757316,26.7934313 L86.9807235,26.7934313 L87.4398954,27.713089 L86.7973793,28.3574456 L90.5616149,28.3574456 Z M86.3382074,25.1372887 L83.3998321,25.1372887 L84.8687494,22.0092603 L86.3382074,25.1372887 Z" id="Fill-10"></path>
                            <path d="M77.1786542,26.0569465 C77.1786542,24.5850606 75.9850237,23.8485757 74.3322214,23.2968894 C73.322476,22.928918 71.7610754,22.7446613 71.7610754,22.0087183 C71.7610754,21.6407469 72.2202472,21.4570321 72.9552467,21.4570321 C73.8730495,21.4570321 75.4339093,21.8250036 76.7194823,22.3766898 L76.7194823,19.432918 L75.9850237,20.0767326 C75.2505651,19.8008895 73.9649921,19.5250464 73.0466484,19.5250464 C70.0168714,19.5250464 69.0985277,20.8126756 69.0985277,22.0087183 C69.0985277,23.6648609 70.1088139,24.4008039 71.8530179,25.0451604 C73.1385909,25.5052602 74.3322214,25.5052602 74.3322214,26.2412032 C74.3322214,26.8850177 73.5977628,26.9771461 73.2305335,26.9771461 C72.3121898,26.9771461 70.5674449,26.6091746 69.0985277,25.5968466 L69.0985277,28.9091318 L69.8329863,28.1731889 C70.4760432,28.449032 72.036903,28.9091318 73.322476,28.9091318 C75.9850237,28.9091318 77.1786542,27.713089 77.1786542,26.0569465" id="Fill-12"></path>
                            <path d="M66.4121584,28.3574456 L64.0248975,24.8614456 C65.2185279,24.4013458 66.0449291,23.4811462 66.0449291,22.192975 C66.0449291,20.6289608 65.1265854,19.432918 62.5559802,19.432918 L57.0464589,19.432918 L57.5975733,20.168861 L57.5975733,27.713089 L57.0464589,28.3574456 L60.7192928,28.3574456 L60.1687193,27.713089 L60.1687193,25.1372887 L61.2704072,25.1372887 L63.0146112,27.713089 L62.4640377,28.3574456 L66.4121584,28.3574456 Z M63.3823814,22.3772317 C63.3823814,23.0210463 62.7393245,23.4811462 61.9129233,23.4811462 L60.1687193,23.4811462 L60.1687193,21.2733173 L62.1887509,21.2733173 C62.831267,21.2733173 63.3823814,21.6412888 63.3823814,22.3772317 L63.3823814,22.3772317 Z" id="Fill-14"></path>
                            <polygon id="Fill-16" points="53.3498034 28.3574456 53.3498034 25.96536 52.7072873 26.5175882 48.1161097 26.5175882 48.1161097 24.7693173 51.054485 24.7693173 51.6970011 25.3215454 51.6970011 22.4693601 51.054485 23.0210463 48.1161097 23.0210463 48.1161097 21.2733173 52.7072873 21.2733173 53.3498034 21.9171319 53.3498034 19.432918 44.9943901 19.432918 45.5455045 20.168861 45.5455045 27.713089 44.9943901 28.3574456"></polygon>
                            <polygon id="Fill-18" points="43.134422 19.432918 39.9207599 19.432918 40.4718743 20.168861 38.2679576 25.0451604 36.0640409 20.168861 36.7070978 19.432918 32.9423213 19.432918 37.0743271 28.3574456 38.9110145 28.3574456"></polygon>
                            <polygon id="Fill-20" points="30.2793278 28.3574456 29.7282134 27.713089 29.7282134 20.168861 30.2793278 19.432918 26.5145513 19.432918 27.0656657 20.168861 27.0656657 27.713089 26.5145513 28.3574456"></polygon>
                            <polygon id="Fill-22" points="22.7718131 19.432918 19.6500935 19.432918 20.2006671 20.168861 20.2006671 24.5850606 15.6100303 19.432918 12.85554 19.432918 13.4061136 20.168861 13.4061136 27.713089 12.85554 28.3574456 15.9772596 28.3574456 15.4261452 27.713089 15.4261452 23.1131747 20.2006671 28.3574456 22.2206987 28.3574456 22.2206987 20.168861"></polygon>
                            <path d="M10.1001581,19.432918 L6.33592247,19.432918 L6.88649602,20.168861 L6.88649602,25.0451604 C6.88649602,26.1490748 6.1520374,26.6091746 5.05034947,26.6091746 C3.94812071,26.6091746 3.21366209,26.1490748 3.21366209,25.0451604 L3.21366209,20.168861 L3.76477647,19.432918 L0,19.432918 L0.551114383,20.168861 L0.551114383,25.1372887 C0.551114383,27.6215026 1.92808908,28.5411603 5.05034947,28.5411603 C8.08012648,28.5411603 9.45764202,27.6215026 9.45764202,25.1372887 L9.45764202,20.168861 L10.1001581,19.432918 Z" id="Fill-24"></path>
                            <path d="M58.2171595,17.18806 C58.1252169,17.2801883 58.0338152,17.3723167 57.8499302,17.3723167 L57.8499302,17.0038033 C57.9418727,17.0038033 58.0338152,17.0959316 58.2171595,17.18806" id="Fill-26"></path>
                            <path d="M68.1420748,31.4126015 C67.9587306,31.1367584 68.1420748,30.7687869 68.1420748,30.7687869 L54.7368529,30.7687869 L56.2057702,32.0564161 C56.5729995,32.2406728 56.9402288,32.5165159 57.1241139,33.0687441 C57.5832857,34.2647868 56.9402288,33.2524588 56.9402288,35.0928581 C56.9402288,36.7490007 56.481057,36.4726157 56.481057,36.4726157 C56.481057,36.4726157 56.3896553,38.4046014 55.379369,39.6011861 C54.7368529,40.2450007 55.1960248,40.7972288 55.1960248,40.7972288 C55.1960248,40.7972288 55.0121397,40.9809436 54.6449104,42.3612431 C54.5529679,42.8213429 55.1960248,43.5572858 55.6546558,43.3730291 C56.0218851,43.1893144 54.7368529,43.097186 56.2057702,42.4528295 C56.7563437,42.2691147 56.2977127,41.8090149 56.2977127,41.8090149 C56.2977127,41.8090149 57.2155156,41.7168865 57.6746874,40.337129 C58.5930311,40.5208438 58.3177443,39.9691575 60.1538909,39.5090577 C60.7050053,39.4169294 60.796407,39.2326727 60.7050053,38.7731148 C60.6130627,38.3130149 61.3475213,38.8647012 63.1836679,36.9327155 C64.653126,35.4608296 64.1020116,35.0928581 65.1122978,34.54063 C66.2139857,33.9889437 66.3059283,34.6327583 66.6731576,34.1726585 C67.4995587,33.0687441 67.2237311,33.1608724 67.5915013,32.4243875 L67.7748455,32.0564161 C67.7748455,32.0564161 68.3259599,31.5968582 68.1420748,31.4126015" id="Fill-28"></path>
                            <path d="M45.1543586,16.0892544 C44.6032442,15.3533115 44.9704735,14.3409835 45.5215879,13.3291974 C45.9807598,12.6848409 47.0824477,12.3174113 48.0007914,12.6848409 C49.1024793,11.8573115 49.3777661,12.7769692 50.2961098,12.3174113 C51.4897402,11.8573115 50.8472242,13.7892972 52.0408546,14.2493971 C52.5000265,12.9612259 50.9386259,11.9488979 51.9489121,11.3050834 C52.6833707,10.8449835 53.2344851,10.5691404 53.5097719,10.0169122 C53.9689437,9.18884094 54.0608862,8.54502635 54.4281156,8.452898 C55.1625742,8.17705488 54.9786891,7.44111194 54.9786891,7.44111194 C54.9786891,7.44111194 55.8050903,7.71695506 56.4481472,7.07314047 C55.9889753,6.79675541 55.2545167,6.61304064 55.4378609,6.06081247 C55.7136886,5.5085843 57.2745483,6.70462706 57.8251219,5.692841 C56.8153765,5.32486953 55.8050903,4.40466988 55.2545167,4.12882676 C54.7953449,4.58892658 54.6114598,4.40466988 54.0608862,4.03669841 C53.1425426,3.30075547 53.1425426,3.94457006 52.5914282,3.48447024 C52.1322563,4.40466988 52.7753132,4.31254153 52.9586575,4.49679823 C53.5097719,5.14061283 52.4080839,3.94457006 52.5000265,5.60071265 C52.5000265,5.96868412 51.9489121,6.06081247 51.4897402,5.14061283 C51.2144535,4.68105493 49.3777661,4.77264135 49.1024793,4.31254153 C49.3777661,3.85298364 51.5816828,2.01258435 54.9786891,2.47268417 C50.020823,0.448570114 43.3182121,2.56481252 43.3182121,3.30075547 C42.5832126,3.76085529 42.8590402,4.22095511 42.4918109,4.31254153 C41.9406965,4.58892658 41.2981804,6.33665559 41.2981804,6.33665559 C41.2981804,6.33665559 41.6654097,6.52091229 40.563181,7.80908341 C39.6453781,8.82086947 39.3700914,10.3848837 39.3700914,10.3848837 C39.3700914,10.3848837 40.0126074,11.4887981 39.8287224,12.7769692 C39.7367798,13.7892972 39.7367798,13.0533543 40.1959517,13.6971689 C40.3798367,14.1572687 40.6551235,15.6291546 40.8390086,15.0774684 C41.1142954,13.973012 40.2878942,12.9612259 40.3798367,11.8573115 C40.4717793,12.0410263 40.7470661,11.4887981 40.7470661,11.9488979 C40.7470661,13.3291974 42.3998684,15.8134113 42.3998684,15.8134113 C42.3998684,15.8134113 41.7568114,16.4572259 42.3998684,16.4572259 L42.2159833,16.8251974 C42.2159833,16.8251974 42.6751551,16.8251974 43.0423844,17.1010405 C43.3182121,17.3774255 43.5934988,17.6532687 43.8687856,17.6532687 L48.6433075,17.6532687 C48.6433075,17.6532687 49.0105368,16.1813828 49.2863644,15.9971261 C49.5616512,15.7212829 48.73525,15.9971261 48.4599632,15.7212829 C48.1841356,15.4454398 48.0927339,15.9049977 47.9088488,16.1813828 C47.8169063,16.4572259 47.6335621,16.8251974 47.2663328,17.0094541 C46.8991035,17.1010405 46.0727023,17.1931688 45.8888172,17.1931688 C45.7049322,17.1931688 45.1543586,16.0892544 45.1543586,16.0892544" id="Fill-30"></path>
                            <path d="M51.4953793,14.7267548 C51.5873218,14.4509117 52.0459529,14.6346265 52.413723,14.6346265 C52.7809523,14.6346265 52.6890098,15.278983 53.2401242,15.1868547 C53.8826402,15.002598 53.8826402,15.7385409 54.7090414,15.6469545 C55.5354426,15.6469545 54.5251563,16.014926 54.5251563,16.014926 C54.5251563,16.014926 53.9745828,15.7385409 53.699296,15.9227976 C53.5154109,16.014926 53.699296,15.8306693 53.4234684,15.6469545 C52.9642965,15.1868547 53.0562391,15.6469545 52.3217805,15.002598 C51.7706661,14.5424981 51.2200925,15.0947263 51.4953793,14.7267548" id="Fill-32"></path>
                        </g>
                    </g>
                </g>
            </g>
        </g>
    </g>
</svg>