<?xml version="1.0" encoding="UTF-8"?>
<svg width="48px" height="64px" viewBox="0 0 48 64" version="1.1" xmlns="http://www.w3.org/2000/svg" xmlns:xlink="http://www.w3.org/1999/xlink">
    <!-- Generator: Sketch 52.6 (67491) - http://www.bohemiancoding.com/sketch -->
    <title>c4_logo</title>
    <desc>Created with Sketch.</desc>
    <g id="Page-1" stroke="none" stroke-width="1" fill="none" fill-rule="evenodd">
        <g id="Group-21" transform="translate(-143.000000, 1.000000)" fill="#FFFFFF">
            <g id="Group-4">
                <g id="Group-14">
                    <g id="Group-10">
                        <g id="c4_logo" transform="translate(144.057669, 0.008000)">
                            <polygon id="Fill-1" stroke="#FFFFFF" stroke-width="0.799999952" opacity="0.23203125" points="0 34.0887273 0 39.6044237 4.9886686 43.3760191 28.5641068 43.3760191 28.5641068 38.103889 22.1270417 34.0887273"></polygon>
                            <polygon id="Fill-2" stroke="#FFFFFF" stroke-width="0.799999952" opacity="0.23203125" points="21.6488388 24.7338683 21.6488388 16.179808 16.7138314 12.1745455 1.58684214 31.8078831 6.57551074 35.7047149 13.2001625 35.7047149"></polygon>
                            <polygon id="Fill-3" stroke="#FFFFFF" stroke-width="0.799999952" opacity="0.23203125" points="23.5590928 3.24654545 18.2486846 10.2118992 18.2486846 32.1261968 23.2373532 35.9822807 28.4406664 35.9822807 28.4406664 7.25180803"></polygon>
                            <polygon id="Fill-4" stroke="#FFFFFF" stroke-width="0.799999952" opacity="0.23203125" points="26.6352771 0 25.3894743 1.34421935 25.3894743 57.8817765 30.4527228 61.7509826 42.2936483 61.7509826 42.2936483 56.4558312 37.3240794 52.5048991 35.703558 52.5048991 35.703558 17.0261645 35.703558 10.0202931 34.3506601 8.83906521 31.4575052 3.82868846"></polygon>
                            <polygon id="Fill-5" stroke="#FFFFFF" stroke-width="0.799999952" opacity="0.23203125" points="40.8640596 34.0887273 35.7039482 34.0887273 35.7039482 42.0317997 37.4240611 43.4165367 45.7542736 43.4165367 45.7542736 38.0939898"></polygon>
                            <polygon id="Fill-6" stroke="#FFFFFF" stroke-width="0.799999952" opacity="0.23203125" points="18.2486846 43.0167273 18.2486846 57.492121 23.2546339 61.3463632 28.4204298 61.3463632 28.4204298 43.0167273"></polygon>
                            <polygon id="Fill-7" stroke="#FFFFFF" stroke-width="0.799999952" opacity="0.23203125" points="11.107895 51.9447273 11.107895 57.2808568 16.0563177 61.1908108 21.32648 61.1908108 21.32648 55.8958896 16.4587764 51.9447273"></polygon>
                            <path d="M30.1922769,4.71323863 L30.1922769,13.3508666 L34.0958987,8.25807327 L31.1981962,3.24654545 L30.1922769,4.71323863 Z M23.110141,13.9487323 L23.110141,35.7865989 L28.3148185,35.7865989 L28.3148185,7.04921974 L23.110141,13.9487323 Z M30.1922769,16.4474747 L30.1922769,53.9845524 L35.4506155,53.9845524 L35.4506155,9.43953134 L30.1922769,16.4474747 Z M6.20915029,35.7865989 L12.8751848,35.7928146 L21.2988496,24.8353205 L21.2856617,16.2568575 L6.20915029,35.7865989 Z M37.1675452,43.0114037 L45.4829781,43.0114037 L45.4829781,37.6877058 L37.1675452,37.6877058 L37.1675452,43.0114037 Z M4.76052642,43.0114037 L28.3148185,43.0114037 L28.3148185,37.6877058 L4.76052642,37.6877058 L4.76052642,43.0114037 Z M23.110141,61.1824223 L28.3148185,61.1824223 L28.3148185,44.7497494 L23.110141,44.7497494 L23.110141,61.1824223 Z M30.1386157,61.1824223 L42.049801,61.1824223 L42.049801,55.8858895 L30.1386157,55.8858895 L30.1386157,61.1824223 Z M16.0277778,61.1824223 L21.3395502,61.1824223 L21.3395502,55.8858895 L16.0277778,55.8858895 L16.0277778,61.1824223 Z M30.1922769,61.1824223 L42.0500284,61.1824223 L30.1922769,61.1824223 Z" id="Fill-8"></path>
                        </g>
                    </g>
                </g>
            </g>
        </g>
    </g>
</svg>