<?xml version="1.0" encoding="UTF-8"?>
<svg width="62px" height="49px" viewBox="0 0 62 49" version="1.1" xmlns="http://www.w3.org/2000/svg" xmlns:xlink="http://www.w3.org/1999/xlink">
    <!-- Generator: Sketch 52.6 (67491) - http://www.bohemiancoding.com/sketch -->
    <title>Group 19</title>
    <desc>Created with Sketch.</desc>
    <g id="Page-1" stroke="none" stroke-width="1" fill="none" fill-rule="evenodd">
        <g id="Group-21" transform="translate(0.000000, -13.000000)" fill="#FFFFFF">
            <g id="Group-4">
                <g id="Group-14">
                    <g id="Group-10">
                        <g id="Group-19" transform="translate(0.000000, 13.112000)">
                            <g id="Group-22">
                                <path d="M23.0605136,0 C23.3565644,0.0243869164 23.657416,0.0487738328 23.9326632,0.172334209 C24.1374983,0.195095331 24.3439337,0.219482247 24.5503691,0.242243369 C25.0272509,0.414577578 25.5297371,0.487738328 26.0130199,0.642188798 C26.2258564,0.669827303 26.4402932,0.697465808 26.65473,0.728355902 C26.8627656,0.808019829 27.0724016,0.884432167 27.2852381,0.955967122 C27.686907,1.05188899 28.0869756,1.16244301 28.4998464,1.21121685 L28.4854439,1.2827518 C29.0951485,1.38680264 29.6840494,1.58514956 30.276151,1.76398695 C30.8298459,1.90868266 31.3931425,2.03712041 31.9196328,2.26960902 C32.1052646,2.28911855 32.2924967,2.30862808 32.4797288,2.32651182 L32.4717275,2.45657538 C32.5869472,2.46958173 32.818987,2.49722024 32.935807,2.51185239 C33.1326408,2.58989052 33.3342754,2.66305127 33.53591,2.73946361 C33.915175,2.83213389 34.2864387,2.95732006 34.6593026,3.07925464 C35.0865759,3.22232455 35.5122489,3.37514923 35.9491238,3.49058063 C36.2531759,3.59788306 36.5620289,3.69705652 36.8708818,3.79460419 C37.0901194,3.8775197 37.3141578,3.95555784 37.5349957,4.04172494 C37.6902223,4.09700195 37.8454489,4.15227896 38.0006756,4.21080756 C38.2183129,4.29047149 38.4359502,4.37176121 38.6551878,4.44979934 C38.8568224,4.53921804 39.0600572,4.62701093 39.2632921,4.71642963 C39.4361217,4.7814614 39.6073511,4.85137056 39.7785804,4.91802814 C40.0394252,5.04158851 40.3002699,5.16352309 40.5627149,5.28058029 C40.8379621,5.42852759 41.111609,5.57810067 41.3804551,5.73742853 C41.4172614,5.73417694 41.4924743,5.72929955 41.5292806,5.72767376 C41.881341,5.98780087 42.2622063,6.20240573 42.6430716,6.4170106 C42.8351046,6.54707415 43.0271375,6.6787635 43.2175702,6.81207864 C43.9873021,7.28681061 44.61621,7.94363156 45.286725,8.5451755 C45.2819241,8.58419457 45.2723225,8.65898111 45.2675217,8.69637438 L45.3731398,8.62646522 C45.8132152,9.18411271 46.2564913,9.7401344 46.6357563,10.3449299 C46.7365736,10.5383995 46.8373909,10.7334948 46.9366079,10.9302159 L46.995818,10.905829 C47.0550282,11.0927954 47.1190392,11.2781359 47.187851,11.4618507 C47.2854677,11.6748298 47.3814842,11.886183 47.4807012,12.0991621 C47.6807355,12.7868732 47.9479813,13.4583263 48.0359964,14.1736758 C48.0616008,14.1769274 48.1144099,14.1818048 48.1416145,14.1850564 C48.1592175,14.5638665 48.1800211,14.9443024 48.191223,15.3247383 L48.301642,15.3101061 C48.3976584,17.0659641 48.6216968,18.8364542 48.3864565,20.5890606 C48.3576516,20.9516128 48.336848,21.3157907 48.319245,21.6799687 L48.2136269,21.645827 C48.191223,21.9498505 48.1672189,22.2538741 48.1368137,22.5595234 C48.0119923,22.8700502 47.9143756,23.1935833 47.8231599,23.5171164 C47.7399456,23.7398502 47.6647327,23.9658356 47.584719,24.1901953 C47.4743001,24.4129291 47.3558798,24.6324113 47.2294581,24.8470162 L47.2150556,24.9689508 C47.1574458,25.0681242 47.0390254,25.2632196 46.9798153,25.3607672 L46.943009,25.3900315 C46.814987,25.5900043 46.6789637,25.7867254 46.5461409,25.9834465 C46.499733,26.0387235 46.4085173,26.1509033 46.3621094,26.2061803 L46.3109006,26.2029288 C46.2708937,26.2630831 46.19088,26.3817661 46.1492729,26.4402947 C45.9572399,26.6272611 45.7636067,26.8126017 45.5683733,26.9963164 C45.3411343,27.1475153 45.1154956,27.3019658 44.8898569,27.4515389 C44.8098432,27.5051901 44.6498157,27.6141183 44.569802,27.6677695 C44.5297952,27.6710211 44.4481812,27.6758985 44.4081743,27.6791501 C43.04154,28.4400219 41.4172614,28.1961527 39.9306065,28.1099856 C39.3513072,27.9100129 38.7560051,27.7653172 38.1895079,27.5279512 C37.9894736,27.4547905 37.7894393,27.3783781 37.5926056,27.3068432 L37.5878048,27.1491411 C37.5141921,27.1686506 37.3669669,27.2092955 37.2949545,27.2304308 L37.3029559,27.0142002 L37.1541304,27.0255807 C37.1781345,22.9854816 37.1589312,18.9470082 37.1653323,14.9069091 C37.1573309,13.3071274 37.1909367,11.7073457 37.1141235,10.1075639 C37.0885191,10.1091897 37.0341098,10.1091897 37.0069052,10.1091897 C36.9108887,8.78904466 35.6082653,7.72252352 34.3136433,7.98915381 C34.230429,8.04443082 34.0672011,8.15661063 33.9839868,8.21188764 C33.4318921,8.7792899 33.1998523,9.57430337 33.2590625,10.3611879 C33.2478606,22.1156816 33.2574622,33.8701753 33.2542617,45.624669 C33.2638633,46.6342873 33.2206559,47.6471572 33.3102713,48.6518982 C33.2062534,48.6600271 32.9966175,48.6730335 32.8909994,48.6795367 C32.9854156,48.6063759 33.0782315,48.5283378 33.1678468,48.4486739 C32.6781629,48.5657311 32.2252852,48.3316167 31.7756081,48.1755404 C31.3467346,48.0357221 30.9194613,47.886149 30.4841866,47.7707176 C30.2729504,47.6910537 30.0633145,47.6146413 29.8552788,47.5317258 C29.751261,47.521971 29.5448256,47.5008357 29.442408,47.491081 L29.4504094,47.3919075 C29.0663435,47.317121 28.6966801,47.1886832 28.328617,47.063497 C28.0069619,46.9578204 27.6821061,46.8586469 27.3508493,46.7952409 L27.3668521,46.7009449 C27.2628343,46.6911901 27.0531983,46.668429 26.9491805,46.6570484 C26.7459456,46.5676297 26.5427108,46.48634 26.3378756,46.4050503 C26.1730474,46.3627796 26.0114197,46.3172574 25.8497919,46.2701093 C25.6369554,46.2002002 25.4257192,46.1351684 25.2160833,46.0620077 C24.7328004,45.9043056 24.2495175,45.7563583 23.7710355,45.5905273 C23.5325946,45.5206181 23.2989545,45.4474574 23.0653145,45.3726708 C23.068515,30.2479053 23.0797169,15.1231397 23.0605136,0" id="Fill-1"></path>
                                <path d="M20.6994917,27.5364704 C20.8243131,27.5348446 21.0723556,27.531593 21.197177,27.5299672 C21.1875754,29.5134364 21.2163803,31.4985314 21.1779737,33.4820006 C20.8211125,33.5697935 20.4706524,33.6868507 20.1377954,33.8461786 C20.0465797,33.8624365 19.867349,33.8949524 19.7777336,33.9112103 C19.6033037,34.000629 19.4272735,34.0884219 19.2528436,34.1762148 C19.1872324,34.1892212 19.0560098,34.2136081 18.9903986,34.2266145 C18.3150828,34.5046253 17.6125623,34.7062238 16.9452479,35.0037442 C16.8412301,35.0151247 16.6299938,35.0378859 16.525976,35.0492664 L16.525976,35.1484399 C16.2827343,35.2232264 16.0442934,35.3093935 15.8058525,35.3955606 C15.6170201,35.4540892 15.4281878,35.5093663 15.2377551,35.5581401 L15.2633595,35.637804 C15.0761274,35.684952 14.8920958,35.7353517 14.7080643,35.7906287 C14.4568212,35.8784216 14.2071784,35.9629629 13.9527347,36.0377494 L13.9655369,36.1434261 C13.8631194,36.1531808 13.656684,36.1743162 13.5542664,36.1856967 C13.2790192,36.3206377 12.9909698,36.4295659 12.6949191,36.507604 L12.6869177,36.587268 C11.9299879,36.7465958 11.2242669,37.0815095 10.4945417,37.330256 C10.2849058,37.4391842 10.0768701,37.5481125 9.86723417,37.6554149 C9.69600481,37.7757237 9.52797599,37.8976583 9.35674663,38.0179671 C9.27833319,38.2618362 9.20312029,38.5073312 9.14230986,38.7577035 L9.28633456,38.7479487 C9.34074389,38.8064773 9.44956255,38.9251603 9.5023716,38.9836889 L9.48316831,39.0568497 C9.67360097,39.1348878 9.86243335,39.2178033 10.0512657,39.3023446 C10.2929072,39.3673764 10.5393494,39.4128987 10.787392,39.4567951 L10.7441845,39.5494654 C11.9315882,39.6307551 13.1237926,39.6096198 14.3127965,39.5478396 L14.2711894,39.4324082 C14.968909,39.4437888 15.6346232,39.2161775 16.2747329,38.9576762 C16.3643483,38.9397925 16.5419787,38.9023992 16.6315941,38.8845155 C16.823627,38.7950968 17.0172602,38.7073039 17.2108935,38.6227626 C17.4493343,38.5463502 17.6845747,38.4634347 17.9246158,38.3886482 C18.1262504,38.3041069 18.3310855,38.2244429 18.5359207,38.1431532 C18.7551583,38.0683667 18.9743959,37.9919543 19.1952337,37.9204194 C19.5456938,37.78873 19.8945536,37.6521633 20.2338118,37.4912097 C20.310625,37.4895839 20.4642513,37.4863323 20.5410645,37.4847065 L20.5362637,37.3253786 C20.7555013,37.3042433 20.9763391,37.2847338 21.1955767,37.2619726 C21.1987773,39.0097016 21.1859751,40.7590565 21.2051784,42.5067855 C20.7779051,42.5978299 20.3474313,42.6726165 19.9121567,42.708384 L19.9105564,42.80268 C19.3728642,42.810809 18.8367723,42.8482023 18.3006803,42.874215 L18.3518891,42.9896464 C17.7181804,43.0091559 17.0796709,42.9863948 16.4539637,43.095323 C15.3881809,43.1294647 14.3095959,43.1928707 13.2502143,43.0465492 C12.6293078,43.0140333 12.0084013,42.9945238 11.3874949,42.97664 L11.4162998,42.8595828 C10.9442188,42.8351959 10.4737382,42.8091832 10.0016572,42.7929253 C9.94884816,42.5978299 9.82082621,42.3490834 9.70720673,42.644978 C9.57918477,42.6417264 9.32474114,42.636849 9.19831946,42.6352232 L9.12310657,42.5636883 C8.84145827,42.5295466 8.55980997,42.4970307 8.29096387,42.4043604 C8.01571667,42.3539608 7.73726893,42.3214449 7.47482392,42.2238972 C7.27158907,42.1816266 7.06675395,42.1442333 6.86191882,42.1100916 C6.64748205,42.0369309 6.431445,41.9653959 6.22020878,41.8873578 C6.02977613,41.8662225 5.83934347,41.8450871 5.64891082,41.8272034 L5.66331329,41.7312815 C5.1432241,41.6239791 4.64233821,41.4418901 4.14145232,41.2663043 C3.86940567,41.1833888 3.60055957,41.0890927 3.32851292,40.999674 C3.16848548,40.9151327 3.01005831,40.8273398 2.85323142,40.7379211 C2.80842373,40.7362953 2.72200891,40.7330437 2.67880151,40.7314179 C2.59718751,40.6810183 2.43235925,40.5769675 2.34914498,40.5249421 C2.07709833,40.3737432 1.80665195,40.2160411 1.5410064,40.0534617 C1.2721603,39.8242247 1.00971529,39.5868587 0.747270289,39.3494927 C0.577641201,39.1316362 0.408012113,38.912154 0.241583574,38.6926717 C-0.0736704852,37.9675674 -0.0784713085,37.0977674 0.215979184,36.3661599 C0.574440652,35.8995569 0.988911725,35.480102 1.47539515,35.1500657 C1.75064235,34.9728541 2.03069037,34.8053973 2.32034004,34.6558242 L2.31713949,34.5257606 C2.38915184,34.5355154 2.53157626,34.5550249 2.60358861,34.5631539 L2.63079327,34.4314645 C2.97165172,34.2802657 3.30290853,34.1128088 3.63416533,33.9404746 C3.90141116,33.8250432 4.16385616,33.7031086 4.42470089,33.5762967 C4.5991308,33.5047617 4.77356071,33.4348526 4.94799062,33.368195 C5.38326526,33.1682223 5.83454265,33.0023912 6.2938214,32.8707019 L6.28261948,32.7617737 C6.39303842,32.7552705 6.61547656,32.7406383 6.7258955,32.7341352 C6.89552458,32.6430907 7.06835422,32.553672 7.24278413,32.4675049 C7.31159593,32.4496211 7.45242008,32.4154795 7.52283215,32.3975957 C7.68445987,32.3374413 7.84768786,32.2805385 8.01091585,32.2252615 C8.51980311,32.0269146 9.03829202,31.8529546 9.54877956,31.6594851 C9.72000892,31.6025822 9.88963801,31.5440536 10.0592671,31.485525 C10.3217121,31.3863516 10.5841571,31.2871781 10.8386007,31.1684951 C10.9314167,31.1489856 11.1170485,31.1099665 11.2098644,31.0920828 C11.7139508,30.8660974 12.2404411,30.6986405 12.7557295,30.5002936 C13.1862033,30.3523463 13.6182774,30.2011475 14.0343487,30.0109295 C14.1207636,29.9962974 14.2951935,29.9670331 14.3816083,29.9524009 C14.6440533,29.8304663 14.9096988,29.7199123 15.1785449,29.6158615 C15.3689776,29.5622102 15.5610105,29.5118106 15.7546437,29.4630368 L15.7370407,29.3849987 C16.1595132,29.2939542 16.5627823,29.1313747 16.969252,28.9850532 C17.2220954,28.8875056 17.4797396,28.7980869 17.7325829,28.6972876 C18.1166488,28.5623467 18.4991144,28.4225284 18.887981,28.3022196 C19.0864151,28.2225556 19.2864494,28.1477691 19.4864837,28.069731 C19.6977199,27.9965702 19.9105564,27.9217837 20.1217926,27.8453713 C20.3186264,27.7787138 20.5170604,27.7185594 20.7170947,27.6649082 L20.6994917,27.5364704 Z" id="Fill-3"></path>
                                <path d="M45.0424891,30.069636 L45.0152844,29.959082 C45.8506277,29.9915979 46.6875712,29.9363208 47.5229144,29.9834689 C48.2606409,30.1070293 49.0111696,30.0923971 49.7552972,30.1590547 C50.0641502,30.2159575 50.3762037,30.235467 50.6898575,30.2582281 L50.6418493,30.3671564 C51.0915264,30.3834143 51.5412035,30.4045496 51.9908806,30.4403171 C52.5669794,30.6289093 53.1846853,30.638664 53.7559833,30.8532689 C53.9912236,30.8857848 54.2280642,30.9150491 54.4649048,30.9443134 L54.4553032,31.0434868 C55.0121987,31.0857575 55.5306876,31.3133687 56.0699801,31.4434323 L56.0667795,31.5052125 C56.7500967,31.6401534 57.3838054,31.9506801 58.0479193,32.1604076 C58.22715,32.2416973 58.407981,32.3262387 58.5904123,32.4124058 C58.8000482,32.5034502 59.0112844,32.5961205 59.2193201,32.7001714 C59.2705289,32.6936682 59.376147,32.679036 59.4273558,32.6725329 L59.4481594,32.8903893 C59.5057692,32.8855119 59.6241895,32.8741314 59.6833997,32.869254 C60.011456,33.1212521 60.3523144,33.3569923 60.6627676,33.6350032 C60.7091756,33.6398805 60.8035918,33.6496353 60.8499997,33.6545127 L60.8516,33.8463564 L60.9732209,33.8528596 C61.0676371,33.9829232 61.1652538,34.1129867 61.2628705,34.2430503 C61.3300821,34.3178368 61.4629048,34.4690357 61.5301164,34.545448 C61.5317166,34.5860929 61.5333169,34.6690084 61.5333169,34.7112791 C61.6277331,34.8576006 61.7221493,35.0071737 61.8165655,35.1567467 C61.8421699,35.7257748 61.8517715,36.3159382 61.5637221,36.8264376 C61.4821081,36.9532496 61.4020944,37.0816873 61.3220807,37.2101251 C61.277273,37.2621505 61.1876576,37.3662014 61.14285,37.4198526 L61.0980423,37.4231042 C61.0548349,37.4783812 60.9684201,37.5889352 60.9252126,37.6442122 C60.1746839,38.3302975 59.3009341,38.8505517 58.4047804,39.3122773 C57.9727064,39.5220048 57.5406323,39.7268549 57.0893549,39.8878085 C56.9309277,39.9447113 56.7709003,40.0016141 56.6124731,40.0568911 C55.509884,40.4909783 54.3832908,40.8632852 53.2775012,41.2843659 C53.0118557,41.3802878 52.7478104,41.4745839 52.4805646,41.5656284 C52.3189369,41.6290344 52.1589094,41.6973177 51.998882,41.7672269 C51.9076663,41.7916138 51.725235,41.8387618 51.6340194,41.8631487 C51.3795758,41.972077 51.1219316,42.0679988 50.8626871,42.1606691 C50.693058,42.2208235 50.523429,42.2793521 50.3554001,42.3378807 C49.8401118,42.541105 49.3184223,42.7215682 48.8015337,42.9182893 C48.5806958,42.9914501 48.3630585,43.071114 48.1454212,43.1491521 C47.9373855,43.2288161 47.7293498,43.3068542 47.5245147,43.3897697 C47.3580862,43.4450467 47.1932579,43.5003237 47.0284296,43.5588523 C46.7611838,43.6564 46.4971385,43.758825 46.2410946,43.8823854 C46.1514793,43.8970176 45.9738488,43.9279077 45.8858337,43.9441656 C45.6265893,44.0612228 45.3657445,44.170151 45.1016992,44.2742019 C44.9128669,44.3343563 44.7224342,44.3912591 44.5320016,44.4449103 L44.5400029,44.5148195 C43.595841,44.7538112 42.7044882,45.1635114 41.7827301,45.4724124 C41.6099005,45.5325668 41.4402714,45.5959727 41.2722426,45.6626303 C40.8913773,45.7894423 40.5169131,45.9373896 40.1392483,46.0707047 C39.7103747,46.2332842 39.2799009,46.3909862 38.8494271,46.5470625 C38.6845989,46.6055911 38.5213709,46.6641197 38.3565426,46.7193967 C37.9996814,46.851086 37.6428202,46.9811496 37.2891596,47.1177163 C36.5226281,47.3680887 35.7913027,47.745273 34.9927658,47.8818397 C35.0087685,45.9617765 34.9895652,44.0417133 35.0023674,42.1232759 C35.1495927,41.8241297 35.5528618,41.8322587 35.8185074,41.6826856 C36.2025732,41.5623768 36.5770374,41.4176811 36.9579028,41.2843659 C37.2907598,41.1624314 37.6252172,41.0421226 37.9612748,40.9250654 C38.2413228,40.8177629 38.5229711,40.7153379 38.8126208,40.635674 L38.7982183,40.5218683 C39.0078543,40.5039846 39.2190905,40.4893525 39.431927,40.4747203 L39.4303267,40.3674179 C39.8351962,40.2438575 40.2320642,40.0910328 40.6337331,39.9528403 C40.8993786,39.852041 41.1650242,39.7561192 41.4338703,39.6618231 C41.5938977,39.5967913 41.7539252,39.5350111 41.9171532,39.4748567 C42.0819814,39.4179539 42.24841,39.3626769 42.4148385,39.3122773 C42.6708824,39.2066007 42.9285266,39.1074272 43.1909716,39.0147569 C43.875889,38.7790167 44.5576059,38.5302702 45.2361223,38.2717689 C45.4073517,38.2099887 45.5769807,38.1482085 45.7482101,38.0848025 C45.80582,38.0734219 45.9210397,38.0522866 45.9786496,38.0409061 C46.1610809,37.9531132 46.3451125,37.8620687 46.5275437,37.77265 C46.6171591,37.756392 46.7931893,37.7271277 46.8812044,37.7124956 C47.6285325,37.3938399 48.3998648,37.1402159 49.1631957,36.8638309 C49.2880171,36.8264376 49.5360596,36.7516511 49.6592808,36.7142578 L49.6496791,36.6362197 C49.8417121,36.5906974 50.0321447,36.5419236 50.2225774,36.4882724 C50.6210457,36.3289445 51.0227146,36.1777456 51.4355854,36.0623142 L51.4307846,35.9989083 C51.7060318,35.9355023 51.952474,35.7973097 52.1861141,35.6412335 L52.3221374,35.6542398 C52.3669451,35.5908339 52.4581607,35.4607703 52.5029684,35.3957385 C52.5605783,35.3632226 52.6789986,35.2998167 52.7382087,35.2673008 C52.9654477,34.8234589 52.7782156,34.3893718 52.3573434,34.1747669 C52.179713,34.1081093 52.0052831,34.0365744 51.8308532,33.9666652 C51.4979961,33.8154663 51.129933,33.8317243 50.774672,33.8154663 L50.8002764,33.7097897 C49.9793357,33.7179187 49.1375913,33.5878551 48.3358538,33.8122148 C48.0125984,33.8300985 47.689343,33.8463564 47.3692881,33.8707434 C46.9404145,34.0170649 46.4987388,34.1064835 46.0698653,34.2430503 C45.6377912,34.3926234 45.2089176,34.5470738 44.7784438,34.6933953 C44.5656073,34.7763108 44.3559714,34.8608522 44.149536,34.956774 C44.0695223,34.9681546 43.9062943,34.9909157 43.8246803,35.0039221 C43.5590347,35.1258567 43.2901886,35.2364107 43.0149414,35.3323325 C42.5796668,35.494912 42.1427919,35.660743 41.6803126,35.7176458 C41.6787123,35.7550391 41.6755117,35.8330772 41.6723112,35.8704705 C41.4274692,35.9241217 41.1842275,35.9810245 40.9441863,36.0558111 C40.79056,36.1127139 40.6385339,36.1728683 40.4881081,36.2330227 C40.2112606,36.3289445 39.9376137,36.428118 39.6639668,36.5289172 C39.4559311,36.5972006 39.251096,36.6687356 39.0478611,36.7483995 C38.6141868,36.9012242 38.1773119,37.0475457 37.7532391,37.226383 C37.6748257,37.242641 37.5179988,37.2784085 37.4395854,37.2946664 C37.169139,37.4149752 36.8954921,37.527155 36.6170443,37.6263285 C36.4554166,37.6783539 36.2921886,37.7303793 36.1305609,37.7791532 C35.7656983,37.9433584 35.3864333,38.0734219 34.9943661,38.1449569 C34.9959663,36.3029318 35.0071682,34.4592809 34.9911655,32.6172559 C34.9751628,32.3750125 35.0295721,32.1425239 35.1079855,31.9165385 C35.4696476,31.8693904 35.8169071,31.7523332 36.1497642,31.6043859 C36.2601831,31.5832506 36.4842215,31.5426057 36.5946405,31.5214704 C37.1723395,31.2971108 37.775643,31.1475377 38.3805467,31.0190999 C38.6397912,30.9296812 38.9118378,30.8874106 39.1854847,30.8532689 C39.4463295,30.7801082 39.7087745,30.7134506 39.9696192,30.6321609 C40.2704708,30.6061481 40.5745229,30.5817612 40.8785751,30.5606259 L40.8577715,30.4451945 C41.3378538,30.4208076 41.8195364,30.3899175 42.301219,30.3752853 L42.2644127,30.2631055 C43.187771,30.1688094 44.1127297,30.053378 45.0424891,30.069636" id="Fill-5"></path>
                            </g>
                        </g>
                    </g>
                </g>
            </g>
        </g>
    </g>
</svg>