<?xml version="1.0" encoding="UTF-8"?>
<svg width="87px" height="51px" viewBox="0 0 87 51" version="1.1" xmlns="http://www.w3.org/2000/svg" xmlns:xlink="http://www.w3.org/1999/xlink">
    <!-- Generator: Sketch 52.6 (67491) - http://www.bohemiancoding.com/sketch -->
    <title>Ao_com</title>
    <desc>Created with Sketch.</desc>
    <defs>
        <polygon id="path-1" points="-4.06926396e-13 0 86.2037811 0 86.2037811 49.7135252 -4.54747351e-13 49.7135252 -4.54747351e-13 0"></polygon>
    </defs>
    <g id="Page-1" stroke="none" stroke-width="1" fill="none" fill-rule="evenodd">
        <g id="Group-21" transform="translate(-270.000000, -108.000000)">
            <g id="Group-4">
                <g id="Ao_com" transform="translate(270.000000, 107.000000)">
                    <g id="g2993" transform="translate(44.000000, 25.900000) scale(-1, 1) rotate(-180.000000) translate(-44.000000, -25.900000) translate(0.000000, 0.400000)">
                        <g id="g4167" transform="translate(0.003146, 0.003021)">
                            <g id="g4169-Clipped" transform="translate(-0.000000, -0.000000)">
                                <mask id="mask-2" fill="white">
                                    <use xlink:href="#path-1"></use>
                                </mask>
                                <g id="path4173"></g>
                                <g id="g4169" mask="url(#mask-2)">
                                    <g transform="translate(-0.000000, -0.463211)">
                                        <g id="g4175" transform="translate(0.360402, 28.233361)">
                                            <path d="M11.3000077,6.82699863 C8.93602454,6.82699863 7.01959977,8.73481284 7.01959977,11.0840494 C7.01959977,13.4383022 8.93602454,15.3411003 11.3000077,15.3411003 C13.6690385,15.3411003 15.5854633,13.4383022 15.5854633,11.0840494 C15.5854633,8.73481284 13.6690385,6.82699863 11.3000077,6.82699863 M19.1692953,21.5996004 C17.7929692,21.5996004 16.7228672,20.8906492 15.9472116,19.6349363 C14.5742505,21.1230648 12.8546841,21.8303439 10.5327648,21.8303439 C4.7717126,21.8303439 -4.54747351e-13,17.1669838 -4.54747351e-13,10.8967793 C-4.54747351e-13,4.42927244 4.72628374,0 10.2719695,0 C12.5955714,0 14.5742505,0.825994936 15.9472116,2.35258072 C16.6791209,0.867796299 17.6667779,0.198974489 19.1692953,0.198974489 C21.4508335,0.198974489 22.5226181,1.68710302 22.5226181,4.70683349 L22.5226181,17.1285266 C22.5226181,20.1449129 21.4912147,21.5996004 19.1692953,21.5996004" id="path4177" fill="#FFFFFF" fill-rule="nonzero"></path>
                                        </g>
                                        <g id="g4179" transform="translate(26.625374, 28.178697)">
                                            <path d="M11.5035963,6.64474468 C9.13961313,6.64474468 7.22150581,8.54921479 7.22150581,10.9017955 C7.22150581,13.2510321 9.13961313,15.1571743 11.5035963,15.1571743 C13.8709445,15.1571743 15.7890518,13.2510321 15.7890518,10.9017955 C15.7890518,8.54921479 13.8709445,6.64474468 11.5035963,6.64474468 M11.4800406,22.1028888 C4.8154589,22.1028888 -4.54747351e-13,17.477986 -4.54747351e-13,11.0522804 C-4.54747351e-13,4.62490282 4.8154589,0 11.4800406,0 C18.186686,0 22.9129697,4.62490282 22.9129697,11.0522804 C22.9129697,17.477986 18.186686,22.1028888 11.4800406,22.1028888" id="path4181" fill="#FFFFFF" fill-rule="nonzero"></path>
                                        </g>
                                        <g id="g4183" transform="translate(1.725262, 0.379055)">
                                            <path d="M44.4765341,18.9059205 L44.2409771,18.9059205 L44.2409771,19.8656798 L43.8304348,19.2637402 L43.7833234,19.2637402 L43.7648154,19.2838048 L43.3643684,19.8656798 L43.3643684,18.9059205 L43.1304939,18.9059205 L43.1304939,20.302086 L43.350908,20.302086 L43.803514,19.6232319 L44.2594851,20.302086 L44.4765341,20.302086 L44.4765341,18.9059205 Z M42.9437308,20.0746866 L42.5012201,20.0746866 L42.5012201,18.9059205 L42.2639805,18.9059205 L42.2639805,20.0746866 L41.8197872,20.0746866 L41.8197872,20.302086 L42.9437308,20.302086 L42.9437308,20.0746866 Z M44.4496133,21.7935587 L44.2443422,21.7969028 L39.1579927,21.7969028 L38.7558632,21.7935587 C37.9381437,21.7935587 37.2583934,21.1949632 37.1355672,20.4174578 L37.1338847,20.4090975 C36.6358498,17.5950298 35.3200955,15.1237332 33.1815741,12.9985519 C30.3885406,10.2262855 27.0133448,8.84015228 23.0408435,8.84015228 C19.0750725,8.84015228 15.6965116,10.2262855 12.9068432,12.9985519 C10.7565439,15.1371096 9.43574197,17.6234547 8.94443729,20.4559151 C8.80478562,21.2166999 8.13513061,21.7935587 7.32918902,21.7935587 L7.20299775,21.7969028 L1.64048652,21.7969028 L1.64048652,21.7935587 C0.735274473,21.7935587 -4.54747351e-13,21.0628709 -4.54747351e-13,20.1633055 C-4.54747351e-13,20.116488 0.00168255028,20.0696705 0.00673020112,20.0228529 L0.00673020112,20.0161647 C0.622543604,14.9097102 2.81490662,10.4787657 6.59391455,6.72333125 C11.108197,2.23888101 16.5882632,0 23.0408435,0 C29.4951064,0 34.9785378,2.23888101 39.4911376,6.72333125 C43.2718281,10.4804378 45.4692388,14.9147264 46.0833696,20.0228529 C46.0867347,20.0696705 46.0884173,20.116488 46.0884173,20.1633055 C46.0884173,21.0628709 45.3548254,21.7935587 44.4496133,21.7935587 Z" id="path4185" fill="#FFFFFF" fill-rule="nonzero"></path>
                                        </g>
                                        <g id="g4187" transform="translate(47.978283, 28.196691)">
                                            <path d="M2.97979655,0.464831158 C2.70554085,0.153829016 2.24956973,0 1.61356572,0 C1.11048319,0 0.715083869,0.105339435 0.429050322,0.31769036 C0.143016774,0.526697176 -4.54747351e-13,0.909597662 -4.54747351e-13,1.46471976 C-4.54747351e-13,1.92787887 0.148064425,2.29907497 0.449240925,2.58332424 C0.747052325,2.86757351 1.2080711,3.00969815 1.83229726,3.00969815 C2.40436435,3.00969815 2.80649387,2.87927789 3.03700326,2.62345355 C3.2691952,2.3642851 3.38697372,2.01984187 3.38697372,1.58343564 C3.38697372,1.14870146 3.25236969,0.7758333 2.97979655,0.464831158" id="path4189" fill="#FFFFFF"></path>
                                        </g>
                                        <g id="g4191" transform="translate(53.203030, 28.173064)">
                                            <path d="M6.87490045,5.94080973 C6.55689844,6.07122998 6.22711859,6.16653709 5.88724343,6.22673105 C5.54905083,6.28692502 5.22263607,6.31869405 4.90126897,6.31869405 C4.22656631,6.31869405 3.73694417,6.15817682 3.43913277,5.84048646 C3.13963882,5.52446815 2.98989185,4.9710181 2.98989185,4.1767922 C2.98989185,3.35915754 3.12617842,2.79734722 3.39875157,2.49470535 C3.66964216,2.19039143 4.13234349,2.03990652 4.78349045,2.03990652 C5.51371727,2.03990652 6.23889644,2.20543992 6.95566286,2.53483466 C7.16598165,2.46795248 7.32582392,2.32917195 7.43350714,2.11849308 C7.53950781,1.90781421 7.59166687,1.71218383 7.59166687,1.52491373 C7.59166687,0.971463679 7.28039507,0.576858811 6.65616891,0.349459396 C6.03194276,0.113699708 5.18057231,0 4.10542269,0 C2.6971281,0 1.66067713,0.305985978 0.996069766,0.921302044 C0.333144956,1.533274 -4.54747351e-13,2.50139357 -4.54747351e-13,3.82064459 C-4.54747351e-13,4.55969269 0.11777852,5.21513806 0.349970458,5.78196455 C0.582162397,6.35046309 0.916989903,6.82365452 1.35613553,7.206555 C1.79528115,7.58945549 2.31855429,7.88039298 2.92932004,8.07769541 C3.54008579,8.2766699 4.22656631,8.37532112 4.98203138,8.37532112 C5.87210048,8.37532112 6.51988234,8.25660525 6.92537696,8.01750145 C7.32918902,7.78341382 7.53277761,7.47073962 7.53277761,7.08951119 C7.53277761,6.82365452 7.4755709,6.59458305 7.36452258,6.39728061 C7.25010916,6.19663407 7.08690178,6.04614916 6.87490045,5.94080973" id="path4193" fill="#FFFFFF"></path>
                                        </g>
                                        <g id="g4195" transform="translate(61.622033, 28.142632)">
                                            <path d="M5.76778236,5.9307774 C5.58943203,6.30866172 5.20076292,6.49258772 4.60177502,6.49258772 C3.99100927,6.49258772 3.56364149,6.30197351 3.31798915,5.92074507 C3.07065426,5.53951664 2.94951064,4.91918441 2.94951064,4.05807633 C2.94951064,3.62501421 2.97306635,3.26050632 3.01681265,2.97291295 C3.06560661,2.6803034 3.14468647,2.44955988 3.25741734,2.27901032 C3.37183076,2.1067887 3.52326029,1.98640078 3.71507102,1.92119065 C3.90688175,1.85430847 4.15758174,1.82253943 4.46380589,1.82253943 C4.98203138,1.82253943 5.3740656,2.00479338 5.63822599,2.36595715 C5.90575149,2.72879299 6.03699041,3.36250165 6.03699041,4.25705082 C6.03699041,4.99609892 5.94781524,5.55289308 5.76778236,5.9307774 M8.55576818,2.50473768 C8.31179839,1.94292736 7.97528833,1.4780962 7.55128566,1.11191626 C7.12560044,0.7390481 6.62420046,0.463159104 6.04708571,0.279233106 C5.46828841,0.0936350534 4.84069716,0 4.16262939,0 C2.82163682,0 1.7935986,0.304313924 1.07514963,0.912941771 C0.36006576,1.51822551 -4.54747351e-13,2.50808179 -4.54747351e-13,3.88083855 C-4.54747351e-13,4.59480584 0.116095969,5.23520272 0.348287908,5.8020292 C0.580479847,6.36885569 0.905212051,6.84371917 1.32416707,7.22829171 C1.74312209,7.6111922 2.24788718,7.90380174 2.84014487,8.10779239 C3.42903747,8.3134551 4.08523208,8.41545043 4.80031595,8.41545043 C6.15645148,8.41545043 7.18280715,8.10612034 7.88106552,7.48578811 C8.57764133,6.86545588 8.92592924,5.86891138 8.92592924,4.49615462 C8.92592924,3.72868159 8.80310307,3.066548 8.55576818,2.50473768" id="path4197" fill="#FFFFFF" fill-rule="nonzero"></path>
                                        </g>
                                        <g id="g4199" transform="translate(70.370091, 28.360668)">
                                            <path d="M11.7946775,6.10801518 C11.661756,6.31367789 11.3572144,6.41400116 10.8793701,6.41400116 C10.5462252,6.41400116 10.2719695,6.34210282 10.0616507,6.19663407 C9.84796679,6.05116533 9.66961646,5.84717468 9.52323459,5.58299006 L9.52323459,0.219039143 C9.34993191,0.125404089 9.13624802,0.0652101265 8.87545273,0.0384572541 C8.61633999,0.0150484907 8.35386214,7.42541373e-16 8.08970175,7.42541373e-16 C7.58325412,7.42541373e-16 7.21982325,0.0652101265 6.99436152,0.197302434 C6.76721723,0.329394742 6.64102596,0.535057448 6.61410515,0.810946445 C6.5989622,1.11358831 6.59054945,1.44465511 6.5855018,1.80080272 C6.57708905,2.15862239 6.5754065,2.55489931 6.5754065,2.98796144 L6.5754065,5.20677779 C6.5754065,5.40575228 6.5653112,5.57964595 6.54343804,5.73180291 C6.52492999,5.88395988 6.47781858,6.00936396 6.40378637,6.10801518 C6.33311926,6.2066664 6.22207094,6.28190885 6.07737161,6.33374254 C5.92930719,6.38892034 5.72571861,6.41400116 5.45819311,6.41400116 C5.12673071,6.41400116 4.85920521,6.34210282 4.65056898,6.19663407 C4.44529784,6.05116533 4.27199516,5.84717468 4.12393074,5.58299006 L4.12393074,0.219039143 C3.95231061,0.125404089 3.73526162,0.0652101265 3.47614888,0.0384572541 C3.21703614,0.0150484907 2.95455829,0 2.6903979,0 C2.18563281,0 1.8205194,0.0652101265 1.59337512,0.197302434 C1.36791338,0.329394742 1.24172211,0.535057448 1.21648385,0.810946445 C1.19965835,1.11358831 1.1912456,1.44465511 1.18619795,1.80080272 C1.17946775,2.15862239 1.1744201,2.55489931 1.1744201,2.98796144 L1.1744201,4.19852891 C1.1744201,4.60651022 1.17946775,4.9710181 1.18619795,5.29706874 C1.1912456,5.61977526 1.1946107,5.88061577 1.1946107,6.0779182 L1.1946107,6.39560856 L0.18003288,6.43573787 C0.111048319,6.5410773 0.0673020112,6.66313728 0.0403812067,6.80191781 C0.011777852,6.93902628 -4.54747351e-13,7.08115092 -4.54747351e-13,7.22829171 C-4.54747351e-13,7.41054566 0.0302859051,7.574407 0.0874926146,7.71151547 C0.148064425,7.850296 0.255747643,7.9639957 0.408859718,8.04759843 C0.561971794,8.13454527 0.770608029,8.20142745 1.03476842,8.24490087 C1.30229392,8.29339045 1.63880397,8.31512716 2.05271134,8.31512716 C2.44979321,8.31512716 2.83846232,8.29339045 3.21703614,8.24490087 C3.59560995,8.20142745 3.8917388,8.13120116 4.10542269,8.0375661 L3.8850086,6.45580252 C4.11047034,7.12796844 4.46380589,7.60784809 4.95006293,7.90045763 C5.43631996,8.18972307 6.05718101,8.33519181 6.81264609,8.33519181 C7.4923964,8.33519181 8.03586014,8.23319648 8.44640241,8.02920583 C8.86030978,7.82354312 9.16485138,7.48913222 9.36507486,7.02764517 C9.61577485,7.47742784 9.97584061,7.80682258 10.4402245,8.0191735 C10.9046084,8.22985237 11.4497547,8.33519181 12.0739808,8.33519181 C12.9892882,8.33519181 13.6875465,8.14624965 14.1637083,7.77003738 C14.6415525,7.39549717 14.8821572,6.72333125 14.8821572,5.76189989 L14.8821572,4.9894107 C14.8821572,4.66001596 14.8787921,4.30219629 14.8737445,3.91929581 C14.8653317,3.53639532 14.8602841,3.16018305 14.8535539,2.790659 C14.8468237,2.42280701 14.8350458,2.10511665 14.823268,1.84093203 L15.7806391,1.82086738 C15.8327981,1.73057643 15.8731793,1.62022084 15.9001002,1.49314469 C15.9253384,1.36941266 15.9387988,1.25236884 15.9387988,1.14870146 C15.9387988,0.382900486 15.2741914,2.22762412e-15 13.9466593,2.22762412e-15 C13.5091962,2.22762412e-15 13.1575432,0.0200646543 12.8900177,0.0585219084 C12.6241748,0.100323272 12.4222687,0.178909834 12.282617,0.297625706 C12.1429654,0.416341577 12.0554728,0.576858811 12.013409,0.780849463 C11.9730278,0.988184225 11.9545197,1.26072911 11.9545197,1.60350029 C11.9545197,1.76067342 11.9578848,2.01148159 11.9629325,2.35592483 C11.9713452,2.70036806 11.9730278,3.05484362 11.9730278,3.42603972 C11.9730278,3.80894021 11.9763929,4.16341577 11.9848057,4.49281051 C11.9915359,4.82220525 11.9932184,5.06130905 11.9932184,5.20677779 C11.9932184,5.60472677 11.9275989,5.90235247 11.7946775,6.10801518" id="path4201" fill="#FFFFFF"></path>
                                        </g>
                                    </g>
                                </g>
                            </g>
                        </g>
                    </g>
                </g>
            </g>
        </g>
    </g>
</svg>