<?xml version="1.0" encoding="UTF-8"?>
<svg width="200px" height="55px" viewBox="0 0 200 55" version="1.1" xmlns="http://www.w3.org/2000/svg" xmlns:xlink="http://www.w3.org/1999/xlink">
    <!-- Generator: Sketch 64 (93537) - https://sketch.com -->
    <title>Tesco_Logo</title>
    <desc>Created with Sketch.</desc>
    <g id="Page-1" stroke="none" stroke-width="1" fill="none" fill-rule="evenodd">
        <g id="Tesco_Logo" fill="#FFFFFF" fill-rule="nonzero" stroke="#FFFFFF">
            <path d="M15.26631,45.13844 C11.26531,45.13844 8.02531,47.42844 6.46131,49.05144 C6.46131,49.05144 2.65531,52.82344 0.07831,54.12944 C-0.03469,54.19144 -0.03269,54.31644 0.12431,54.31644 L23.41831,54.31644 C28.02331,54.31644 30.18831,52.75644 32.92131,50.30944 C32.92131,50.30944 36.90031,46.61144 39.62931,45.41744 C39.90431,45.31344 39.83931,45.13844 39.62931,45.13844 L15.26631,45.13844 L15.26631,45.13844 Z M55.28431,45.13844 C51.28331,45.13844 48.04631,47.42844 46.47931,49.05144 C46.47931,49.05144 42.67431,52.82344 40.09731,54.12944 C39.98331,54.19144 39.98531,54.31644 40.14331,54.31644 L63.48331,54.31644 C68.08731,54.31644 70.25431,52.75644 72.98631,50.30944 C72.98631,50.30944 76.92131,46.61144 79.64831,45.41744 C79.92331,45.31344 79.90331,45.13844 79.69431,45.13844 L55.28431,45.13844 L55.28431,45.13844 Z M95.34831,45.13844 C91.34831,45.13844 88.10931,47.42844 86.54331,49.05144 C86.54331,49.05144 82.73731,52.82344 80.16031,54.12944 C80.04831,54.19144 80.05131,54.31644 80.20831,54.31644 L103.54831,54.31644 C108.15231,54.31644 110.27131,52.75644 113.00531,50.30944 C113.00531,50.30944 116.98431,46.61144 119.71231,45.41744 C119.98831,45.31344 119.96831,45.13844 119.75931,45.13844 L95.34831,45.13844 L95.34831,45.13844 Z M135.36631,45.13844 C131.36731,45.13844 128.17431,47.42844 126.60731,49.05144 C126.60731,49.05144 122.75531,52.82344 120.17731,54.12944 C120.06531,54.19144 120.06831,54.31644 120.22531,54.31644 L143.56431,54.31644 C148.16931,54.31644 150.33531,52.75644 153.06831,50.30944 C153.06831,50.30944 157.05031,46.61144 159.77731,45.41744 C160.05431,45.31344 159.98531,45.13844 159.77731,45.13844 L135.36631,45.13844 L135.36631,45.13844 Z M175.42931,45.13844 C171.42931,45.13844 168.18831,47.42844 166.62431,49.05144 C166.62431,49.05144 162.81631,52.82344 160.24031,54.12944 C160.12631,54.19144 160.13031,54.31644 160.28631,54.31644 L183.62831,54.31644 C188.23231,54.31644 190.39631,52.75644 193.13231,50.30944 C193.13231,50.30944 197.06831,46.61144 199.79231,45.41744 C200.06731,45.31344 200.05031,45.13844 199.83931,45.13844 L175.42931,45.13844 L175.42931,45.13844 Z" id="path3996" stroke-width="0.0787"></path>
            <path d="M96.79331,0.83544 C88.27831,0.83544 79.97531,3.36344 79.97531,11.82944 C79.97531,26.49044 105.55031,18.74544 105.55031,27.71544 C105.55031,30.63944 101.01531,31.81544 97.35231,31.81544 C90.77231,31.81544 86.23731,30.83644 80.48831,27.38944 L80.48831,34.74944 C84.77431,36.16244 90.60531,36.84644 96.93331,36.84644 C105.76631,36.84644 114.03031,34.56544 114.03031,25.89844 C114.03031,10.59044 88.45431,17.46844 88.45431,9.96644 C88.45431,6.94544 92.55831,5.91344 96.14231,5.91344 C102.17331,5.91344 108.68431,7.67844 112.26131,10.99044 L112.26131,3.16444 C107.63231,1.70344 101.48631,0.83544 96.79331,0.83544 L96.79331,0.83544 Z M141.98131,0.92844 C126.62231,0.92844 116.45231,8.31144 116.45231,19.56244 C116.45231,29.88844 125.78631,36.79944 139.74531,36.79944 C144.26731,36.79944 148.30331,36.20644 153.02131,35.07444 L153.02131,26.36244 C149.68631,29.88644 145.72231,31.30044 141.46831,31.30044 C133.22431,31.30044 127.58531,26.16444 127.58531,18.76844 C127.58531,11.47344 133.43131,6.14344 141.60631,6.14344 C146.06131,6.14344 149.63231,7.76344 152.50731,10.57044 L152.50731,1.85844 C149.51831,1.24244 145.76931,0.92844 141.98131,0.92844 L141.98131,0.92844 Z M177.80431,0.92844 C164.56931,0.92844 155.21031,8.54744 155.21031,19.28244 C155.21031,29.81344 163.61431,36.80044 176.12831,36.80044 C189.42331,36.80044 198.581311,29.37244 198.581311,18.58544 C198.58431,8.00144 190.25631,0.92844 177.80431,0.92844 L177.80431,0.92844 Z M1.38431,1.99944 L1.38431,10.24544 C4.26131,8.01544 10.27831,7.17444 16.85031,7.12444 L16.85031,29.62444 C16.85031,32.89644 16.56131,33.82844 15.17331,35.54144 L28.17131,35.54144 C26.71231,33.82844 26.49331,32.89644 26.49331,29.62444 L26.49331,6.93644 C32.18931,6.98644 38.98931,8.01344 41.86631,10.24644 L41.86631,2.00044 L1.38431,2.00044 L1.38431,1.99944 Z M45.36131,1.99944 C46.72131,3.71144 46.99131,4.68744 46.99131,7.96244 L46.99131,29.62444 C46.99131,32.89644 46.74531,33.87944 45.45431,35.54144 L76.85331,35.54144 L76.85331,27.38944 C72.54531,30.45644 64.34631,30.46744 61.01431,30.41644 L56.44931,30.41644 L56.44931,21.05344 L59.80331,21.05344 C62.07631,21.05344 66.17731,21.32244 68.56131,22.03244 L68.56131,15.04544 C66.21131,15.80044 62.06931,16.02444 59.80331,16.02444 L56.44931,16.02444 L56.44931,7.12844 L61.01431,7.12844 C65.09331,7.12844 72.18731,7.97244 74.85031,10.20344 L74.85031,2.00444 L45.36131,2.00444 L45.36131,1.99944 L45.36131,1.99944 Z M176.92231,6.00644 C183.85431,6.00644 188.42831,11.74144 188.42831,18.81744 C188.42831,25.89344 183.85431,31.62944 176.92231,31.62944 C169.87731,31.62944 165.36631,25.89344 165.36631,18.81744 C165.36731,11.74244 169.87731,6.00644 176.92231,6.00644 Z" id="path4006" stroke-width="0.03"></path>
        </g>
    </g>
</svg>