<?xml version="1.0" encoding="UTF-8"?>
<svg width="69px" height="58px" viewBox="0 0 69 58" version="1.1" xmlns="http://www.w3.org/2000/svg" xmlns:xlink="http://www.w3.org/1999/xlink">
    <!-- Generator: Sketch 52.6 (67491) - http://www.bohemiancoding.com/sketch -->
    <title>Group 2</title>
    <desc>Created with Sketch.</desc>
    <defs>
        <polygon id="path-1" points="0 25 13.8816251 25 13.8816251 43.3489144 0 43.3489144"></polygon>
        <polygon id="path-3" points="0 52.4166816 68.94492 52.4166816 68.94492 -5 0 -5"></polygon>
    </defs>
    <g id="Page-1" stroke="none" stroke-width="1" fill="none" fill-rule="evenodd">
        <g id="Group-21" transform="translate(-127.000000, -101.000000)">
            <g id="Group-4">
                <g id="Group-14">
                    <g id="Group-9" transform="translate(127.000000, 106.000000)">
                        <g id="Group-2">
                            <mask id="mask-2" fill="white">
                                <use xlink:href="#path-1"></use>
                            </mask>
                            <g id="Clip-2"></g>
                            <path d="M9.64225999,39.8886512 C10.0298952,39.8886512 10.1591869,39.757671 10.1591869,39.3644869 L10.1591869,28.9843058 C10.1591869,28.591 10.0298952,28.4601415 9.64225999,28.4601415 L4.23949716,28.4601415 C3.85174193,28.4601415 3.72245017,28.591 3.72245017,28.9843058 L3.72245017,39.3644869 C3.72245017,39.757671 3.85174193,39.8886512 4.23949716,39.8886512 L9.64225999,39.8886512 Z M0,39.6790342 L0,28.6697585 C0,26.1796739 1.16326568,25 3.61908879,25 L10.2626684,25 C12.7184915,25 13.8816371,26.1796739 13.8816371,28.6697585 L13.8816371,39.6790342 C13.8816371,42.1691188 12.7184915,43.3489144 10.2626684,43.3489144 L3.61908879,43.3489144 C1.16326568,43.3489144 0,42.1691188 0,39.6790342 Z" id="Fill-1" fill="#FFFFFF" mask="url(#mask-2)"></path>
                            <mask id="mask-4" fill="white">
                                <use xlink:href="#path-3"></use>
                            </mask>
                            <g id="Clip-9"></g>
                            <path d="M26.9443006,33.754858 C27.3319358,33.754858 27.4612275,33.6238778 27.4612275,33.2308155 L27.4612275,28.9843058 C27.4612275,28.591 27.3319358,28.4601415 26.9443006,28.4601415 L21.7224502,28.4601415 L21.7224502,33.754858 L26.9443006,33.754858 Z M18,25 L27.5647089,25 C30.0205321,25 31.1836777,26.1796739 31.1836777,28.6697585 L31.1836777,33.545241 C31.1836777,36.0354473 30.0205321,37.2151213 27.5647089,37.2151213 L21.7224502,37.2151213 L21.7224502,43.3487927 L18,43.3487927 L18,25 Z" id="Fill-4" fill="#FFFFFF" mask="url(#mask-4)"></path>
                            <polygon id="Fill-6" fill="#FFFFFF" mask="url(#mask-4)" points="36.9115262 28.4075547 32 28.4075547 32 25 45.5457426 25 45.5457426 28.4075547 40.6340964 28.4075547 40.6340964 43.3487927 36.9115262 43.3487927"></polygon>
                            <polygon id="Fill-8" fill="#FFFFFF" mask="url(#mask-4)" points="48 43.3487927 51.7225702 43.3487927 51.7225702 25 48 25"></polygon>
                            <path d="M56,39.6790342 L56,28.6697585 C56,26.1796739 57.1632657,25 59.6190888,25 L65.6164497,25 C68.0722728,25 69.2355385,26.1796739 69.2355385,28.6697585 L69.2355385,31.6579575 L65.5130883,31.6579575 L65.5130883,28.9843058 C65.5130883,28.591 65.3837965,28.4601415 64.9960413,28.4601415 L60.2393771,28.4601415 C59.8517419,28.4601415 59.7225702,28.591 59.7225702,28.9843058 L59.7225702,39.3644869 C59.7225702,39.757671 59.8517419,39.8886512 60.2393771,39.8886512 L64.9960413,39.8886512 C65.3837965,39.8886512 65.5130883,39.757671 65.5130883,39.3644869 L65.5130883,36.6907135 L69.2355385,36.6907135 L69.2355385,39.6790342 C69.2355385,42.1691188 68.0722728,43.3487927 65.6164497,43.3487927 L59.6190888,43.3487927 C57.1632657,43.3487927 56,42.1691188 56,39.6790342" id="Fill-10" fill="#FFFFFF" mask="url(#mask-4)"></path>
                            <path d="M10,51.6515014 L10,48.1629971 C10,47.3738292 10.3686676,47 11.1468191,47 L12.9735904,47 C13.7516219,47 14.1202894,47.3738292 14.1202894,48.1629971 L14.1202894,48.7858834 L13.3338546,48.7858834 L13.3338546,48.1878298 C13.3338546,47.8555101 13.2110454,47.7309815 12.8915976,47.7309815 L11.2286919,47.7309815 C10.909244,47.7309815 10.7863148,47.8555101 10.7863148,48.1878298 L10.7863148,51.626547 C10.7863148,51.9587449 10.909244,52.0833953 11.2286919,52.0833953 L12.8915976,52.0833953 C13.2110454,52.0833953 13.3338546,51.9587449 13.3338546,51.626547 L13.3338546,50.4469948 L11.9740703,50.4469948 L11.9740703,49.7326901 L14.1202894,49.7326901 L14.1202894,51.6515014 C14.1202894,52.4404259 13.7516219,52.8143768 12.9735904,52.8143768 L11.1468191,52.8143768 C10.3686676,52.8143768 10,52.4404259 10,51.6515014" id="Fill-11" fill="#FFFFFF" mask="url(#mask-4)"></path>
                            <path d="M22.374791,50.4969036 L21.4819936,47.7726128 L20.5809129,50.4969036 L22.374791,50.4969036 Z M22.6123661,51.2278852 L20.3433378,51.2278852 L19.8190879,52.8143768 L19,52.8143768 L20.9903968,47 L22.0062435,47 L23.9967603,52.8143768 L23.136616,52.8143768 L22.6123661,51.2278852 Z" id="Fill-12" fill="#FFFFFF" mask="url(#mask-4)"></path>
                            <polygon id="Fill-13" fill="#FFFFFF" mask="url(#mask-4)" points="29 47 29.9256906 47 31.7032422 50.9787063 33.488957 47 34.4145275 47 34.4145275 52.8143768 33.6445393 52.8143768 33.6445393 48.2958032 32.02269 52.0002545 31.375511 52.0002545 29.7536617 48.2958032 29.7536617 52.8143768 29 52.8143768"></polygon>
                            <polygon id="Fill-14" fill="#FFFFFF" mask="url(#mask-4)" points="40 52.8143768 40.7864348 52.8143768 40.7864348 47 40 47"></polygon>
                            <polygon id="Fill-15" fill="#FFFFFF" mask="url(#mask-4)" points="46 47 46.851861 47 49.579593 51.5268511 49.579593 47 50.3332547 47 50.3332547 52.8143768 49.5469399 52.8143768 46.7535417 48.1961073 46.7535417 52.8143768 46 52.8143768"></polygon>
                            <path d="M56,51.6515014 L56,48.1629971 C56,47.3738292 56.3685475,47 57.1468191,47 L58.9735904,47 C59.7517419,47 60.1202894,47.3738292 60.1202894,48.1629971 L60.1202894,48.7858834 L59.3338546,48.7858834 L59.3338546,48.1878298 C59.3338546,47.8555101 59.2110454,47.7309815 58.8915976,47.7309815 L57.2286919,47.7309815 C56.909244,47.7309815 56.7864348,47.8555101 56.7864348,48.1878298 L56.7864348,51.626547 C56.7864348,51.9587449 56.909244,52.0833953 57.2286919,52.0833953 L58.8915976,52.0833953 C59.2110454,52.0833953 59.3338546,51.9587449 59.3338546,51.626547 L59.3338546,50.4469948 L57.9740703,50.4469948 L57.9740703,49.7326901 L60.1202894,49.7326901 L60.1202894,51.6515014 C60.1202894,52.4404259 59.7517419,52.8143768 58.9735904,52.8143768 L57.1468191,52.8143768 C56.3685475,52.8143768 56,52.4404259 56,51.6515014" id="Fill-16" fill="#FFFFFF" mask="url(#mask-4)"></path>
                            <path d="M31.2445421,-5 C24.6994019,-5 18,0.691917593 18,12.5159242 L22.8412981,12.5159242 L23.5733511,12.5159242 C23.8340955,11.1620563 24.197601,9.92358736 24.6507824,8.79954349 L23.890398,8.79954349 L23.6535432,8.79954349 L22.916088,8.79954349 C22.916088,1.99295515 28.3671102,-1.28361932 31.741421,-1.28361932 L42.5516285,-1.28361932 C42.5516285,-0.707963763 42.5127329,-0.159210271 42.4408242,0.364101898 C42.245626,1.78285122 41.8007279,3.01072976 41.1854816,4.05674546 C39.3120116,7.24153641 35.8614703,8.739166 33.0789964,8.79674373 L33.0823578,8.79954349 L32.7338583,8.79954349 L32.1549865,8.79954349 L30.4763545,8.79954349 L29.4537852,8.79954349 C28.8031247,9.85736688 28.3249733,11.0949837 28.1208916,12.5159242 L32.3579878,12.5159242 L33.3266556,12.5159242 C39.6936444,12.5159242 44.1362629,9.96680108 46.1857233,4.05674546 C46.5708375,2.94621349 46.871798,1.71748285 47.0847632,0.364101898 C47.3380646,-1.2455182 47.4677165,-3.03006261 47.4677165,-5 L31.2445421,-5 Z" id="Fill-17" fill="#FFFFFF" mask="url(#mask-4)"></path>
                            <path d="M47.3072033,0 L46.89916,0 C46.6860746,1.35338095 46.3851142,2.58211159 46,3.69264356 L47.3072033,3.69264356 L52.3516227,3.69264356 L52.3516227,0 L47.3072033,0 Z" id="Fill-18" fill="#FFFFFF" mask="url(#mask-4)"></path>
                            <path d="M47.6675949,13.7115336 L27.9091252,13.7115336 C27.9091252,13.1689882 27.9474206,12.6493279 28.0188491,12.1518223 C28.2230509,10.7308818 28.7012023,9.49338671 29.3517427,8.43544159 C29.3547439,8.4308159 29.3572649,8.42582502 29.3602661,8.42107759 C31.323292,5.24152098 34.8463423,3.69276529 37.1702326,3.69276529 L40.6340993,3.69276529 L41.0834392,3.69276529 C41.6986855,2.64674959 42.1435836,1.41874932 42.3387817,0 L40.431098,0 L36.5184917,0 C31.4055249,0 26.8417779,2.75910529 24.5531818,8.42424254 C24.5516211,8.42801614 24.5503006,8.43178973 24.54874,8.43544159 C24.0956786,9.55960719 23.7320531,10.7979544 23.4713087,12.1518223 C23.1650661,13.7428179 23,15.4923044 23,17.4041771 L47.6675949,17.4041771 L52.4256997,17.4041771 L52.4256997,13.7115336 L52.4256997,7.46307183 L47.6675949,7.46307183 L47.6675949,13.7115336 Z" id="Fill-19" fill="#FFFFFF"></path>
                        </g>
                    </g>
                </g>
            </g>
        </g>
    </g>
</svg>