<?xml version="1.0" encoding="UTF-8"?>
<svg width="46px" height="57px" viewBox="0 0 46 57" version="1.1" xmlns="http://www.w3.org/2000/svg" xmlns:xlink="http://www.w3.org/1999/xlink">
    <!-- Generator: Sketch 52.6 (67491) - http://www.bohemiancoding.com/sketch -->
    <title>apple_logo</title>
    <desc>Created with Sketch.</desc>
    <g id="Page-1" stroke="none" stroke-width="1" fill="none" fill-rule="evenodd">
        <g id="Group-21" transform="translate(-269.000000, 0.000000)" fill="#FFFFFF">
            <g id="Group-4">
                <g id="Group-14">
                    <g id="Group-10">
                        <g id="apple_logo" transform="translate(269.107729, 0.008000)">
                            <path d="M25.5249586,4.91633215 C29.1782141,0.023944532 34.2572037,0 34.2572037,0 C34.2572037,0 35.0124985,4.59976316 31.3833569,9.03080089 C27.508144,13.762259 23.1033387,12.9879596 23.1033387,12.9879596 C23.1033387,12.9879596 22.2763416,9.26690512 25.5249586,4.91633215" id="Fill-1"></path>
                            <path d="M23.0529775,16.3820593 C24.9324914,16.3820593 28.4205119,13.7570704 32.9607752,13.7570704 C40.7760528,13.7570704 43.8504835,19.4075159 43.8504835,19.4075159 C43.8504835,19.4075159 37.8372629,22.5312565 37.8372629,30.111093 C37.8372629,38.6617967 45.3280077,41.6085519 45.3280077,41.6085519 C45.3280077,41.6085519 40.0916383,56.5840005 33.0188677,56.5840005 C29.7702508,56.5840005 27.244868,54.359572 23.8219733,54.359572 C20.3339528,54.359572 16.8724211,56.6669711 14.6180457,56.6669711 C8.15944877,56.6669711 0,42.4614598 0,31.0427023 C0,19.8079836 6.90653084,13.9144732 13.384492,13.9144732 C17.5956553,13.9144732 20.8636365,16.3820593 23.0529775,16.3820593" id="Fill-3"></path>
                        </g>
                    </g>
                </g>
            </g>
        </g>
    </g>
</svg>