<svg width="738" height="126" viewBox="0 0 738 126" fill="none" xmlns="http://www.w3.org/2000/svg">
<path d="M19.688 55.44H45.0437V73.2282H19.688V124.518H0V0H52.2029V17.7882H19.688V55.44ZM88.5958 52.4753H115.741V70.2635H88.5958V106.729H122.602V124.518H68.9078V0H122.602V17.7882H88.5958V52.4753ZM183.456 88.3482L196.88 0H224.323V124.518H205.829V35.28L192.107 124.518H173.612L158.995 36.4659V124.518H141.694V0H169.137L183.456 88.3482ZM287.563 88.3482L300.987 0H328.431V124.518H309.936V35.28L296.214 124.518H277.421L262.804 36.4659V124.518H245.503V0H272.947L287.563 88.3482ZM369.597 52.4753H396.742V70.2635H369.597V106.729H403.603V124.518H349.909V0H403.603V17.7882H369.597V52.4753ZM457.596 124.518V0H471.616V111.769H507.412V124.518H457.596ZM538.436 95.1671C538.436 106.433 542.91 113.252 553.053 113.252C563.195 113.252 567.669 106.433 567.669 95.1671V0H580.795V94.5741C580.795 113.548 572.144 126 552.754 126C533.663 126 524.714 113.252 524.714 94.5741V0H538.436V95.1671ZM632.699 70.8565L611.818 124.518H598.693L624.048 60.1835L600.184 0H614.801L634.191 49.8071L653.58 0H666.706L643.14 60.1835L668.197 124.518H653.58L632.699 70.8565ZM731.139 55.1435V67.5953H700.414V111.769H738V124.518H686.394V0H738V12.7482H700.414V55.1435H731.139Z" fill="white"/>
</svg>
