<svg width="331" height="116" viewBox="0 0 331 116" fill="none" xmlns="http://www.w3.org/2000/svg">
<path fill-rule="evenodd" clip-rule="evenodd" d="M4.79202 17.678L0.627014 21.846V68.665V115.484L22.049 115.419C45.372 115.349 44.621 115.383 48.569 114.219C49.108 114.061 49.902 113.832 50.333 113.711C50.765 113.59 51.294 113.408 51.51 113.306C51.725 113.205 52.52 112.893 53.275 112.614C62.021 109.384 69.871 101.487 74.216 91.549C80.376 77.461 75.98 59.166 63.892 48.583C59.259 44.527 52.125 40.892 47.196 40.077C46.765 40.006 46.147 39.869 45.824 39.773C42.083 38.664 31.835 39.204 27.734 40.726L26.804 41.071L26.751 45.624C26.696 50.392 26.769 50.768 27.598 50.005C28.579 49.101 35.031 47.821 38.592 47.822C69.531 47.837 79.592 89.227 52.149 103.592C46.248 106.681 44.552 106.877 24.353 106.801L9.35302 106.745L9.30402 60.127C9.27602 34.488 9.18701 13.51 9.10601 13.51C9.02401 13.51 7.08301 15.386 4.79202 17.678ZM173.527 47.48C173.504 60.125 173.482 78.632 173.478 88.608L173.471 106.745L181.559 106.796L189.647 106.847V103.349C189.647 101.424 189.701 99.795 189.768 99.729C189.834 99.663 190.678 100.395 191.644 101.357C205.35 115.011 230.124 106.819 234.943 87.039C235.742 83.757 235.96 82.521 236.157 80.142C237.407 65.072 229.705 51.875 217.196 47.654C213.708 46.476 212.861 46.353 208.275 46.353C200.881 46.353 196.269 48.123 191.72 52.706C190.757 53.676 189.897 54.425 189.808 54.371C189.72 54.316 189.647 47.57 189.647 39.381V24.49H181.608H173.569L173.527 47.48ZM317.392 31.38C316.529 31.584 315.206 31.883 314.451 32.043C313.696 32.203 312.549 32.457 311.902 32.607C311.255 32.757 310.064 33.033 309.255 33.22C308.446 33.408 307.123 33.705 306.314 33.881L304.843 34.2L304.791 40.718C304.763 44.302 304.719 47.254 304.693 47.276C304.668 47.298 302.397 47.364 299.647 47.423L294.647 47.529V54.294V61.059L299.108 61.112L303.569 61.164L303.594 68.17C303.609 72.024 303.649 79.985 303.684 85.863C303.719 91.74 303.752 98.865 303.756 101.696L303.765 106.843H311.803H319.842L319.891 84.049L319.941 61.255L324.892 61.203L329.843 61.15V54.291V47.431H325.153C322.574 47.431 320.324 47.378 320.153 47.312C319.877 47.206 319.843 46.297 319.843 39.077V30.961L319.402 30.984C319.159 30.997 318.255 31.175 317.392 31.38ZM263.373 46.45C245.012 49.427 234.427 67.262 239.515 86.647C242.084 96.435 250.077 104.375 259.961 106.955C268.284 109.129 281.128 107.885 289.009 104.142L290.431 103.466V95.743C290.431 91.495 290.398 88.02 290.358 88.02C290.318 88.02 289.148 88.582 287.76 89.268C274.398 95.878 260.411 94.478 255.954 86.087C255.244 84.75 254.494 82.58 254.653 82.323C254.725 82.208 262.384 82.137 274.839 82.137H294.91L295.023 81.598C296.07 76.586 295.912 70.344 294.624 65.9C291.513 55.162 283.665 48.263 272.49 46.443C271.29 46.248 264.59 46.253 263.373 46.45ZM271.561 59.958C275.589 61.084 278.262 63.26 279.538 66.451C279.95 67.482 280.386 69.43 280.278 69.755C280.198 69.993 254.353 70.102 254.353 69.864C254.353 66.869 258.415 62.034 262.098 60.645C265.054 59.531 269.007 59.243 271.561 59.958ZM206.118 62.132C214.332 63.232 219.157 68.747 219.157 77.039C219.157 93.612 197.314 98.139 190.831 82.909C186.41 72.523 195.137 60.662 206.118 62.132ZM36.314 66.043C32.164 66.975 29.026 69.89 27.646 74.096C27.259 75.276 27.221 75.888 27.144 82.203L27.06 89.034L34.187 88.952C42.078 88.862 42.127 88.855 44.584 87.414C55.854 80.804 49.036 63.185 36.314 66.043Z" fill="#F9FAFA"/>
<path fill-rule="evenodd" clip-rule="evenodd" d="M18.054 4.44109C15.94 6.57109 14.066 8.53209 13.89 8.79909C13.559 9.29709 13.368 100.299 13.693 101.927L13.818 102.55L28.056 102.48C43.325 102.405 43.134 102.417 46.314 101.363C64.189 95.4391 69.777 73.2401 56.749 59.9071C49.905 52.9031 39.207 50.3991 30.387 53.7351C29.818 53.9511 29.088 54.2241 28.765 54.3441C28.441 54.4631 27.753 54.8101 27.236 55.1141C26.719 55.4181 26.259 55.6671 26.214 55.6671C26.168 55.6671 25.379 56.1521 24.46 56.7451C23.54 57.3381 22.655 57.8241 22.492 57.8241C22.23 57.8241 22.196 54.5891 22.196 29.1961C22.196 13.4511 22.129 0.569092 22.047 0.569092C21.965 0.569092 20.169 2.31109 18.054 4.44109ZM123.482 20.6871C118.161 21.9741 114.941 28.1331 116.902 33.2711C120.715 43.2591 135.333 40.6421 135.333 29.9711C135.333 23.5241 129.77 19.1661 123.482 20.6871ZM158.863 31.4531C156.923 31.8361 155.292 32.1951 150.824 33.2211C150.123 33.3811 148.861 33.6581 148.02 33.8351C145.951 34.2711 146.061 33.8711 146.039 41.0531L146.02 47.1371L141.286 47.1901C137.725 47.2291 136.5 47.3051 136.343 47.4941C136.097 47.7911 135.985 58.4851 136.21 60.2121L136.355 61.3251L140.697 61.2901L145.039 61.2551L145.137 84.0001L145.235 106.745L148.373 106.808C150.098 106.843 153.737 106.811 156.46 106.737L161.41 106.603L161.46 83.9291L161.51 61.2551L166.463 61.2031L171.417 61.1501L171.365 54.2421L171.314 47.3331L166.363 47.2811L161.412 47.2291V39.1931V31.1571L160.775 31.1791C160.424 31.1911 159.564 31.3141 158.863 31.4531ZM107.882 46.3941C104.549 46.9731 101.157 48.9331 98.66 51.7221C97.127 53.4341 97.184 53.4851 97.038 50.2491C96.953 48.3851 96.839 47.5121 96.664 47.4001C96.525 47.3111 92.971 47.2601 88.767 47.2861L81.121 47.3331L80.996 47.9221C80.927 48.2451 80.859 61.5771 80.847 77.5471L80.824 106.585L84.384 106.714C87.802 106.838 96.863 106.896 96.938 106.794C96.958 106.767 97.03 98.5391 97.099 88.5101C97.236 68.5901 97.18 69.5111 98.396 67.1091C100.896 62.1671 106.248 60.8321 114.216 63.1641C114.95 63.3791 115.612 63.4931 115.687 63.4181C115.877 63.2281 115.859 47.8931 115.668 46.9901L115.512 46.2551L111.942 46.2821C109.979 46.2961 108.152 46.3471 107.882 46.3941ZM117.931 47.3641C117.737 47.4431 117.686 53.5601 117.686 77.0241V106.584L125.66 106.72C130.045 106.795 133.707 106.783 133.798 106.692C133.888 106.602 133.94 93.2091 133.912 76.9311L133.863 47.3331L126.02 47.2991C121.706 47.2801 118.066 47.3091 117.931 47.3641ZM42.392 61.1621C42.77 61.2961 43.475 61.5391 43.961 61.7001C47.433 62.8561 53.176 67.5481 53.176 69.2281C53.176 69.3231 53.385 69.7301 53.639 70.1321C54.509 71.5101 55.325 75.0921 55.326 77.5291C55.327 85.7411 49.029 92.8601 41.02 93.7001C38.354 93.9791 22.455 93.9661 22.28 93.6841C21.851 92.9891 22.178 75.3751 22.654 73.5101C24.38 66.7561 29.49 62.1651 36.706 60.8831C37.636 60.7171 41.708 60.9171 42.392 61.1621Z" fill="white"/>
</svg>
