<svg width="388" height="171" viewBox="0 0 388 171" fill="none" xmlns="http://www.w3.org/2000/svg">
<path fill-rule="evenodd" clip-rule="evenodd" d="M367.308 0.960975C367.308 1.06597 367.494 1.15197 367.721 1.15197C368.409 1.15197 368.036 1.28297 366.958 1.42097C366.268 1.50897 365.98 1.48597 366.063 1.35097C366.222 1.09397 365.824 1.09897 364.32 1.37697C363.579 1.51297 363.131 1.68397 363.18 1.81197C363.279 2.07097 363.097 2.09997 360.834 2.17997C359.711 2.21997 359.004 2.32497 358.959 2.45997C358.92 2.57897 358.766 2.67697 358.617 2.67697C358.469 2.67697 358.347 2.77397 358.347 2.89197C358.347 3.04397 357.951 3.06797 356.993 2.97397C356.019 2.87797 355.675 2.89997 355.77 3.05197C355.86 3.19797 355.741 3.22397 355.387 3.13497C355.105 3.06397 354.819 3.08197 354.752 3.17497C354.32 3.76897 353.094 3.99697 352.459 3.59997C352.066 3.35497 351.393 3.51997 351.576 3.81697C351.649 3.93397 351.477 3.96297 351.12 3.89097C350.725 3.81197 350.451 3.87197 350.239 4.08497C349.881 4.44297 349.577 4.48597 349.577 4.17697C349.577 3.92097 347.3 4.12297 347.012 4.40597C346.913 4.50297 346.677 4.58297 346.488 4.58297C346.299 4.58297 346.145 4.65997 346.145 4.75397C346.145 5.03097 345.52 5.18697 345.371 4.94697C345.204 4.67597 343.094 4.89198 343.094 5.17998C343.094 5.28398 343.016 5.31997 342.921 5.26097C342.689 5.11797 342.119 5.34597 342.236 5.53497C342.286 5.61697 342.05 5.72697 341.71 5.77797C341.37 5.82897 341.064 5.79598 341.029 5.70398C340.945 5.48298 340.425 5.48797 340.425 5.70897C340.425 5.80397 340.082 5.83598 339.663 5.77898C339.231 5.72198 338.9 5.75697 338.9 5.85997C338.9 5.96097 338.707 6.03697 338.471 6.02797C338.235 6.01997 338.06 6.11097 338.083 6.23097C338.105 6.35097 337.869 6.48597 337.558 6.53197C337.248 6.57697 336.993 6.54397 336.993 6.45697C336.993 6.36997 336.822 6.29897 336.612 6.29897C336.402 6.29897 336.231 6.39097 336.231 6.50297C336.231 6.61897 336.068 6.65498 335.852 6.58598C335.369 6.43298 333.752 6.66897 333.752 6.89297C333.752 6.98597 333.902 7.07197 334.086 7.08397C334.269 7.09597 334.076 7.17297 333.657 7.25397C333.23 7.33797 332.866 7.32798 332.831 7.23198C332.754 7.02698 332.036 7.00197 332.036 7.20497C332.035 7.28397 331.474 7.35597 330.788 7.36597C330.102 7.37597 329.442 7.48297 329.32 7.60397C329.154 7.77097 329.233 7.82497 329.647 7.82497C330.39 7.82497 330.205 7.93598 329.21 8.08898C328.667 8.17198 328.427 8.14798 328.506 8.01998C328.659 7.77198 328.383 7.77497 326.604 8.03897C325.532 8.19897 325.111 8.34597 324.969 8.61097C324.767 8.98997 323.546 9.13098 323.425 8.78998C323.332 8.52698 321.552 8.94697 320.949 9.37397C320.38 9.77597 319.334 9.85197 319.217 9.49997C319.157 9.31897 318.973 9.31897 318.369 9.49997C317.944 9.62697 317.371 9.73098 317.095 9.73098C316.819 9.73098 316.603 9.79597 316.616 9.87397C316.693 10.365 316.532 10.494 315.842 10.494C315.428 10.494 315.037 10.408 314.972 10.303C314.82 10.056 313.981 10.056 313.828 10.303C313.764 10.408 313.501 10.494 313.245 10.494C312.989 10.494 312.78 10.574 312.78 10.672C312.78 10.983 311.983 11.128 311.809 10.848C311.686 10.65 311.566 10.639 311.305 10.801C311.117 10.918 310.696 10.974 310.369 10.926C310.042 10.878 309.716 10.933 309.645 11.047C309.574 11.162 309.216 11.256 308.849 11.256C308.482 11.256 308.231 11.336 308.291 11.434C308.352 11.532 308.304 11.671 308.186 11.744C308.068 11.817 307.904 11.769 307.823 11.638C307.568 11.226 303.956 11.868 304.009 12.315C304.02 12.415 303.896 12.523 303.734 12.557C303.571 12.591 303.438 12.527 303.438 12.414C303.438 12.302 303.266 12.21 303.056 12.21C302.847 12.21 302.674 12.317 302.672 12.448C302.67 12.623 302.632 12.628 302.529 12.465C302.386 12.241 301.34 12.335 301.34 12.573C301.34 12.644 301.147 12.698 300.911 12.694C300.675 12.69 300.459 12.772 300.431 12.877C300.359 13.145 299.353 13.391 299.275 13.16C299.199 12.937 298.48 12.905 298.48 13.125C298.48 13.209 298.18 13.242 297.813 13.199C297.446 13.156 297.146 13.202 297.146 13.3C297.146 13.398 296.888 13.441 296.574 13.394C296.231 13.344 296.002 13.395 296.002 13.523C296.002 13.639 296.188 13.735 296.415 13.735C297.068 13.735 296.753 13.865 295.743 14.011C295.1 14.105 294.856 14.083 294.944 13.94C295.019 13.819 294.91 13.735 294.679 13.735C294.463 13.735 294.286 13.804 294.286 13.887C294.286 13.971 293.986 14.005 293.619 13.962C293.252 13.919 292.951 13.962 292.951 14.057C292.951 14.152 292.661 14.197 292.307 14.155C291.952 14.114 291.604 14.174 291.533 14.289C291.45 14.423 291.63 14.505 292.035 14.52C292.661 14.541 292.66 14.543 291.903 14.699C291.483 14.786 290.84 14.852 290.473 14.845L289.806 14.834L290.378 14.676C290.772 14.568 290.624 14.552 289.901 14.626C289.324 14.684 288.828 14.796 288.798 14.873C288.768 14.951 288.526 14.973 288.261 14.922C287.916 14.856 287.698 14.945 287.494 15.236C287.274 15.551 287.032 15.635 286.411 15.611C285.702 15.584 285.682 15.572 286.234 15.503C286.577 15.461 286.808 15.346 286.747 15.248C286.609 15.023 285.763 15.014 285.627 15.235C285.57 15.326 285.093 15.458 284.567 15.528C284.04 15.598 283.609 15.738 283.609 15.839C283.609 15.94 283.48 16.023 283.323 16.023C283.166 16.023 283.037 16.109 283.037 16.214C283.037 16.318 282.673 16.394 282.227 16.382C281.476 16.361 281.458 16.349 281.989 16.221C282.458 16.108 282.501 16.057 282.227 15.937C282.043 15.857 281.743 15.855 281.56 15.934C281.376 16.012 281.097 16.103 280.94 16.135C279.994 16.332 279.498 16.475 279.415 16.576C279.009 17.064 278.038 17.308 278.202 16.881C278.278 16.682 278.189 16.595 277.91 16.595C277.679 16.595 277.508 16.717 277.508 16.882C277.508 17.122 277.445 17.131 277.127 16.932C276.823 16.742 276.668 16.742 276.367 16.93C276.158 17.06 275.822 17.167 275.62 17.167C275.418 17.167 275.223 17.246 275.188 17.343C275.091 17.614 274.076 17.82 274.076 17.569C274.076 17.453 273.905 17.357 273.695 17.357C273.485 17.357 273.314 17.445 273.314 17.552C273.314 17.663 273.114 17.696 272.848 17.629C272.592 17.565 272.27 17.583 272.133 17.669C271.958 17.779 272.055 17.868 272.456 17.966C272.824 18.056 272.678 18.073 272.044 18.013C271.503 17.962 271.031 18.002 270.995 18.102C270.897 18.376 269.882 18.585 269.882 18.331C269.882 18.215 269.71 18.12 269.5 18.12C269.291 18.12 269.119 18.189 269.119 18.272C269.119 18.356 268.819 18.39 268.452 18.347C267.663 18.255 267.529 18.628 268.309 18.746C268.809 18.822 268.806 18.827 268.229 18.854C267.897 18.87 267.595 18.79 267.557 18.678C267.516 18.554 267.283 18.524 266.971 18.603C266.686 18.674 266.494 18.8 266.546 18.883C266.597 18.966 266.496 19.088 266.321 19.155C266.147 19.222 265.94 19.173 265.862 19.047C265.689 18.768 262.522 19.177 262.32 19.505C262.241 19.632 262.346 19.666 262.607 19.598C262.833 19.539 263.018 19.558 263.018 19.642C263.018 19.855 261.793 20.015 261.715 19.812C261.631 19.591 261.107 19.602 259.65 19.856C258.557 20.046 257.974 20.408 258.76 20.408C259.326 20.408 258.942 20.546 257.993 20.684C257.35 20.778 257.106 20.756 257.194 20.613C257.264 20.5 257.187 20.408 257.024 20.408C256.86 20.408 256.726 20.472 256.726 20.551C256.726 20.63 256.203 20.709 255.564 20.728C254.319 20.764 253.995 20.894 254.444 21.178C254.771 21.385 254.444 21.421 251.951 21.448C250.565 21.463 250.255 21.526 249.884 21.872C249.498 22.232 249.241 22.276 247.654 22.254C246 22.231 245.836 22.262 245.562 22.653C245.337 22.974 245.094 23.07 244.561 23.047C243.857 23.016 243.857 23.016 244.477 22.939C244.817 22.897 245.096 22.782 245.096 22.684C245.096 22.48 244.083 22.438 243.887 22.634C243.817 22.704 243.566 22.783 243.331 22.808C242.124 22.939 241.302 23.144 241.394 23.294C241.451 23.386 241.348 23.519 241.164 23.59C240.971 23.663 240.797 23.622 240.754 23.493C240.655 23.194 240.006 23.204 239.884 23.506C239.81 23.689 239.784 23.69 239.773 23.511C239.746 23.089 237.947 23.574 237.313 24.173C237.012 24.459 236.517 24.489 236.517 24.221C236.517 24.116 236.345 24.031 236.135 24.031C235.926 24.031 235.754 24.108 235.754 24.203C235.754 24.298 235.411 24.33 234.991 24.273C234.491 24.206 234.229 24.245 234.229 24.387C234.229 24.507 233.928 24.602 233.55 24.602C233.143 24.602 232.919 24.679 232.99 24.794C233.056 24.9 232.959 25.044 232.775 25.115C232.582 25.189 232.409 25.147 232.365 25.018C232.278 24.756 231.56 24.71 231.56 24.966C231.56 25.061 231.216 25.092 230.797 25.036C230.296 24.969 230.034 25.008 230.034 25.149C230.034 25.268 230.313 25.377 230.654 25.391C231.149 25.412 231.182 25.434 230.816 25.503C230.565 25.551 230.176 25.492 229.953 25.373C229.673 25.223 229.4 25.214 229.076 25.343C228.665 25.507 228.654 25.535 228.986 25.556C229.317 25.577 229.305 25.605 228.894 25.769C228.571 25.897 228.399 25.894 228.354 25.757C228.278 25.53 227.366 25.477 227.363 25.699C227.362 25.777 226.792 25.858 226.097 25.878C224.879 25.914 223.867 26.299 224.896 26.335C225.328 26.35 225.321 26.364 224.799 26.52C224.415 26.634 224.192 26.618 224.1 26.47C223.999 26.307 223.538 26.316 222.281 26.504C220.523 26.768 219.76 27.081 220.876 27.081C221.74 27.081 221.559 27.194 220.433 27.357C219.79 27.451 219.546 27.429 219.634 27.286C219.709 27.165 219.601 27.081 219.369 27.081C219.153 27.081 218.975 27.145 218.975 27.224C218.974 27.303 218.452 27.379 217.815 27.394C216.872 27.416 216.605 27.496 216.376 27.823C216.16 28.131 215.908 28.22 215.295 28.202C214.527 28.181 214.518 28.174 215.068 28.022C215.462 27.914 215.314 27.898 214.591 27.972C214.014 28.031 213.519 28.139 213.49 28.213C213.461 28.288 213.182 28.311 212.87 28.265C212.558 28.219 212.303 28.263 212.303 28.363C212.303 28.749 211.288 29.007 210.271 28.88C209.649 28.802 209.253 28.825 209.253 28.939C209.253 29.042 209.036 29.084 208.771 29.033C208.437 28.969 208.181 29.065 207.938 29.346C207.54 29.804 206.689 29.877 205.904 29.519C205.489 29.33 205.359 29.339 205.18 29.567C205.057 29.725 204.736 29.819 204.439 29.785C204.15 29.752 203.914 29.807 203.914 29.908C203.914 30.193 203.293 30.361 203.142 30.117C202.982 29.857 200.673 30.067 200.673 30.341C200.673 30.435 200.501 30.513 200.292 30.513C200.082 30.513 199.91 30.589 199.91 30.683C199.91 30.968 198.914 31.133 198.754 30.874C198.56 30.56 196.088 30.96 195.801 31.352C195.539 31.711 194.572 31.967 194.572 31.677C194.572 31.561 194.443 31.466 194.286 31.466C194.129 31.466 194 31.544 194 31.639C194 31.734 193.657 31.765 193.237 31.709C192.772 31.646 192.475 31.684 192.475 31.805C192.475 31.913 192.31 31.959 192.109 31.907C191.908 31.854 191.586 31.902 191.394 32.014C191.124 32.171 191.11 32.222 191.331 32.236C191.525 32.249 191.495 32.308 191.235 32.419C190.703 32.648 190.141 32.648 190.282 32.419C190.347 32.315 190.266 32.229 190.103 32.229C189.939 32.229 189.806 32.306 189.806 32.401C189.806 32.496 189.462 32.528 189.043 32.472C188.596 32.412 188.28 32.448 188.28 32.559C188.28 32.663 188.066 32.707 187.804 32.657C187.323 32.565 187.122 32.89 187.565 33.041C187.696 33.085 187.525 33.163 187.184 33.214C186.843 33.265 186.564 33.236 186.564 33.149C186.564 33.062 186.35 32.991 186.088 32.991C185.826 32.991 185.611 33.069 185.611 33.164C185.611 33.259 185.268 33.29 184.848 33.234C184.418 33.176 184.086 33.211 184.086 33.315C184.086 33.415 183.839 33.461 183.536 33.417C183.234 33.372 182.929 33.43 182.858 33.545C182.777 33.676 182.929 33.763 183.264 33.779C183.745 33.802 183.732 33.816 183.133 33.924C182.765 33.99 182.437 33.978 182.402 33.899C182.367 33.819 182.126 33.754 181.866 33.754C181.6 33.754 181.445 33.837 181.512 33.945C181.577 34.05 181.491 34.135 181.321 34.135C181.144 34.135 181.068 34.045 181.143 33.924C181.228 33.788 181.148 33.75 180.916 33.818C180.72 33.876 180.151 33.981 179.653 34.051C178.822 34.168 178.531 34.364 178.89 34.565C178.969 34.609 178.929 34.62 178.801 34.589C178.673 34.558 178.518 34.615 178.456 34.716C178.394 34.816 177.984 34.884 177.545 34.867C176.836 34.84 176.816 34.828 177.369 34.76C177.712 34.717 177.942 34.602 177.882 34.504C177.74 34.274 177.119 34.275 176.695 34.506C176.513 34.605 176.057 34.735 175.683 34.795C175.308 34.854 174.828 35.064 174.618 35.26C174.205 35.644 172.464 35.898 172.519 35.565C172.587 35.156 170.39 35.643 170.255 36.066C170.12 36.492 168.868 36.567 168.259 36.187C167.957 35.998 167.803 35.998 167.501 36.187C167.293 36.317 166.986 36.423 166.82 36.423C166.654 36.423 166.389 36.552 166.232 36.709C165.904 37.037 165.592 37.084 165.592 36.805C165.592 36.467 164.963 36.601 164.477 37.043C164.218 37.279 164.067 37.364 164.143 37.232C164.34 36.891 163.711 36.697 163.281 36.965C163.087 37.087 162.664 37.186 162.342 37.186C162.02 37.186 161.806 37.266 161.866 37.363C161.926 37.461 161.879 37.601 161.761 37.674C161.642 37.747 161.48 37.7 161.399 37.57C161.132 37.137 157.71 37.741 157.634 38.235C157.591 38.512 157.012 38.591 157.012 38.319C157.012 38.151 156.701 38.125 155.851 38.221C154.502 38.374 153.703 38.638 153.854 38.881C153.912 38.975 153.726 39.11 153.441 39.182C153.129 39.26 152.896 39.231 152.854 39.107C152.778 38.877 152.056 38.821 152.054 39.045C152.053 39.123 151.483 39.204 150.787 39.225C149.476 39.263 148.538 39.664 149.761 39.664C150.625 39.664 150.444 39.777 149.318 39.941C148.675 40.034 148.431 40.013 148.519 39.87C148.594 39.748 148.485 39.664 148.253 39.664C148.037 39.664 147.861 39.755 147.861 39.866C147.861 39.977 147.769 40.011 147.656 39.942C147.369 39.764 145.382 40.034 145.382 40.25C145.382 40.347 145.575 40.436 145.811 40.448C146.047 40.459 145.854 40.549 145.382 40.647C144.91 40.745 144.134 40.778 143.657 40.72C142.316 40.557 140.964 40.798 140.854 41.219C140.782 41.496 140.595 41.565 139.974 41.541C139.265 41.513 139.249 41.502 139.809 41.433C140.152 41.39 140.383 41.275 140.322 41.177C140.18 40.947 139.337 40.945 139.195 41.175C139.135 41.271 138.53 41.41 137.849 41.483C136.812 41.594 136.612 41.673 136.612 41.975C136.612 42.266 136.469 42.334 135.855 42.334C135.228 42.334 135.12 42.279 135.22 42.016C135.312 41.779 135.275 41.741 135.075 41.864C134.928 41.955 134.639 42.042 134.432 42.057C134.226 42.072 134.029 42.171 133.994 42.277C133.958 42.382 133.716 42.428 133.454 42.378C133.117 42.314 132.865 42.418 132.587 42.739C132.221 43.161 132.18 43.169 131.952 42.858C131.653 42.449 131.19 42.413 131.343 42.81C131.474 43.152 131.211 43.18 130.724 42.876C130.331 42.63 129.658 42.795 129.841 43.092C129.914 43.21 129.742 43.238 129.385 43.167C128.99 43.088 128.716 43.148 128.504 43.36C128.161 43.703 127.651 43.773 127.651 43.478C127.651 43.373 127.522 43.287 127.365 43.287C127.208 43.287 127.079 43.38 127.079 43.493C127.079 43.622 126.868 43.652 126.512 43.574C125.839 43.426 125.376 43.624 125.772 43.89C125.937 44.001 125.773 44.019 125.322 43.941C124.786 43.849 124.533 43.899 124.282 44.15C124.069 44.364 123.925 44.405 123.878 44.266C123.792 44.007 122.694 43.972 122.694 44.228C122.694 44.327 122.394 44.358 122.027 44.299C121.614 44.232 121.359 44.268 121.359 44.393C121.359 44.505 121.595 44.632 121.884 44.676C122.384 44.751 122.381 44.756 121.804 44.784C121.472 44.799 121.167 44.713 121.127 44.591C121.08 44.451 120.863 44.418 120.531 44.502C120.244 44.574 120.055 44.707 120.111 44.798C120.167 44.889 120.085 45.012 119.928 45.072C119.772 45.132 119.643 45.098 119.643 44.997C119.643 44.895 119.429 44.812 119.167 44.812C118.905 44.812 118.689 44.919 118.687 45.051C118.685 45.223 118.646 45.229 118.544 45.071C118.328 44.733 116.153 45.148 116.289 45.501C116.35 45.661 116.261 45.771 116.063 45.78C115.882 45.787 115.537 45.831 115.294 45.876C115.031 45.924 114.901 45.88 114.972 45.766C115.037 45.661 114.956 45.575 114.793 45.575C114.629 45.575 114.494 45.682 114.493 45.813C114.491 45.986 114.451 45.991 114.35 45.833C114.184 45.575 112.017 45.884 112.017 46.166C112.017 46.26 112.16 46.337 112.335 46.337C112.901 46.337 112.517 46.476 111.568 46.614C110.925 46.707 110.681 46.686 110.769 46.543C110.839 46.43 110.762 46.337 110.598 46.337C110.435 46.337 110.301 46.432 110.301 46.549C110.301 46.669 110.162 46.706 109.977 46.635C109.55 46.471 107.632 46.714 107.632 46.931C107.632 47.024 107.825 47.109 108.061 47.121C108.297 47.132 108.104 47.222 107.632 47.32C107.16 47.418 106.373 47.449 105.883 47.39C104.301 47.198 104.457 47.7 106.264 48.617C109.626 50.322 113.066 53.463 115.165 56.744C117.237 59.983 118.404 63.655 118.616 67.596C119.235 79.135 112.142 88.623 100.768 91.468C98.228 92.103 93.73 92.188 91.521 91.643C90.787 91.462 89.972 91.27 89.71 91.217C84.633 90.186 78.262 85.064 75.506 79.798C70.919 71.03 72.493 59.86 79.263 53.145C80.381 52.036 80.376 51.609 79.249 51.789C78.521 51.906 78.15 52.226 78.7 52.264C78.831 52.273 78.681 52.358 78.366 52.452C78.005 52.559 77.771 52.553 77.731 52.435C77.591 52.023 74.269 52.517 73.716 53.032C73.301 53.419 73.026 53.512 73.218 53.201C73.283 53.096 73.159 53.01 72.944 53.01C72.728 53.01 72.551 53.096 72.551 53.201C72.551 53.306 72.46 53.392 72.349 53.392C72.238 53.392 72.206 53.297 72.278 53.181C72.362 53.044 72.281 53.006 72.051 53.071C71.854 53.127 71.328 53.23 70.883 53.299C70.408 53.373 70.072 53.528 70.072 53.674C70.072 53.932 69.668 54.154 69.199 54.154C69.05 54.154 68.95 54.09 68.976 54.011C69.002 53.933 68.938 53.868 68.833 53.868C68.728 53.868 68.664 53.933 68.69 54.011C68.716 54.09 68.652 54.154 68.548 54.154C68.424 54.154 68.342 60.683 68.31 73.077L68.261 92H45.382H22.503L22.454 77.361C22.412 64.581 22.369 62.707 22.121 62.612C21.964 62.552 21.836 62.373 21.836 62.215C21.836 61.996 21.71 61.958 21.312 62.058C21.023 62.13 20.509 62.235 20.169 62.292C19.829 62.348 19.593 62.462 19.644 62.544C19.695 62.627 19.608 62.743 19.452 62.803C19.295 62.864 19.166 62.808 19.164 62.68C19.162 62.533 19.093 62.553 18.976 62.734C18.853 62.925 18.79 62.941 18.788 62.782C18.784 62.411 18.332 62.501 18.067 62.925C17.936 63.134 17.722 63.305 17.592 63.303C17.434 63.301 17.449 63.241 17.636 63.123C17.874 62.972 17.863 62.924 17.563 62.81C17.369 62.735 17.051 62.773 16.856 62.895C16.662 63.016 16.33 63.115 16.119 63.115C15.908 63.115 15.735 63.2 15.735 63.302C15.735 63.624 14.76 63.769 14.571 63.475C14.427 63.252 14.37 63.256 14.21 63.497C14.071 63.705 13.98 63.722 13.875 63.56C13.68 63.261 11.903 63.587 11.615 63.974C11.357 64.322 10.075 64.625 10.283 64.289C10.364 64.158 10.298 64.069 10.122 64.069C9.95799 64.069 9.82299 64.176 9.82199 64.307C9.81999 64.479 9.77999 64.485 9.67899 64.327C9.48299 64.022 7.34599 64.396 7.34599 64.734C7.34599 64.87 7.20999 65.033 7.04399 65.097C6.56899 65.279 5.97699 65.232 6.10699 65.022C6.17199 64.917 6.13399 64.831 6.02299 64.831C5.91199 64.831 5.82099 64.896 5.82099 64.974C5.82099 65.053 5.21399 65.128 4.47299 65.14C3.06399 65.164 2.09799 65.574 3.35199 65.616L4.00999 65.638L3.24699 65.795C2.19599 66.013 1.77299 66.01 1.91199 65.785C1.97699 65.68 1.90199 65.594 1.74599 65.594C1.42999 65.594 1.14399 66.259 1.22399 66.806C1.25899 67.045 1.19999 67.114 1.04099 67.016C0.770988 66.849 0.916988 68.4 1.29199 69.668C1.46899 70.27 1.53599 70.34 1.64999 70.05C1.76499 69.756 1.79299 69.783 1.80399 70.202C1.81099 70.482 1.87399 70.86 1.94499 71.043C2.03799 71.288 2.00499 71.335 1.82099 71.221C1.61899 71.096 1.59599 71.267 1.70499 72.095C1.77899 72.661 1.91599 73.152 2.00899 73.185C2.10099 73.218 2.12999 73.368 2.07199 73.519C2.01399 73.669 2.02799 73.942 2.10299 74.126C2.22799 74.432 2.25099 74.428 2.38299 74.078C2.49399 73.784 2.54399 73.877 2.60399 74.491C2.64699 74.928 2.61599 75.245 2.53499 75.195C2.45499 75.145 2.38899 75.372 2.38899 75.699C2.38899 76.026 2.46999 76.243 2.56799 76.182C2.67499 76.117 2.70299 76.345 2.63899 76.743C2.56899 77.17 2.60599 77.415 2.73899 77.415C2.85499 77.415 2.89999 77.543 2.83899 77.701C2.77899 77.858 2.79299 78.137 2.87099 78.32C2.99299 78.607 3.03199 78.587 3.14699 78.177C3.25699 77.784 3.29399 77.855 3.35899 78.588C3.40199 79.076 3.38099 79.44 3.31099 79.397C3.24099 79.354 3.14799 79.427 3.10399 79.558C2.98799 79.902 3.16599 80.479 3.35299 80.363C3.43899 80.31 3.46099 80.568 3.40099 80.938C3.33499 81.344 3.36999 81.609 3.48999 81.609C3.59899 81.609 3.64199 81.784 3.58599 81.997C3.53099 82.21 3.61399 82.532 3.77199 82.712C3.92999 82.892 4.11799 83.254 4.18999 83.516C4.28699 83.868 4.26999 83.919 4.12799 83.712C3.87099 83.339 3.61599 83.925 3.81899 84.421C3.94799 84.737 3.96199 84.736 4.08299 84.413C4.15299 84.225 4.21099 84.7 4.21099 85.467C4.21099 86.655 4.27399 86.926 4.63399 87.287C4.93499 87.587 5.05099 87.917 5.03299 88.425L5.00799 89.14L4.87499 88.473C4.76399 87.916 4.71599 87.865 4.58499 88.163C4.49399 88.369 4.51599 88.774 4.63599 89.116C4.75099 89.444 4.90499 90.051 4.97999 90.466C5.05399 90.88 5.27399 91.389 5.46799 91.598C5.68999 91.836 5.81099 92.228 5.79399 92.656L5.76699 93.335L5.63799 92.572C5.53499 91.962 5.47699 91.88 5.35099 92.162C5.25999 92.367 5.28999 92.888 5.42399 93.401C5.55099 93.889 5.70199 94.523 5.75899 94.81C5.81699 95.098 5.92999 95.292 6.01099 95.241C6.09199 95.191 6.19999 95.366 6.24999 95.629C6.29999 95.893 6.26699 96.154 6.17699 96.21C5.82699 96.426 5.99799 97.243 6.39299 97.243C6.60199 97.243 6.77399 97.326 6.77399 97.428C6.77399 97.529 6.64499 97.563 6.48799 97.503C6.15699 97.376 6.06899 98.282 6.39299 98.482C6.49799 98.547 6.58299 98.815 6.58299 99.077C6.58299 99.339 6.65899 99.507 6.75199 99.449C6.84499 99.392 6.96699 99.58 7.02299 99.867C7.07799 100.154 7.04499 100.418 6.94899 100.452C6.58199 100.586 6.75999 101.438 7.15499 101.438C7.46399 101.438 7.53099 101.555 7.50799 102.057C7.48199 102.634 7.47399 102.641 7.39999 102.153C7.35599 101.864 7.24099 101.628 7.14299 101.628C6.93099 101.628 6.90299 102.456 7.10799 102.661C7.25099 102.805 7.27799 102.904 7.32199 103.451C7.33499 103.614 7.43199 103.695 7.53699 103.63C7.64199 103.565 7.72699 103.639 7.72699 103.794C7.72699 103.949 7.78499 104.225 7.85499 104.408C7.94799 104.651 7.91499 104.7 7.73499 104.588C7.53499 104.465 7.51399 104.691 7.62599 105.739C7.80199 107.381 8.05599 108.12 8.30699 107.723C8.44799 107.501 8.48499 107.528 8.48699 107.857C8.48899 108.084 8.54699 108.42 8.61799 108.603C8.70499 108.83 8.67399 108.892 8.52199 108.798C8.23699 108.622 8.23899 108.962 8.53199 110.826C8.76799 112.323 9.06199 112.809 9.06199 111.701C9.06199 110.853 9.18399 111.089 9.29899 112.159C9.35199 112.655 9.32099 113.014 9.22899 112.958C9.00299 112.818 9.01899 113.527 9.27099 114.892C9.53299 116.31 9.68699 116.562 9.84599 115.832C9.96799 115.269 9.96999 115.271 9.99299 115.96C10.005 116.344 10.073 116.809 10.143 116.992C10.224 117.204 10.197 117.279 10.068 117.199C9.95599 117.13 9.82499 117.18 9.77699 117.311C9.66899 117.607 9.81299 118.054 9.98399 117.949C10.054 117.907 10.118 118.407 10.127 119.061C10.141 120.012 10.227 120.334 10.556 120.663C10.83 120.936 10.958 121.284 10.938 121.695L10.908 122.315L10.83 121.691C10.788 121.349 10.673 121.118 10.575 121.178C10.351 121.317 10.34 122.162 10.56 122.298C10.65 122.354 10.78 122.879 10.849 123.464C10.927 124.125 11.118 124.684 11.353 124.936C11.806 125.422 11.877 126.604 11.454 126.604C11.211 126.604 11.211 126.702 11.454 127.391C11.606 127.824 11.731 128.299 11.731 128.448C11.731 128.596 11.903 128.902 12.112 129.127C12.575 129.623 12.597 129.846 12.183 129.846C11.84 129.846 11.95 131.659 12.315 132.029C12.413 132.128 12.494 132.441 12.494 132.723C12.494 133.006 12.622 133.286 12.78 133.346C13.112 133.474 13.169 134.04 12.849 134.04C12.702 134.04 12.671 134.318 12.752 134.914C12.913 136.087 13.12 136.375 13.287 135.661C13.361 135.346 13.373 135.594 13.314 136.212C13.243 136.952 13.272 137.294 13.4 137.215C13.507 137.149 13.639 137.265 13.694 137.474C13.748 137.683 13.715 137.853 13.62 137.853C13.525 137.853 13.447 138.111 13.447 138.425C13.447 138.74 13.518 138.997 13.605 138.997C13.691 138.997 13.726 139.244 13.682 139.547C13.637 139.849 13.695 140.154 13.81 140.225C13.941 140.306 14.029 140.154 14.045 139.819C14.068 139.353 14.082 139.341 14.155 139.723C14.201 139.964 14.154 140.265 14.051 140.39C13.838 140.647 13.982 141.712 14.21 141.571C14.291 141.521 14.402 141.651 14.456 141.859C14.511 142.068 14.478 142.191 14.383 142.132C14.288 142.073 14.21 142.288 14.21 142.608C14.21 142.929 14.287 143.192 14.383 143.192C14.478 143.192 14.511 143.362 14.456 143.57C14.402 143.778 14.424 144.1 14.504 144.285C14.585 144.47 14.634 144.699 14.612 144.793C14.524 145.174 14.794 145.577 14.959 145.31C15.065 145.139 15.142 145.278 15.195 145.731C15.239 146.102 15.206 146.364 15.123 146.313C15.04 146.262 14.972 146.482 14.972 146.803C14.972 147.124 15.037 147.387 15.115 147.387C15.194 147.388 15.265 147.862 15.274 148.442C15.291 149.583 15.714 150.398 15.76 149.378C15.777 149.022 15.835 149.165 15.921 149.769C15.995 150.294 15.979 150.774 15.884 150.836C15.673 150.976 16.106 154.25 16.336 154.25C16.425 154.25 16.498 153.978 16.498 153.646C16.498 152.777 16.617 153.041 16.748 154.199C16.829 154.922 16.797 155.185 16.631 155.152C16.5 155.127 16.428 155.271 16.462 155.489C16.684 156.922 16.917 157.971 17.031 158.057C17.495 158.407 17.666 159.129 17.541 160.208C17.457 160.932 17.476 161.311 17.592 161.239C17.701 161.172 17.739 161.326 17.683 161.616C17.632 161.886 17.665 162.163 17.758 162.23C18.328 162.644 18.642 164.243 18.183 164.396C18.043 164.443 18.01 164.66 18.094 164.992C18.166 165.279 18.292 165.472 18.375 165.421C18.458 165.37 18.487 165.593 18.439 165.917C18.38 166.324 18.42 166.465 18.569 166.372C18.701 166.291 18.786 166.377 18.786 166.593C18.786 166.788 18.893 167.057 19.024 167.19C19.215 167.384 19.205 167.42 18.976 167.371C18.639 167.299 18.636 169.239 18.973 169.576C19.104 169.707 19.167 169.693 19.167 169.533C19.167 169.35 19.226 169.352 19.433 169.543C19.579 169.678 19.66 169.853 19.612 169.931C19.565 170.01 19.607 170.074 19.707 170.074C19.807 170.074 19.938 169.946 19.998 169.788C20.12 169.471 20.692 169.392 20.692 169.693C20.692 169.798 20.864 169.884 21.073 169.884C21.283 169.884 21.455 169.806 21.455 169.711C21.455 169.616 21.625 169.583 21.833 169.637C22.041 169.691 22.363 169.67 22.548 169.589C22.828 169.467 22.788 169.417 22.313 169.29C21.782 169.149 21.789 169.145 22.408 169.231C23.506 169.384 24.006 169.325 24.174 169.024C24.262 168.868 24.506 168.74 24.717 168.74C24.927 168.74 25.047 168.826 24.982 168.93C24.917 169.035 25.041 169.121 25.257 169.121C25.473 169.121 25.649 169.043 25.649 168.948C25.649 168.853 25.819 168.82 26.028 168.874C26.236 168.929 26.558 168.909 26.743 168.831C26.928 168.752 27.294 168.678 27.556 168.666C27.818 168.654 28.014 168.546 27.991 168.425C27.937 168.139 28.953 167.878 29.044 168.153C29.123 168.389 29.844 168.436 29.844 168.206C29.844 168.122 30.144 168.089 30.511 168.132C30.878 168.174 31.178 168.132 31.178 168.036C31.178 167.941 31.479 167.898 31.846 167.941C32.254 167.989 32.513 167.937 32.513 167.807C32.513 167.691 32.241 167.596 31.909 167.596C31.103 167.596 31.276 167.482 32.275 167.354C32.815 167.285 33.044 167.317 32.961 167.451C32.842 167.643 34.444 167.542 35.802 167.271C36.436 167.145 36.485 166.89 35.897 166.777C35.608 166.721 35.686 166.685 36.135 166.666C36.502 166.65 37.009 166.582 37.261 166.515C37.583 166.428 37.679 166.458 37.584 166.612C37.299 167.073 39.994 166.581 40.765 166.032C41.232 165.699 41.475 165.665 42.556 165.781C43.33 165.864 43.763 165.846 43.694 165.734C43.631 165.632 43.78 165.591 44.04 165.641C44.334 165.697 44.652 165.585 44.928 165.328C45.392 164.896 46.398 164.793 47.002 165.117C47.374 165.316 48.018 165.18 47.865 164.934C47.817 164.855 47.983 164.83 48.235 164.879C48.529 164.935 48.846 164.823 49.123 164.565C49.572 164.147 51.007 163.987 51.007 164.355C51.007 164.459 51.216 164.545 51.472 164.545C51.728 164.545 51.99 164.459 52.055 164.355C52.12 164.25 52.425 164.164 52.734 164.164C53.042 164.164 53.295 164.087 53.295 163.994C53.295 163.721 53.918 163.558 54.064 163.793C54.216 164.04 56.283 163.846 56.454 163.57C56.511 163.477 56.731 163.401 56.942 163.401C57.153 163.401 57.454 163.273 57.612 163.115C57.95 162.777 58.252 162.743 58.252 163.045C58.252 163.268 60.025 163.127 60.433 162.871C60.544 162.801 60.721 162.733 60.826 162.72C60.93 162.707 61.129 162.684 61.266 162.668C61.403 162.652 61.469 162.563 61.412 162.471C61.355 162.379 61.585 162.248 61.923 162.181C62.284 162.109 62.565 162.138 62.604 162.253C62.685 162.497 63.209 162.512 63.209 162.269C63.209 162.171 63.498 162.138 63.852 162.195C64.206 162.252 64.549 162.212 64.615 162.106C64.681 161.999 64.896 161.954 65.094 162.006C65.292 162.058 65.511 162.007 65.582 161.893C65.652 161.779 65.598 161.677 65.46 161.666C65.323 161.655 65.511 161.575 65.878 161.488C66.273 161.395 66.571 161.403 66.609 161.508C66.644 161.605 66.842 161.685 67.049 161.685C67.256 161.685 67.373 161.601 67.309 161.497C67.236 161.378 67.495 161.349 68.013 161.418C68.486 161.481 69.076 161.429 69.405 161.294L69.977 161.06L69.5 160.928C69.088 160.813 69.131 160.784 69.818 160.713C70.255 160.667 70.572 160.696 70.522 160.776C70.472 160.857 70.699 160.923 71.026 160.923C71.412 160.923 71.574 160.849 71.49 160.712C71.402 160.57 71.492 160.543 71.766 160.63C72.281 160.793 74.267 160.554 74.267 160.329C74.267 160.236 74.031 160.149 73.743 160.136C73.382 160.12 73.486 160.065 74.076 159.96C75.196 159.761 76.173 159.769 75.22 159.969L74.553 160.11L75.169 160.135C76.191 160.177 78.461 159.721 78.461 159.474C78.461 159.19 78.901 159.016 79.621 159.016C80.007 159.016 80.177 159.111 80.177 159.326C80.177 159.549 80.244 159.581 80.416 159.442C80.547 159.337 81.033 159.187 81.496 159.111C81.959 159.035 82.511 158.81 82.724 158.613C83.149 158.216 84.175 158.133 84.51 158.468C84.669 158.627 84.884 158.627 85.339 158.468C85.677 158.35 86.146 158.254 86.382 158.254C86.617 158.254 86.859 158.125 86.919 157.968C87.047 157.636 87.613 157.578 87.613 157.897C87.613 158.152 89.507 157.955 89.796 157.67C89.896 157.571 90.138 157.491 90.334 157.491C90.53 157.491 90.819 157.362 90.977 157.205C91.301 156.881 91.807 156.823 91.807 157.11C91.807 157.45 92.472 157.311 92.716 156.919C92.868 156.676 93.144 156.546 93.477 156.56L94 156.583L93.444 156.703C92.681 156.868 92.582 157.261 93.33 157.151C93.649 157.104 93.956 156.99 94.014 156.897C94.071 156.804 94.361 156.728 94.658 156.728C94.994 156.728 95.246 156.604 95.324 156.4C95.426 156.135 95.482 156.122 95.611 156.332C95.732 156.528 96.024 156.559 96.793 156.46C98.226 156.275 99.272 155.977 99.155 155.786C99.1 155.698 99.288 155.567 99.573 155.495C99.886 155.417 100.119 155.446 100.16 155.57C100.236 155.8 100.958 155.856 100.96 155.632C100.961 155.553 101.4 155.473 101.936 155.453C103.192 155.407 103.636 155.255 103.242 155.005C103.003 154.854 103.009 154.827 103.279 154.825C103.454 154.823 103.747 154.764 103.93 154.694C104.157 154.607 104.219 154.637 104.125 154.789C104.031 154.941 104.174 155.012 104.57 155.012C104.891 155.012 105.153 154.922 105.153 154.81C105.153 154.699 105.238 154.661 105.342 154.725C105.61 154.891 107.823 154.615 107.823 154.416C107.823 154.324 107.544 154.24 107.203 154.227C106.713 154.21 106.781 154.172 107.531 154.046C108.152 153.943 108.522 153.957 108.602 154.087C108.814 154.429 111.68 153.877 111.996 153.433C112.232 153.102 112.404 153.076 113.588 153.193C114.352 153.268 114.872 153.251 114.811 153.154C114.754 153.06 114.965 153.022 115.282 153.069C115.713 153.132 115.928 153.052 116.14 152.748C116.361 152.433 116.602 152.35 117.223 152.375L118.023 152.407L117.304 152.482C116.908 152.524 116.635 152.638 116.696 152.736C116.834 152.961 117.87 152.972 118.006 152.751C118.062 152.661 118.498 152.534 118.976 152.468C119.453 152.403 120.029 152.176 120.256 151.965C120.544 151.697 120.903 151.589 121.443 151.608L122.217 151.635L121.455 151.764C120.845 151.867 120.763 151.924 121.045 152.05C121.249 152.142 121.77 152.111 122.284 151.977C122.772 151.85 123.406 151.699 123.693 151.642C123.98 151.585 124.174 151.471 124.124 151.39C124.074 151.309 124.249 151.202 124.512 151.151C124.775 151.101 125.037 151.134 125.093 151.225C125.263 151.501 125.782 151.41 126.058 151.056C126.262 150.793 126.295 150.787 126.213 151.024C126.099 151.356 127.172 151.321 127.379 150.987C127.436 150.894 127.697 150.818 127.96 150.818C128.222 150.818 128.389 150.742 128.332 150.649C128.274 150.556 128.462 150.435 128.75 150.379C129.037 150.323 129.3 150.356 129.335 150.452C129.44 150.742 129.975 150.65 130.252 150.294C130.448 150.042 130.487 150.033 130.41 150.256C130.297 150.585 131.559 150.556 131.763 150.225C131.821 150.132 132.04 150.055 132.249 150.055C132.459 150.055 132.584 149.98 132.527 149.888C132.47 149.796 132.701 149.665 133.039 149.597C133.399 149.525 133.681 149.555 133.719 149.67C133.8 149.914 134.324 149.928 134.324 149.686C134.324 149.588 134.613 149.554 134.967 149.612C135.344 149.673 135.664 149.628 135.741 149.504C135.824 149.37 135.676 149.283 135.336 149.267C134.871 149.244 134.858 149.23 135.24 149.157C135.482 149.111 135.787 149.162 135.917 149.27C136.048 149.379 136.351 149.416 136.59 149.354C136.873 149.28 136.947 149.191 136.801 149.101C136.66 149.014 136.772 148.913 137.1 148.83C137.424 148.749 137.676 148.782 137.76 148.917C137.909 149.16 139.781 149 140.616 148.674C141.069 148.497 141.074 148.48 140.711 148.332C140.343 148.181 140.344 148.175 140.743 148.162C140.971 148.155 141.306 148.091 141.489 148.021C141.716 147.934 141.778 147.964 141.684 148.116C141.507 148.403 142.269 148.408 143.774 148.13C145.156 147.875 145.431 147.726 144.808 147.569C144.41 147.469 144.461 147.436 145.128 147.367C145.565 147.321 145.881 147.35 145.832 147.43C145.707 147.632 146.26 147.614 147.959 147.361C148.944 147.215 149.38 147.072 149.32 146.916C149.222 146.66 149.279 146.644 150.625 146.538C151.517 146.469 151.529 146.474 150.816 146.612C150.119 146.747 150.103 146.762 150.638 146.787C151.64 146.833 153.456 146.415 153.699 146.082C153.888 145.825 154.292 145.763 155.858 145.752C157.615 145.741 157.812 145.703 158.077 145.324C158.296 145.012 158.545 144.915 159.073 144.936C159.648 144.959 159.681 144.979 159.253 145.044C158.964 145.088 158.728 145.204 158.728 145.302C158.728 145.562 159.663 145.504 160.54 145.188C160.959 145.037 161.421 144.912 161.567 144.91C161.713 144.909 161.943 144.757 162.079 144.574C162.276 144.307 162.373 144.288 162.567 144.479C162.848 144.756 163.685 144.801 163.685 144.538C163.685 144.44 163.975 144.406 164.328 144.464C164.705 144.525 165.026 144.48 165.102 144.357C165.174 144.24 165.448 144.145 165.71 144.145C165.972 144.145 166.139 144.069 166.082 143.976C166.025 143.883 166.148 143.762 166.357 143.708C166.565 143.653 166.736 143.697 166.736 143.806C166.736 144.014 168.928 143.847 169.303 143.611C169.412 143.543 169.715 143.458 169.977 143.422C170.239 143.386 170.522 143.234 170.606 143.083C170.69 142.933 170.931 142.81 171.142 142.81C171.383 142.81 171.475 142.892 171.389 143.031C171.242 143.269 172.854 143.131 173.277 142.869C173.397 142.795 173.711 142.73 173.976 142.725C174.241 142.719 174.439 142.616 174.416 142.496C174.362 142.21 175.378 141.948 175.47 142.224C175.507 142.337 175.712 142.429 175.924 142.429C176.213 142.429 176.278 142.345 176.183 142.095C176.081 141.828 176.103 141.809 176.296 142C176.705 142.406 177.712 142.304 177.712 141.857C177.712 141.496 177.585 141.476 175.274 141.476H172.835L172.884 118.549L172.932 95.622H195.811H218.69L218.739 115.022C218.782 132.419 218.818 134.421 219.084 134.421C219.261 134.421 219.325 134.511 219.242 134.644C219.148 134.796 219.21 134.827 219.437 134.74C219.62 134.669 219.977 134.612 220.231 134.612C220.865 134.612 220.814 134.272 220.168 134.189C219.866 134.15 220.251 134.042 221.073 133.934C221.939 133.821 222.552 133.816 222.628 133.922C222.856 134.243 224.543 133.88 224.849 133.444C225.108 133.073 225.247 133.05 226.494 133.163C228.225 133.319 228.307 133.027 227.061 131.153C226.151 129.784 224.609 126.639 224.398 125.722C224.329 125.421 224.089 124.574 223.865 123.84C223.185 121.618 223.265 115.207 224.004 112.591C225.377 107.729 228.347 103.341 232.376 100.221C233.454 99.385 236.35 97.626 236.651 97.623C236.734 97.623 237.047 97.495 237.346 97.339C240.551 95.667 248.295 95.119 251.997 96.302C252.633 96.505 253.25 96.672 253.367 96.672C253.889 96.674 257.489 98.468 258.987 99.473C266.695 104.64 270.807 114.964 268.59 123.58C268.075 125.581 268.076 125.503 268.559 125.805C268.95 126.049 269.777 125.944 269.609 125.672C269.56 125.594 269.785 125.568 270.108 125.616C270.533 125.678 270.748 125.609 270.883 125.368C271.036 125.095 271.101 125.082 271.239 125.295C271.381 125.515 271.433 125.515 271.575 125.296C271.716 125.076 271.756 125.076 271.833 125.296C271.903 125.499 272.015 125.474 272.341 125.185C272.66 124.902 272.731 124.885 272.642 125.116C272.546 125.367 272.631 125.396 273.159 125.288L273.79 125.159L273.839 110.581C273.865 102.564 273.927 95.896 273.976 95.765C274.047 95.574 278.732 95.536 296.902 95.574L319.739 95.622L319.84 106.204C319.895 112.024 319.96 116.795 319.983 116.807C320.198 116.918 320.873 116.722 320.841 116.559C320.787 116.278 321.804 116.023 321.895 116.294C321.932 116.407 322.09 116.5 322.244 116.5C322.407 116.5 322.469 116.408 322.391 116.281C322.295 116.126 322.41 116.101 322.788 116.196C323.434 116.358 325.363 116.141 325.363 115.906C325.363 115.813 325.17 115.728 324.934 115.718C324.679 115.706 324.814 115.626 325.266 115.521C325.774 115.402 326.048 115.408 326.092 115.54C326.128 115.648 326.284 115.737 326.439 115.737C326.596 115.737 326.663 115.644 326.59 115.526C326.499 115.379 326.639 115.354 327.046 115.444C327.74 115.596 329.367 115.385 329.367 115.143C329.367 115.05 329.131 114.964 328.843 114.952C328.531 114.938 328.704 114.865 329.272 114.769C329.859 114.671 330.249 114.679 330.289 114.792C330.323 114.892 330.522 114.974 330.729 114.974C330.936 114.974 331.058 114.897 331 114.804C330.942 114.71 331.023 114.584 331.179 114.524C331.336 114.463 331.464 114.497 331.464 114.599C331.464 114.701 331.684 114.784 331.952 114.784C332.22 114.784 332.399 114.718 332.35 114.637C332.3 114.557 332.583 114.521 332.979 114.559C333.593 114.618 333.715 114.565 333.81 114.201C333.915 113.8 333.993 113.781 335.073 113.894C336.743 114.069 337.89 113.876 338.015 113.4C338.108 113.044 338.214 113.026 339.48 113.151C340.231 113.225 340.801 113.213 340.747 113.125C340.692 113.037 340.972 112.996 341.368 113.034C341.968 113.091 342.105 113.037 342.192 112.704C342.309 112.256 343.597 112.121 343.99 112.515C344.214 112.739 345.066 112.565 344.918 112.326C344.87 112.247 345.08 112.22 345.385 112.265C345.732 112.316 346.055 112.231 346.247 112.04C346.588 111.698 347.098 111.629 347.098 111.924C347.098 112.029 347.27 112.114 347.48 112.114C347.692 112.114 347.861 111.987 347.861 111.827C347.861 111.594 347.928 111.581 348.217 111.762C348.413 111.884 348.732 111.923 348.927 111.848C349.225 111.734 349.237 111.686 348.999 111.538C348.815 111.422 348.959 111.401 349.424 111.476C349.936 111.558 350.214 111.504 350.439 111.28C350.772 110.947 351.583 110.845 351.388 111.161C351.323 111.266 351.404 111.352 351.567 111.352C351.731 111.352 351.865 111.271 351.865 111.173C351.865 111.075 352.154 111.041 352.508 111.099C352.884 111.16 353.205 111.115 353.282 110.991C353.365 110.857 353.216 110.77 352.877 110.754C352.411 110.731 352.399 110.717 352.781 110.644C353.022 110.598 353.327 110.649 353.458 110.757C353.751 111 354.576 110.812 354.408 110.54C354.329 110.412 354.465 110.388 354.791 110.47C355.138 110.557 355.297 110.521 355.299 110.354C355.302 110.17 355.341 110.174 355.465 110.369C355.598 110.579 355.883 110.587 357.015 110.411C358.527 110.176 358.79 110.08 358.628 109.819C358.57 109.724 358.749 109.59 359.027 109.52C359.344 109.441 359.586 109.48 359.676 109.627C359.789 109.81 360.13 109.808 361.276 109.615C362.676 109.38 363.198 109.088 362.303 109.041C362.067 109.029 362.303 108.947 362.827 108.859C363.415 108.76 363.805 108.769 363.844 108.881C363.879 108.982 364.034 109.064 364.189 109.064C364.344 109.064 364.416 108.976 364.35 108.869C364.271 108.741 364.496 108.716 365.006 108.798C365.459 108.87 365.783 108.846 365.783 108.74C365.783 108.64 366.04 108.596 366.355 108.642C366.698 108.692 366.927 108.641 366.927 108.514C366.927 108.397 366.741 108.301 366.514 108.301C365.826 108.301 366.198 108.17 367.277 108.032C367.967 107.944 368.255 107.967 368.171 108.102C368.104 108.211 368.187 108.301 368.357 108.301C368.526 108.301 368.625 108.237 368.577 108.158C368.528 108.08 369.039 108.009 369.711 108.001C370.661 107.991 370.991 107.91 371.187 107.642C371.462 107.265 373.167 106.909 373.267 107.207C373.359 107.484 375.506 107.161 375.506 106.87C375.506 106.555 375.955 106.388 376.713 106.421C377.162 106.44 377.207 106.468 376.888 106.529C376.653 106.575 376.459 106.674 376.459 106.75C376.459 107.112 379.493 106.468 379.818 106.037C380.092 105.675 380.844 105.602 380.71 105.951C380.582 106.286 381.286 106.269 382.275 105.913C382.694 105.761 383.151 105.636 383.289 105.635C383.428 105.633 383.67 105.503 383.827 105.346C384.156 105.017 384.848 104.961 384.848 105.264C384.848 105.376 385.105 105.285 385.419 105.061C385.848 104.755 385.961 104.728 385.875 104.953C385.795 105.163 385.876 105.251 386.151 105.251C386.573 105.251 386.941 104.873 386.528 104.864C386.378 104.86 386.415 104.779 386.62 104.659C386.845 104.528 386.922 104.334 386.846 104.093C386.776 103.871 386.819 103.725 386.955 103.725C387.117 103.725 387.143 103.428 387.047 102.66C386.893 101.427 386.42 99.978 386.368 100.58C386.348 100.807 386.271 100.692 386.176 100.294C386.083 99.899 386.091 99.6 386.196 99.563C386.294 99.528 386.374 99.287 386.374 99.027C386.374 98.768 386.309 98.594 386.231 98.641C386.152 98.689 386.075 98.214 386.06 97.586C386.033 96.427 385.611 95.474 385.611 96.569C385.611 97.349 385.494 97.109 385.354 96.042C385.278 95.458 385.303 95.168 385.423 95.243C385.528 95.308 385.611 95.14 385.611 94.86C385.611 94.585 385.543 94.403 385.46 94.454C385.377 94.505 385.344 94.253 385.386 93.893C385.428 93.534 385.379 93.239 385.277 93.239C385.175 93.239 385.133 93.025 385.183 92.763C385.285 92.229 384.926 92.098 384.789 92.62C384.741 92.803 384.692 92.681 384.68 92.349C384.668 92.017 384.6 91.595 384.53 91.412C384.443 91.185 384.473 91.123 384.625 91.217C384.777 91.311 384.848 91.166 384.848 90.761C384.848 90.434 384.781 90.208 384.698 90.259C384.615 90.311 384.581 90.058 384.623 89.699C384.665 89.339 384.616 89.045 384.514 89.045C384.413 89.045 384.37 88.83 384.42 88.568C384.471 88.306 384.426 88.092 384.322 88.092C384.086 88.092 383.609 86.98 383.774 86.814C383.841 86.748 383.895 86.799 383.895 86.927C383.895 87.056 383.981 87.108 384.086 87.043C384.321 86.897 384.338 86.055 384.108 85.913C384.015 85.855 383.878 85.316 383.803 84.714C383.709 83.966 383.552 83.54 383.304 83.366C383.049 83.188 382.949 82.904 382.967 82.409L382.992 81.704L383.125 82.372C383.231 82.902 383.289 82.97 383.407 82.702C383.49 82.517 383.509 82.174 383.449 81.94C383.39 81.705 383.218 80.999 383.066 80.37C382.914 79.741 382.781 79.309 382.771 79.411C382.76 79.513 382.634 79.428 382.49 79.221C382.214 78.822 381.972 77.382 382.206 77.526C382.282 77.573 382.402 77.518 382.473 77.403C382.623 77.16 382.199 75.508 381.986 75.508C381.907 75.508 381.801 75.294 381.751 75.031C381.701 74.769 381.746 74.555 381.851 74.555C381.97 74.555 381.993 74.15 381.913 73.468C381.771 72.257 381.668 72.051 381.412 72.463C381.297 72.647 381.276 72.498 381.352 72.029C381.421 71.597 381.39 71.314 381.273 71.314C381.167 71.314 381.039 71.099 380.989 70.837C380.938 70.575 380.971 70.36 381.062 70.36C381.152 70.36 381.226 70.103 381.226 69.788C381.226 69.474 381.143 69.216 381.041 69.216C380.94 69.216 380.907 69.085 380.969 68.924C381.107 68.564 380.662 66.901 380.461 67.025C380.382 67.074 380.275 66.901 380.226 66.64C380.176 66.379 380.221 66.166 380.325 66.166C380.543 66.166 380.38 64.414 380.051 63.211C379.874 62.561 379.82 62.504 379.69 62.829C379.589 63.081 379.531 63.113 379.521 62.925C379.512 62.767 379.45 62.432 379.382 62.18C379.296 61.858 379.325 61.762 379.48 61.858C379.762 62.032 379.766 61.435 379.492 59.954C379.195 58.343 379.086 58.143 378.931 58.921L378.798 59.588L378.772 58.889C378.759 58.504 378.69 58.04 378.62 57.857C378.533 57.63 378.563 57.568 378.715 57.662C378.864 57.753 378.938 57.633 378.938 57.3C378.938 57.026 378.874 56.84 378.795 56.888C378.716 56.936 378.646 56.527 378.638 55.981C378.619 54.645 378.363 54.014 378.168 54.822C378.03 55.393 378.03 55.393 378.007 54.694C377.995 54.31 377.927 53.845 377.857 53.662C377.776 53.45 377.803 53.375 377.932 53.455C378.044 53.524 378.175 53.474 378.223 53.343C378.331 53.048 378.187 52.6 378.016 52.703C377.946 52.745 377.878 52.277 377.863 51.664C377.846 50.919 377.735 50.445 377.53 50.24C377.163 49.873 377.161 49.861 377.443 49.411C377.575 49.2 377.601 48.912 377.508 48.698C377.373 48.385 377.333 48.412 377.199 48.911C377.074 49.374 377.062 49.329 377.136 48.675C377.29 47.294 377.036 45.811 376.626 45.704C376.35 45.632 376.274 45.445 376.291 44.878C376.313 44.163 376.317 44.159 376.452 44.717C376.573 45.217 376.61 45.244 376.747 44.926C376.839 44.713 376.806 44.241 376.666 43.782C376.535 43.352 376.38 42.702 376.322 42.336C376.264 41.97 376.081 41.571 375.916 41.451C375.681 41.279 375.665 41.172 375.841 40.96C376.085 40.666 375.989 39.256 375.686 38.69C375.587 38.506 375.506 38.166 375.506 37.934C375.506 37.703 375.356 37.392 375.173 37.243C374.93 37.045 374.904 36.944 375.077 36.872C375.339 36.763 375.38 36.221 375.196 35.303C375.057 34.607 374.803 34.523 374.689 35.136C374.645 35.372 374.651 35.017 374.702 34.347C374.763 33.541 374.728 33.169 374.598 33.25C374.49 33.316 374.353 33.242 374.293 33.086C374.233 32.929 374.267 32.801 374.368 32.801C374.47 32.801 374.553 32.543 374.553 32.229C374.553 31.914 374.482 31.657 374.395 31.657C374.309 31.657 374.275 31.399 374.322 31.085C374.369 30.76 374.319 30.513 374.206 30.513C374.096 30.513 373.971 30.749 373.927 31.037C373.848 31.556 373.847 31.556 373.819 30.98C373.803 30.66 373.886 30.303 374.002 30.186C374.232 29.957 374.055 29.491 373.798 29.65C373.713 29.703 373.605 29.49 373.559 29.176C373.513 28.863 373.546 28.606 373.633 28.606C373.719 28.606 373.79 28.344 373.79 28.023C373.79 27.702 373.726 27.479 373.647 27.527C373.569 27.576 373.491 27.056 373.474 26.374C373.444 25.148 373.028 24.113 373.028 25.263C373.028 26.006 372.916 25.822 372.764 24.827C372.68 24.283 372.704 24.044 372.832 24.123C373.082 24.277 373.078 23.945 372.81 22.256C372.571 20.752 372.265 20.138 372.265 21.164C372.265 22.031 372.154 21.844 372.008 20.732C371.922 20.072 371.949 19.854 372.105 19.95C372.263 20.048 372.285 19.804 372.186 19.055C372.112 18.488 371.99 18.003 371.915 17.975C371.84 17.948 371.813 17.571 371.854 17.136C371.916 16.486 371.877 16.366 371.636 16.458C371.468 16.523 371.296 16.448 371.232 16.281C371.075 15.873 371.09 15.826 371.359 15.88C371.506 15.909 371.584 15.745 371.562 15.451C371.494 14.553 371.134 12.907 370.981 12.797C370.569 12.5 370.345 11.525 370.466 10.558C370.544 9.93597 370.521 9.54097 370.407 9.54097C370.304 9.54097 370.262 9.32597 370.312 9.06397C370.365 8.78597 370.314 8.58697 370.19 8.58697C370.073 8.58697 369.977 8.42097 369.977 8.21697C369.977 8.01397 369.891 7.79397 369.786 7.72897C369.682 7.66397 369.607 7.33797 369.621 7.00297L369.646 6.39498L369.779 7.06198C369.889 7.61298 369.939 7.66798 370.068 7.37598C370.229 7.00998 369.617 4.01097 369.381 4.01097C369.131 4.01097 369.022 3.38497 369.229 3.13597C369.513 2.79297 369.264 1.28197 368.944 1.40497C368.815 1.45497 368.609 1.33197 368.484 1.13297C368.251 0.758975 367.308 0.621975 367.308 0.960975ZM361.112 1.91397C361.044 2.02297 361.209 2.10497 361.493 2.10497C361.777 2.10497 361.941 2.02297 361.874 1.91397C361.809 1.80897 361.638 1.72397 361.493 1.72397C361.348 1.72397 361.176 1.80897 361.112 1.91397ZM356.917 2.67697C356.848 2.78797 357.042 2.86697 357.382 2.86697C357.703 2.86697 357.966 2.78197 357.966 2.67697C357.966 2.57197 357.756 2.48597 357.5 2.48597C357.244 2.48597 356.982 2.57197 356.917 2.67697ZM352.723 3.43897C352.655 3.54797 352.82 3.62997 353.104 3.62997C353.388 3.62997 353.552 3.54797 353.485 3.43897C353.42 3.33497 353.249 3.24897 353.104 3.24897C352.959 3.24897 352.787 3.33497 352.723 3.43897ZM323.647 8.58697C323.647 8.69197 323.824 8.77797 324.04 8.77797C324.256 8.77797 324.379 8.69197 324.315 8.58697C324.25 8.48197 324.073 8.39697 323.922 8.39697C323.771 8.39697 323.647 8.48197 323.647 8.58697ZM319.453 9.34997C319.453 9.45497 319.624 9.54097 319.834 9.54097C320.044 9.54097 320.215 9.45497 320.215 9.34997C320.215 9.24497 320.044 9.15897 319.834 9.15897C319.624 9.15897 319.453 9.24497 319.453 9.34997ZM315.258 10.112C315.258 10.217 315.43 10.303 315.64 10.303C315.849 10.303 316.021 10.217 316.021 10.112C316.021 10.008 315.849 9.92198 315.64 9.92198C315.43 9.92198 315.258 10.008 315.258 10.112ZM370.549 11.256C370.549 11.604 370.628 11.802 370.74 11.733C370.845 11.668 370.93 11.454 370.93 11.256C370.93 11.059 370.845 10.845 370.74 10.78C370.628 10.711 370.549 10.909 370.549 11.256ZM248.337 21.933C248.337 22.038 248.552 22.124 248.814 22.124C249.076 22.124 249.291 22.038 249.291 21.933C249.291 21.828 249.076 21.743 248.814 21.743C248.552 21.743 248.337 21.828 248.337 21.933ZM210.492 28.606C210.425 28.715 210.589 28.797 210.873 28.797C211.157 28.797 211.322 28.715 211.255 28.606C211.19 28.501 211.018 28.416 210.873 28.416C210.728 28.416 210.557 28.501 210.492 28.606ZM206.393 29.369C206.393 29.474 206.607 29.56 206.869 29.56C207.132 29.56 207.346 29.474 207.346 29.369C207.346 29.264 207.132 29.178 206.869 29.178C206.607 29.178 206.393 29.264 206.393 29.369ZM197.384 31.407C197.201 31.455 196.9 31.455 196.717 31.407C196.533 31.359 196.684 31.32 197.051 31.32C197.418 31.32 197.568 31.359 197.384 31.407ZM168.596 69.094L168.547 92L145.716 92.048L122.885 92.097V69.123V46.148L145.525 46.1C157.978 46.073 168.273 46.082 168.405 46.12C168.595 46.174 168.634 50.86 168.596 69.094ZM199.91 46.412C218.241 49.4 225.496 72.107 212.316 85.237C197.783 99.713 173.334 89.546 173.334 69.026C173.334 54.742 185.823 44.116 199.91 46.412ZM269.786 69.121V92H246.908H224.029L223.98 69.073L223.932 46.145L246.859 46.194L269.786 46.242V69.121ZM301.15 46.432C308.353 47.699 314.438 52.234 317.809 58.85C318.189 59.595 318.5 60.28 318.501 60.373C318.501 60.466 318.626 60.78 318.778 61.072C319.91 63.241 320.559 70.434 319.874 73.22C319.286 75.615 319.078 76.32 318.629 77.438C313.547 90.107 298.71 95.705 286.783 89.454C282.429 87.171 278.513 83.132 276.614 78.964C276.249 78.164 275.882 77.376 275.797 77.212C275.375 76.397 274.641 73.076 274.462 71.171C273.053 56.192 286.382 43.836 301.15 46.432ZM370.072 69.121V92H347.194H324.315L324.219 69.264C324.167 56.759 324.153 46.442 324.188 46.337C324.23 46.21 331.964 46.162 347.162 46.194L370.072 46.242V69.121ZM75.03 53.085C75.03 53.126 74.735 53.194 74.376 53.236C74.016 53.278 73.764 53.244 73.815 53.161C73.907 53.012 75.03 52.941 75.03 53.085ZM93.231 55.648C89.243 57.125 88.756 58.793 88.758 70.972C88.76 81.112 88.974 82.477 90.816 84.099C93.224 86.218 98.622 86.068 100.871 83.82C102.79 81.9 103.141 79.076 103.007 66.643L102.935 59.969L102.409 58.826C101.003 55.769 96.817 54.32 93.231 55.648ZM193.427 55.467C189.221 56.827 188.805 58.199 188.798 70.742C188.792 80.935 188.84 81.389 190.137 83.357C191.979 86.151 196.926 86.31 199.574 83.661C200.197 83.038 200.482 83.232 200.482 84.278V85.232H201.817H203.152V77.701V70.17H199.386L195.621 70.169L195.649 71.552L195.678 72.934L197.89 72.988L200.101 73.042V75.546C200.101 80.933 199.007 82.846 195.926 82.848C192.367 82.85 191.936 81.187 192.167 68.358C192.332 59.209 192.542 58.556 195.469 58.07C198.417 57.58 199.72 58.966 199.72 62.59V64.45H201.367H203.014L202.918 61.828C202.784 58.203 202.133 56.92 199.911 55.897C198.797 55.385 194.553 55.103 193.427 55.467ZM243.966 55.675C239.937 57.162 239.569 58.454 239.573 71.123C239.576 83.115 239.935 84.259 244.048 85.354C248.211 86.464 251.927 84.771 253.052 81.252C254.181 77.721 254.163 60.817 253.028 58.578C251.567 55.695 247.468 54.382 243.966 55.675ZM344.261 55.671C341.467 56.703 340.425 58.438 340.425 62.055C340.425 65.325 341.099 66.617 344.807 70.456C349.704 75.525 349.899 75.758 350.266 76.978C351.264 80.295 349.753 82.753 346.717 82.753C343.983 82.753 343.028 81.519 342.933 77.86L342.866 75.317H341.264H339.663V77.64C339.663 83.124 341.853 85.613 346.678 85.613C351.222 85.613 353.834 83.038 353.834 78.558C353.834 75.394 353.149 74.173 348.797 69.572C344.054 64.559 343.878 64.315 343.716 62.533C343.444 59.53 344.444 58.158 346.904 58.158C349.411 58.158 350.339 59.427 350.339 62.855V64.069H351.788H353.236L353.163 61.447C353.069 58.064 352.55 57.01 350.435 55.908C349.108 55.217 345.83 55.091 344.261 55.671ZM37.851 70.437V85.232L41.045 85.225C49.516 85.207 51.499 84.103 52.166 79.035C52.843 73.887 51.221 69.598 48.595 69.598C48.389 69.598 48.053 69.472 47.85 69.318C47.49 69.046 47.492 69.038 47.927 69.032C51.895 68.978 53.43 60.688 50.099 57.303C48.761 55.942 48.2 55.823 42.665 55.726L37.851 55.642V70.437ZM139.032 55.802C138.964 55.87 138.906 62.519 138.902 70.578L138.895 85.232H140.592H142.289L142.215 80.704C142.175 78.213 142.046 72.786 141.928 68.644C141.707 60.867 141.722 59.779 142.046 59.779C142.151 59.779 142.432 60.68 142.671 61.781C142.91 62.882 143.269 64.512 143.47 65.403C143.867 67.164 144.657 70.703 145.194 73.125C145.38 73.964 145.973 76.581 146.513 78.94C147.052 81.299 147.588 83.68 147.704 84.231L147.913 85.232H150.366H152.818V70.456V55.68H151.197H149.577V57.348C149.578 58.265 149.658 61.032 149.756 63.497C150.119 72.614 150.198 81.418 149.917 81.418C149.744 81.418 149.482 80.627 149.113 78.988C148.812 77.651 148.407 75.87 148.213 75.031C147.589 72.328 146.956 69.539 146.634 68.072C146.461 67.286 146.2 66.171 146.053 65.594C145.906 65.017 145.555 63.516 145.273 62.257C144.99 60.999 144.556 59.166 144.308 58.185C144.06 57.204 143.857 56.238 143.857 56.04C143.857 55.676 139.378 55.456 139.032 55.802ZM297.337 58.54V60.827H298.099H298.862V61.961C298.862 63.21 298.355 64.343 297.704 64.55C297.406 64.644 297.337 64.846 297.337 65.609V66.552L298.044 66.256C300.004 65.438 300.426 64.349 300.539 59.827L300.628 56.252H298.982H297.337V58.54ZM97.745 58.363C98.591 58.816 99.109 59.521 99.346 60.541C99.921 63.012 99.847 76.898 99.243 80.085C98.623 83.356 94.238 84.005 92.719 81.051L92.284 80.206V70.644V61.082L92.732 60.145C93.63 58.264 95.992 57.425 97.745 58.363ZM247.861 58.177C250.321 58.844 250.493 59.674 250.378 70.367C250.271 80.435 250.187 81.026 248.692 82.228C246.99 83.596 244.496 82.994 243.513 80.977L242.979 79.88L242.902 71.641C242.86 67.109 242.895 62.827 242.981 62.126C243.369 58.968 245.229 57.463 247.861 58.177ZM46.577 59.01C49.183 60.087 49.421 65.548 46.942 67.388C46.471 67.737 46.085 67.794 43.844 67.849L41.283 67.911V63.353C41.283 60.845 41.347 58.728 41.426 58.647C41.695 58.37 45.714 58.654 46.577 59.01ZM13.209 64.009C13.025 64.057 12.725 64.057 12.541 64.009C12.358 63.961 12.508 63.922 12.875 63.922C13.242 63.922 13.392 63.961 13.209 64.009ZM1.56699 68.978C1.51899 69.162 1.47999 69.011 1.47999 68.644C1.47999 68.277 1.51899 68.127 1.56699 68.311C1.61499 68.494 1.61499 68.795 1.56699 68.978ZM380.595 68.978C380.547 69.162 380.508 69.011 380.508 68.644C380.508 68.277 380.547 68.127 380.595 68.311C380.643 68.494 380.643 68.795 380.595 68.978ZM46.136 70.953C48.271 71.546 48.977 72.963 48.975 76.652C48.972 81.336 48.176 82.181 43.768 82.181H41.283V76.461V70.742L43.333 70.743C44.46 70.743 45.721 70.838 46.136 70.953ZM382.37 78.166C382.37 78.487 382.456 78.749 382.561 78.749C382.665 78.749 382.751 78.54 382.751 78.284C382.751 78.028 382.665 77.765 382.561 77.701C382.449 77.632 382.37 77.826 382.37 78.166ZM118.262 118.549L118.31 141.476H95.451C74.782 141.476 72.581 141.447 72.476 141.174C72.235 140.546 72.347 95.998 72.59 95.755C72.767 95.578 78.021 95.537 95.517 95.574L118.214 95.622L118.262 118.549ZM149.84 95.927C154.741 96.613 160.055 99.719 163.513 103.916C175.882 118.929 165.233 141.396 145.764 141.366C136.013 141.351 128.507 136.177 124.348 126.604C122.489 122.327 122.489 114.676 124.348 110.398C126.907 104.507 130.818 100.228 135.754 97.916C136.383 97.621 137.112 97.271 137.375 97.139C137.822 96.912 139.152 96.511 140.902 96.074C142.862 95.584 146.919 95.517 149.84 95.927ZM244.429 103.899C241.964 104.273 240.274 105.71 239.553 108.045L239.091 109.541V119.264C239.091 128.973 239.091 128.99 239.538 130.284C240.944 134.355 245.896 135.436 249.452 132.448C250.526 131.545 250.625 131.567 250.625 132.705V133.659H252.058H253.49L253.44 126.175L253.39 118.692L249.624 118.64L245.859 118.589V120.016V121.444L248.004 121.498L250.149 121.552L250.204 123.649C250.357 129.448 249.351 131.276 246.005 131.276H244.339L243.569 130.505C242.535 129.471 242.461 128.955 242.309 121.743C242.034 108.659 242.564 106.681 246.34 106.681C249.123 106.681 249.725 107.364 249.863 110.676L249.958 112.972H251.483H253.009L253.063 110.89C253.209 105.31 250.356 103 244.429 103.899ZM295.239 103.892C292.151 104.395 290.326 106.581 289.914 110.271C289.646 112.674 289.648 126.889 289.916 128.831C290.413 132.425 292.498 134.105 296.479 134.121C301.854 134.141 303.491 132.109 303.825 124.999C304.257 115.79 303.996 108.627 303.17 107.01C301.913 104.552 298.772 103.317 295.239 103.892ZM88.073 104.282C88.03 104.325 87.994 110.959 87.994 119.024V133.687L92.904 133.625L97.813 133.563L98.909 133.017C101.46 131.745 102.469 129.56 102.507 125.222C102.544 121.036 101.227 118.586 98.671 118.085C97.645 117.885 97.56 117.598 98.48 117.441C103.287 116.624 103.432 106.995 98.671 104.794C97.874 104.425 88.386 103.967 88.073 104.282ZM143.285 118.978V133.659H144.906H146.526V118.978V104.297H144.906H143.285V118.978ZM189.234 118.978V133.659H190.878H192.523L192.4 127.129C192.332 123.537 192.183 117.928 192.068 114.664C191.871 109.079 191.958 107.211 192.365 108.301C192.508 108.684 194.217 116.253 195.313 121.361C195.516 122.305 195.815 123.635 195.978 124.316C196.142 124.998 196.484 126.5 196.739 127.653C196.994 128.806 197.402 130.63 197.646 131.704L198.089 133.659H200.572H203.056V118.978V104.297H201.394H199.731L199.826 107.014C199.978 111.328 200.292 125.34 200.292 127.798C200.292 131.18 200.073 130.837 198.865 125.556C198.223 122.749 197.668 120.35 197.234 118.501C197.037 117.663 196.611 115.818 196.288 114.402C195.479 110.865 194.989 108.777 194.675 107.539C194.528 106.962 194.311 105.997 194.191 105.394L193.973 104.297H191.603H189.234V118.978ZM298.534 106.847C300.509 107.688 300.634 108.449 300.526 119.052C300.431 128.332 300.329 129.366 299.408 130.352C297.802 132.072 294.869 131.709 293.714 129.648L293.237 128.797V119.073C293.237 108.323 293.205 108.62 294.506 107.407C295.392 106.58 297.289 106.316 298.534 106.847ZM96.851 107.623C98.163 108.183 98.978 110.102 98.809 112.233C98.537 115.666 97.488 116.5 93.439 116.5H91.426V111.956C91.426 109.456 91.49 107.345 91.569 107.263C91.785 107.039 96.186 107.339 96.851 107.623ZM338.709 113.449C338.709 113.554 338.833 113.64 338.984 113.64C339.135 113.64 339.312 113.554 339.377 113.449C339.441 113.344 339.318 113.258 339.102 113.258C338.886 113.258 338.709 113.344 338.709 113.449ZM334.61 114.212C334.675 114.316 334.847 114.402 334.991 114.402C335.136 114.402 335.308 114.316 335.373 114.212C335.44 114.103 335.276 114.021 334.991 114.021C334.707 114.021 334.543 114.103 334.61 114.212ZM97.169 119.867C98.751 120.728 99.148 121.811 99.148 125.27C99.148 129.848 98.396 130.661 94.064 130.769L91.426 130.835V125.097V119.359H93.831C96.075 119.359 96.299 119.393 97.169 119.867ZM11.264 125.508C11.184 125.692 11.184 125.992 11.264 126.175C11.402 126.493 11.413 126.493 11.489 126.175C11.623 125.613 11.446 125.088 11.264 125.508ZM225.363 133.468C225.428 133.573 225.643 133.659 225.84 133.659C226.037 133.659 226.252 133.573 226.316 133.468C226.385 133.357 226.188 133.277 225.84 133.277C225.492 133.277 225.294 133.357 225.363 133.468ZM154.248 146.051C154.313 146.156 154.527 146.242 154.724 146.242C154.922 146.242 155.136 146.156 155.201 146.051C155.27 145.94 155.072 145.861 154.724 145.861C154.377 145.861 154.179 145.94 154.248 146.051ZM83.133 158.635C83.197 158.74 83.412 158.826 83.609 158.826C83.806 158.826 84.021 158.74 84.086 158.635C84.155 158.523 83.957 158.444 83.609 158.444C83.261 158.444 83.064 158.523 83.133 158.635ZM17.174 159.064C17.094 159.247 17.094 159.548 17.174 159.731C17.357 160.151 17.534 159.627 17.399 159.064C17.323 158.746 17.312 158.746 17.174 159.064ZM79.224 159.398C79.224 159.502 79.348 159.588 79.499 159.588C79.65 159.588 79.827 159.502 79.891 159.398C79.956 159.293 79.833 159.207 79.617 159.207C79.401 159.207 79.224 159.293 79.224 159.398ZM17.959 163.147C17.76 163.347 17.811 164.164 18.023 164.164C18.128 164.164 18.214 163.907 18.214 163.592C18.214 163 18.175 162.932 17.959 163.147ZM50.053 164.545C50.053 164.65 50.225 164.736 50.435 164.736C50.644 164.736 50.816 164.65 50.816 164.545C50.816 164.44 50.644 164.355 50.435 164.355C50.225 164.355 50.053 164.44 50.053 164.545ZM45.859 165.308C45.859 165.413 46.031 165.499 46.24 165.499C46.45 165.499 46.622 165.413 46.622 165.308C46.622 165.203 46.45 165.117 46.24 165.117C46.031 165.117 45.859 165.203 45.859 165.308ZM41.817 166.109C41.995 166.287 42.097 166.287 42.275 166.109C42.452 165.931 42.402 165.88 42.046 165.88C41.69 165.88 41.639 165.931 41.817 166.109Z" fill="white"/>
</svg>
