<svg width="152" height="45" viewBox="0 0 152 45" fill="none" xmlns="http://www.w3.org/2000/svg">
<path fill-rule="evenodd" clip-rule="evenodd" d="M96.9648 10.125H102.824L90.7715 23.7141V33.75H85.8502V23.7141L73.7647 10.125H79.7572L88.361 19.7987L96.9648 10.125ZM133.426 14.3038V19.5683H150.075V23.7141H133.426V29.5712H152V33.75H128.529V10.125H152V14.3038H133.426ZM62.9053 29.5712H79.3529V33.75H58.1176V10.125H62.9053V29.5712ZM103.941 10.125H126.294V14.3038H108.68V20.1936H124.431V24.3723H108.68V33.75H103.941V10.125ZM10.0588 22.5H22.3529V34.875H18.9641V25.911H10.0588V22.5ZM25.7418 19.0891H34.6471V22.5H22.3529V10.125H25.7418V19.0891ZM35.7879 36.0233L22.3528 41.625L8.918 36.0233L3.35294 22.5L8.918 8.97648L22.3528 3.375L35.7879 8.97648L41.3529 22.5L35.7879 36.0233ZM22.3529 0L6.54712 6.58998L0 22.5L6.54712 38.4098L22.3529 45L38.159 38.4098L44.7059 22.5L38.159 6.58998L22.3529 0Z" fill="white"/>
</svg>
