<svg width="122" height="58" viewBox="0 0 122 58" fill="none" xmlns="http://www.w3.org/2000/svg">
<path fill-rule="evenodd" clip-rule="evenodd" d="M115.015 56.9032C113.514 56.9032 112.288 56.4432 111.338 55.5232C110.419 54.5725 109.96 53.3152 109.96 51.7512V38.8712H106.841L106.846 38.8853C106.87 38.947 106.893 39.0091 106.916 39.0717C107.022 39.366 106.849 39.6807 106.55 39.7727L102.615 40.9847C102.129 41.1342 101.631 40.8288 101.441 40.3576C101.16 39.6576 100.744 39.1315 100.194 38.7792C99.4589 38.2885 98.5398 38.0432 97.4368 38.0432C96.3339 38.0432 95.4914 38.2425 94.9093 38.6412C94.3272 39.0092 94.0361 39.5305 94.0361 40.2052C94.0361 40.9412 94.3425 41.4932 94.9553 41.8612C95.568 42.1985 96.3952 42.4592 97.4368 42.6432L98.7236 42.8732C100.439 43.1798 101.986 43.5938 103.365 44.1152C104.774 44.6058 105.877 45.3265 106.674 46.2772C107.501 47.1972 107.915 48.4545 107.915 50.0492C107.915 52.4411 107.042 54.2965 105.295 55.6151C103.58 56.9031 101.266 57.5471 98.3559 57.5471C95.3842 57.5471 92.9485 56.9031 91.049 55.6151C89.7143 54.7101 88.7502 53.5325 88.1567 52.0823C88.1406 52.11 88.1243 52.1376 88.108 52.1651C87.0663 53.913 85.6417 55.247 83.8341 56.167C82.0265 57.087 79.9892 57.547 77.722 57.547C75.4549 57.547 73.4176 57.087 71.61 56.167C69.8024 55.247 68.3778 53.913 67.3361 52.1651C67.1312 51.8211 66.9464 51.4635 66.7818 51.0923C66.6304 51.4226 66.4629 51.7419 66.2792 52.0502C65.2375 53.7982 63.8129 55.1322 62.0053 56.0522C60.1977 56.9722 58.1604 57.4322 55.8932 57.4322C53.6261 57.4322 51.5888 56.9722 49.7812 56.0522C48.6742 55.4888 47.7109 54.7701 46.8912 53.8962L50.8982 49.8853C51.0729 50.1329 51.2674 50.3638 51.4815 50.5782C52.6457 51.7129 54.1163 52.2802 55.8932 52.2802C57.6702 52.2802 59.1408 51.7129 60.305 50.5782C61.4692 49.4129 62.0513 47.7569 62.0513 45.6102V45.1502C62.0513 43.0787 61.5092 41.4783 60.425 40.3492L64.3996 36.3708C65.1245 37.0442 65.7511 37.824 66.2792 38.7102C66.4841 39.0542 66.6689 39.4117 66.8335 39.783C66.9849 39.4527 67.1524 39.1334 67.3361 38.8251C68.3778 37.0771 69.8024 35.7431 71.61 34.8231C73.4176 33.9031 75.4549 33.4431 77.722 33.4431C79.9892 33.4431 82.0265 33.9031 83.8341 34.8231C85.6417 35.7431 87.0663 37.0771 88.108 38.8251C88.2416 39.0494 88.3667 39.2795 88.4832 39.5154C88.6906 37.7141 89.4999 36.3034 90.9112 35.2832C92.5656 34.0565 94.7408 33.4432 97.4368 33.4432C99.9797 33.4432 102.094 34.0105 103.779 35.1452C103.997 35.2923 104.206 35.4453 104.405 35.6042L105.92 34.0872H109.96V27.6226C109.96 27.1459 110.346 26.7594 110.823 26.7594H114.887C115.364 26.7594 115.75 27.1459 115.75 27.6226V34.0872H121.137C121.614 34.0872 122 34.4737 122 34.9504V38.008C122 38.4847 121.614 38.8712 121.137 38.8712H115.75V50.7392C115.75 51.6592 116.179 52.1192 117.037 52.1192H120.585C121.062 52.1192 121.449 52.5056 121.449 52.9824V56.04C121.449 56.5167 121.062 56.9032 120.585 56.9032H115.015ZM92.0493 48.944L89.17 49.6893C89.5036 48.5269 89.6704 47.2514 89.6704 45.8631V45.1271C89.6704 44.8068 89.6616 44.4925 89.6438 44.1842C90.4381 45.124 91.4886 45.8676 92.7953 46.4152C94.1127 46.9365 95.568 47.3505 97.1611 47.6572L98.4479 47.8872C99.7959 48.1325 100.776 48.4545 101.389 48.8532C102.002 49.2212 102.308 49.7578 102.308 50.4632C102.308 51.1685 101.986 51.7665 101.343 52.2571C100.7 52.7171 99.704 52.9471 98.3559 52.9471C97.4675 52.9471 96.6403 52.8245 95.8744 52.5792C95.1391 52.3032 94.511 51.8585 93.9902 51.2452C93.6437 50.8116 93.3661 50.2632 93.1574 49.5999C93.0086 49.127 92.5293 48.8197 92.0493 48.944ZM56.5764 38.5094C56.3543 38.4899 56.1266 38.4802 55.8932 38.4802C54.1163 38.4802 52.6457 39.0629 51.4815 40.2282C50.3173 41.3629 49.7352 43.0035 49.7352 45.1502V45.3572L38.2812 56.8223C36.9772 57.2289 35.5716 57.4322 34.0644 57.4322C31.7973 57.4322 29.7599 56.9722 27.9524 56.0522C26.1448 55.1322 24.7202 53.7982 23.6785 52.0502C23.4754 51.7093 23.292 51.3549 23.1285 50.9872C22.964 51.4135 22.7758 51.8215 22.5641 52.2112C21.6143 53.9592 20.3582 55.2932 18.7957 56.2132C17.2333 57.1025 15.5329 57.5472 13.6947 57.5472C11.642 57.5472 10.0642 57.1945 8.9613 56.4892C7.85837 55.7838 7.04649 55.0018 6.52566 54.1432H5.69846V56.04C5.69846 56.5167 5.31199 56.9032 4.83526 56.9032H0.863206C0.38647 56.9032 0 56.5167 0 56.04V27.6226C0 27.1459 0.386471 26.7594 0.863208 26.7594H4.92717C5.4039 26.7594 5.79038 27.1459 5.79038 27.6226V36.7092H6.61757C6.95458 36.1572 7.39881 35.6359 7.95028 35.1452C8.53238 34.6546 9.28298 34.2559 10.2021 33.9492C11.1518 33.6119 12.316 33.4432 13.6947 33.4432C15.5329 33.4432 17.2333 33.9032 18.7957 34.8232C20.3582 35.7126 21.6143 37.0312 22.5641 38.7792C22.7557 39.1318 22.9279 39.4994 23.0809 39.882C23.2562 39.4752 23.4554 39.0846 23.6785 38.7102C24.7202 36.9622 26.1448 35.6282 27.9524 34.7082C29.7599 33.7882 31.7973 33.3282 34.0644 33.3282C36.3316 33.3282 38.3689 33.7882 40.1765 34.7082C41.9841 35.6282 43.4087 36.9622 44.4503 38.7102C44.6446 39.0362 44.8208 39.3745 44.9788 39.7251C45.1369 39.3745 45.313 39.0362 45.5073 38.7102C46.549 36.9622 47.9736 35.6282 49.7812 34.7082C51.5888 33.7882 53.6261 33.3282 55.8932 33.3282C57.7004 33.3282 59.3615 33.6205 60.8766 34.205L56.5764 38.5094ZM38.4762 50.5782C37.3119 51.7128 35.8414 52.2802 34.0644 52.2802C32.2875 52.2802 30.8169 51.7128 29.6527 50.5782C28.4885 49.4129 27.9064 47.7569 27.9064 45.6102V45.1502C27.9064 43.0035 28.4885 41.3629 29.6527 40.2282C30.8169 39.0629 32.2875 38.4802 34.0644 38.4802C35.872 38.4802 37.3426 39.0629 38.4762 40.2282C39.6404 41.3629 40.2225 43.0035 40.2225 45.1502V45.6102C40.2225 47.7569 39.6404 49.4129 38.4762 50.5782ZM82.1338 50.6931C80.9696 51.8277 79.499 52.3951 77.722 52.3951C75.9451 52.3951 74.4745 51.8277 73.3103 50.6931C72.1461 49.5277 71.564 47.8717 71.564 45.7251V45.2651C71.564 43.1184 72.1461 41.4777 73.3103 40.3431C74.4745 39.1778 75.9451 38.5951 77.722 38.5951C79.5296 38.5951 81.0002 39.1778 82.1338 40.3431C83.298 41.4777 83.8801 43.1184 83.8801 45.2651V45.7251C83.8801 47.8717 83.298 49.5277 82.1338 50.6931ZM16.4061 50.7852C15.2112 51.9198 13.7253 52.4872 11.9484 52.4872C10.1715 52.4872 8.68556 51.9198 7.49072 50.7852C6.29589 49.6199 5.69846 47.9332 5.69846 45.7252V45.2652C5.69846 43.0572 6.29589 41.3859 7.49072 40.2512C8.68556 39.0859 10.1715 38.5032 11.9484 38.5032C13.756 38.5032 15.2419 39.0859 16.4061 40.2512C17.6009 41.3859 18.1983 43.0572 18.1983 45.2652V45.7252C18.1983 47.9332 17.6009 49.6199 16.4061 50.7852Z" fill="white"/>
<path fill-rule="evenodd" clip-rule="evenodd" d="M95.1673 2.94951C90.6788 1.88863 85.7652 3.10973 82.2679 6.60707C81.8457 7.02932 81.457 7.47171 81.1017 7.93101C80.7819 8.34441 80.2443 8.52401 79.7403 8.38581C78.1287 7.94396 76.3375 8.35724 75.0755 9.61926C75.0334 9.6613 74.9923 9.7039 74.9522 9.74703L78.8687 12.3985C79.1751 12.606 79.3777 12.9351 79.4249 13.3021C79.591 14.5931 80.1688 15.8391 81.1613 16.8317C82.1695 17.8399 83.4395 18.4203 84.7525 18.5757C85.1245 18.6197 85.459 18.8233 85.669 19.1335L88.3863 23.1472C88.4234 23.1124 88.4601 23.0768 88.4963 23.0406C89.7582 21.7787 90.1716 19.9877 89.7299 18.3763C89.5918 17.8723 89.7715 17.3347 90.1849 17.015C90.6444 16.6595 91.0871 16.2706 91.5096 15.8482C95.0067 12.351 96.2279 7.43786 95.1673 2.94951ZM80.4436 4.78279C84.8149 0.41156 91.0466 -0.961732 96.5843 0.656234C97.0068 0.7797 97.3373 1.11015 97.4607 1.53273C99.0782 7.07011 97.7049 13.3014 93.3339 17.6724C93.0305 17.9758 92.718 18.2649 92.3972 18.5396C92.7357 20.7753 92.045 23.1404 90.3206 24.8648C89.8255 25.36 89.2758 25.7712 88.6899 26.0972C88.1055 26.4224 87.3694 26.247 86.9945 25.6932L83.8476 21.0451C82.1952 20.7311 80.615 19.934 79.337 18.656C78.0794 17.3983 77.2874 15.848 76.9632 14.2241L72.4111 11.1422C71.8589 10.7684 71.6827 10.0353 72.0046 9.45129C72.3329 8.85588 72.7488 8.29734 73.2512 7.79499C74.9758 6.07038 77.3413 5.37971 79.5773 5.71852C79.8518 5.39805 80.1406 5.08586 80.4436 4.78279ZM91.5489 8.74873C91.5489 9.88304 90.6293 10.8026 89.495 10.8026C88.3607 10.8026 87.4412 9.88304 87.4412 8.74873C87.4412 7.61443 88.3607 6.6949 89.495 6.6949C90.6293 6.6949 91.5489 7.61443 91.5489 8.74873ZM81.0945 25.2393C81.5982 24.7356 81.5982 23.9188 81.0945 23.4151C80.5907 22.9113 79.774 22.9113 79.2702 23.4151L76.6839 26.0014C76.1801 26.5051 76.1801 27.3219 76.6839 27.8256C77.1877 28.3294 78.0044 28.3294 78.5082 27.8256L81.0945 25.2393ZM77.3443 20.6487C77.8481 21.1525 77.8481 21.9693 77.3443 22.473L69.82 29.9973C69.3163 30.5011 68.4995 30.5011 67.9957 29.9973C67.492 29.4936 67.492 28.6768 67.9957 28.1731L75.5201 20.6487C76.0238 20.145 76.8406 20.145 77.3443 20.6487ZM74.578 18.7231C75.0818 18.2194 75.0818 17.4026 74.578 16.8989C74.0743 16.3951 73.2575 16.3951 72.7538 16.8989L68.0511 21.6016C67.5473 22.1053 67.5473 22.9221 68.0511 23.4258C68.5548 23.9296 69.3716 23.9296 69.8753 23.4258L74.578 18.7231Z" fill="white"/>
</svg>
