<svg width="120" height="111" viewBox="0 0 120 111" fill="none" xmlns="http://www.w3.org/2000/svg">
<path fill-rule="evenodd" clip-rule="evenodd" d="M56.3904 0.0968676C38.1475 1.03338 22.1273 9.20277 16.1945 20.5945C15.3859 22.1477 14.1472 25.1585 14.2676 25.2793C14.2835 25.2953 14.714 25.1993 15.2242 25.0655C16.3255 24.7773 17.2336 24.6348 19.3644 24.416C21.3153 24.2155 21.2978 24.2205 22.9397 23.4273C24.5884 22.631 25.085 22.4931 26.0276 22.5697C28.8645 22.7999 30.5239 23.5271 34.0244 26.076C38.5013 29.3356 40.981 30.0949 44.6975 29.3452C47.4441 28.7913 49.4341 27.883 55.4595 24.4328C62.6785 20.2995 67.9716 18.3708 75.6689 17.0691C77.9079 16.6903 81.5254 16.8492 82.0223 17.3482C82.2493 17.5761 80.4605 18.4333 78.8771 18.8556C72.141 20.6521 69.0103 21.7784 65.4137 23.6987C64.4897 24.1923 62.6094 25.2965 62.6094 25.3457C62.6094 25.3556 63.5513 24.9843 64.7027 24.5212C71.5469 21.7681 78.4303 20.0818 85.6549 19.3881C89.559 19.0134 91.4431 19.3923 93.1669 20.899C93.5075 21.1963 93.4483 21.2104 88.7033 21.9632C83.6756 22.761 81.8898 23.2218 76.7945 25.0381C72.8969 26.427 67.7757 28.4109 67.9428 28.4666C68.0669 28.5081 70.4471 27.8849 73.6622 26.9694C82.4896 24.4553 84.3494 24.0573 90.573 23.3503C97.5042 22.5628 100.127 22.5845 101.302 23.4387C101.851 23.8385 102.467 24.6561 102.326 24.7979C102.245 24.8799 98.8336 25.5332 94.9626 26.2082C87.6024 27.4923 86.6492 27.7176 80.3307 29.6646C76.7174 30.7776 71.9524 32.3186 72.1088 32.3235C72.3343 32.3308 75.9771 31.6317 81.2349 30.5725C95.0704 27.7855 100.748 27.1257 105.531 27.7504C106.134 27.8293 106.641 27.883 106.657 27.8705C106.728 27.8137 106.208 25.8034 105.809 24.5959C100.712 9.1536 79.9989 -1.11484 56.3904 0.0968676ZM14.0113 26.8657C13.0968 33.3595 14.7698 39.3578 18.9612 44.6118C30.5728 59.1682 57.3038 65.0476 80.1678 58.0743C93.1233 54.1232 103.153 45.6146 105.647 36.4603C106.341 33.9126 106.866 29.2807 106.445 29.4153C106.367 29.4401 105.963 29.5925 105.548 29.7538C103.799 30.4334 101.83 30.8889 98.476 31.3897C96.0316 31.7545 95.2014 31.9569 92.2809 32.898C91.0073 33.3085 89.5988 33.7384 89.1513 33.8531L88.3377 34.062L86.9555 33.9538C80.6697 33.4613 75.0869 34.4028 70.5253 36.724C69.9942 36.9947 69.596 37.2173 69.6408 37.2188C69.7509 37.2234 71.7424 36.7004 74.1117 36.0448C79.6921 34.5003 83.8506 34.2896 89.1873 35.2798L90.1186 35.4525L89.8479 35.6797C89.3191 36.1229 88.6327 36.4081 87.0166 36.8552C83.9451 37.7055 81.241 38.7125 76.2262 40.8741C64.7102 45.8379 59.5603 47.1937 52.1636 47.2094C41.9187 47.2311 35.7388 43.7324 26.5906 32.7318C24.2111 29.8708 22.5962 28.1754 21.5753 27.4672C20.9881 27.0593 19.1256 26.6637 16.8023 26.4525C15.7739 26.3592 14.7466 26.2612 14.5196 26.2345L14.107 26.1865L14.0113 26.8657ZM9.91781 67.1898C7.9506 67.4162 5.68765 68.3241 4.1775 69.4927C-0.35826 73.0028 -1.36958 80.2757 1.97909 85.3032C5.58363 90.7146 14.0815 91.6114 19.3914 87.1408C20.0037 86.6255 19.8511 86.0655 18.7149 84.6553C18.4677 84.3488 18.1917 83.9959 18.1014 83.8712L17.9378 83.6444L16.7894 84.4247C14.5041 85.9771 12.6898 86.5176 10.5708 86.2756C3.90114 85.5148 1.66818 76.0837 7.2164 72.1082C9.87188 70.2059 13.1655 70.3919 16.8961 72.6544C17.724 73.1564 17.5388 73.2902 18.6177 71.4134C19.6017 69.7016 19.5762 69.9554 18.8143 69.4542C16.1642 67.7112 12.8087 66.8574 9.91781 67.1898ZM58.4183 67.609C58.3967 67.6666 58.3887 68.4468 58.4009 69.3433L58.4229 70.9735L62.0153 70.9758C63.9912 70.977 65.6373 71.0078 65.6734 71.0437C65.7094 71.0799 65.7398 74.7886 65.7409 79.2851C65.7421 83.7816 65.7747 87.9664 65.8138 88.5843L65.8848 89.7079L67.7222 89.6862L69.5596 89.6641L69.6298 89.1339C69.6685 88.8419 69.7054 84.6366 69.7114 79.7882L69.7221 70.9735L73.3395 70.9678L76.957 70.9621L76.979 69.2335L77.001 67.5046H67.7294C60.2785 67.5046 58.4506 67.5252 58.4183 67.609ZM105.286 78.5639V89.6233H107.298H109.311L109.314 85.5628C109.317 80.9386 109.358 80.4263 109.793 79.5435C110.944 77.2097 114.014 76.203 115.566 77.6507L115.932 77.9926L116.076 78.9314C116.202 79.7505 116.22 80.4884 116.22 84.7261V89.5825L118.11 89.6046L120 89.6263L119.998 84.6259C119.995 79.1582 119.922 77.0229 119.713 76.3197C119.19 74.5618 117.269 73.3813 114.919 73.3748C112.959 73.3691 111.889 73.7933 110.105 75.2848C109.693 75.6294 109.33 75.9115 109.3 75.9115C109.269 75.9115 109.266 74.7859 109.293 73.4103C109.32 72.0347 109.32 70.143 109.293 69.2069L109.244 67.5046H107.265H105.286V78.5639ZM54.5868 73.3924C50.0996 73.7747 47.0178 77.4113 47.2695 82.0268C47.6157 88.3689 53.4373 91.6713 59.8302 89.1514C60.5313 88.8751 62.2841 87.9607 62.2841 87.8715C62.2841 87.8555 62.1436 87.5913 61.972 87.2841C61.8004 86.9773 61.4523 86.3518 61.1983 85.8948L60.7367 85.0639L59.7831 85.5148C56.3911 87.1195 54.211 87.0314 52.5922 85.2239C52.0213 84.5859 51.0916 82.7148 51.2613 82.5444C51.2916 82.5139 53.8116 82.4842 56.8611 82.4788L62.4059 82.4689L62.385 81.455C62.2844 76.6402 60.0682 73.708 56.3091 73.4175C55.9963 73.3931 55.6486 73.3634 55.537 73.3512C55.4254 73.3386 54.9975 73.3573 54.5868 73.3924ZM79.8076 73.3954C75.8014 73.6958 73.0016 76.5994 72.6034 80.8673C71.8901 88.5111 79.6534 92.4999 86.976 88.2519C87.2554 88.0899 87.484 87.9325 87.484 87.9024C87.484 87.8337 86.1078 85.1984 86.027 85.1115C85.9943 85.0768 85.4947 85.2861 84.9169 85.5765C82.3659 86.8599 80.8773 86.991 79.0047 86.0972C77.9026 85.5716 77.3893 84.9015 76.5644 82.9122C76.3807 82.4685 76.1434 82.4868 82.0986 82.4842L87.5652 82.4819V81.4379C87.5652 75.9118 84.7784 73.0226 79.8076 73.3954ZM26.4774 73.5086C25.2342 73.7434 22.0453 75.007 22.0453 75.265C22.0453 75.3142 23.2559 77.4456 23.5566 77.9266L23.6686 78.1054L24.7471 77.5874C26.8388 76.5827 28.1448 76.3624 29.2635 76.8259C30.4517 77.3183 30.7304 77.7231 30.9415 79.2618L30.9923 79.6327L29.2954 79.7314C24.2153 80.0261 21.6847 81.4394 21.1786 84.2649C20.2759 89.3077 26.3469 91.8893 30.7235 88.3235C31.0033 88.096 31.2489 87.9096 31.2694 87.9096C31.2903 87.9096 31.3173 88.3041 31.3302 88.7866C31.3503 89.5623 31.3697 89.6633 31.4953 89.6576C31.5735 89.6538 32.3874 89.6446 33.3042 89.637L34.9704 89.6233L34.9693 84.5428C34.9674 78.147 34.9051 77.5466 34.0988 76.1584C32.8521 74.0114 29.6712 72.9052 26.4774 73.5086ZM46.4324 73.424C46.3656 73.4373 46.0361 73.4922 45.7009 73.546C43.9987 73.8193 42.9391 74.5355 41.6769 76.2663L41.2707 76.8236L41.213 76.3471C41.1811 76.0853 41.1321 75.4072 41.1036 74.8404L41.052 73.8101L40.6329 73.7598C40.4025 73.732 39.5646 73.7087 38.7708 73.7083L37.3279 73.7076V81.6654V89.6233L39.1163 89.6382C40.0999 89.6462 40.9871 89.6553 41.0877 89.6584L41.2707 89.6641V86.032C41.2707 82.0961 41.2912 81.861 41.7585 80.4816C42.3803 78.6459 43.676 77.7704 46.5342 77.2543L46.839 77.199V75.2902C46.839 73.2262 46.8637 73.3394 46.4324 73.424ZM95.7351 73.5852C91.1963 74.6605 88.5947 78.7656 89.4766 83.4611C90.4693 88.747 96.1425 91.4197 101.681 89.2105C102.737 88.7897 104.392 87.8402 104.392 87.6557C104.392 87.5452 103.017 84.8077 102.962 84.8077C102.936 84.8077 102.458 85.0703 101.898 85.3909C99.8635 86.558 98.4866 86.8915 97.0775 86.558C92.0357 85.365 92.0467 77.9164 97.0919 76.8388C98.2087 76.6002 98.9775 76.7569 100.99 77.6324C101.6 77.8981 102.155 78.1153 102.223 78.1153C102.456 78.1153 103.06 77.3149 103.558 76.3475L104.058 75.3771L103.392 74.9955C100.86 73.5448 98.0728 73.0314 95.7351 73.5852ZM56.4511 76.6063C56.967 76.7885 57.5665 77.3458 57.8721 77.9263C58.0771 78.3154 58.5448 79.6217 58.5448 79.8042C58.5448 79.8523 51.3744 79.7562 51.325 79.7078C51.2074 79.5919 52.2714 77.8256 52.7441 77.3522C53.6077 76.4878 55.2056 76.1661 56.4511 76.6063ZM81.7543 76.6379C82.6536 77.0366 83.7446 78.7324 83.7446 79.7314C83.7446 79.8027 83.4307 79.829 82.5792 79.829C80.2115 79.829 76.5098 79.7189 76.5098 79.6483C76.5098 79.4517 77.4972 77.8645 77.8775 77.4502C78.7803 76.466 80.5368 76.0978 81.7543 76.6379ZM31.0291 82.8276C30.7357 85.1847 29.4222 86.8362 27.7173 86.9914C25.5584 87.1881 24.1917 84.9392 25.6358 83.5663C26.5048 82.7407 27.7424 82.4434 30.6104 82.3713L31.0872 82.3592L31.0291 82.8276Z" fill="white"/>
<path d="M29.062 100.3V108H27.28V104.843H23.782V108H22V100.3H23.782V103.336H27.28V100.3H29.062Z" fill="#FCFCFC"/>
<path d="M33.5788 108.088C32.9555 108.088 32.3945 107.959 31.8958 107.703C31.4045 107.439 31.0195 107.076 30.7408 106.614C30.4621 106.152 30.3228 105.627 30.3228 105.041C30.3228 104.454 30.4621 103.93 30.7408 103.468C31.0195 103.006 31.4045 102.646 31.8958 102.39C32.3945 102.126 32.9555 101.994 33.5788 101.994C34.2021 101.994 34.7595 102.126 35.2508 102.39C35.7421 102.646 36.1271 103.006 36.4058 103.468C36.6845 103.93 36.8238 104.454 36.8238 105.041C36.8238 105.627 36.6845 106.152 36.4058 106.614C36.1271 107.076 35.7421 107.439 35.2508 107.703C34.7595 107.959 34.2021 108.088 33.5788 108.088ZM33.5788 106.68C34.0188 106.68 34.3781 106.533 34.6568 106.24C34.9428 105.939 35.0858 105.539 35.0858 105.041C35.0858 104.542 34.9428 104.146 34.6568 103.853C34.3781 103.552 34.0188 103.402 33.5788 103.402C33.1388 103.402 32.7758 103.552 32.4898 103.853C32.2038 104.146 32.0608 104.542 32.0608 105.041C32.0608 105.539 32.2038 105.939 32.4898 106.24C32.7758 106.533 33.1388 106.68 33.5788 106.68Z" fill="#FCFCFC"/>
<path d="M37.9708 99.8378H39.6868V108H37.9708V99.8378Z" fill="#FCFCFC"/>
<path d="M47.3074 99.8378V108H45.6684V107.318C45.2431 107.831 44.6271 108.088 43.8204 108.088C43.2631 108.088 42.7571 107.963 42.3024 107.714C41.8551 107.464 41.5031 107.109 41.2464 106.647C40.9897 106.185 40.8614 105.649 40.8614 105.041C40.8614 104.432 40.9897 103.897 41.2464 103.435C41.5031 102.973 41.8551 102.617 42.3024 102.368C42.7571 102.118 43.2631 101.994 43.8204 101.994C44.5757 101.994 45.1661 102.232 45.5914 102.709V99.8378H47.3074ZM44.1174 106.68C44.5501 106.68 44.9094 106.533 45.1954 106.24C45.4814 105.939 45.6244 105.539 45.6244 105.041C45.6244 104.542 45.4814 104.146 45.1954 103.853C44.9094 103.552 44.5501 103.402 44.1174 103.402C43.6774 103.402 43.3144 103.552 43.0284 103.853C42.7424 104.146 42.5994 104.542 42.5994 105.041C42.5994 105.539 42.7424 105.939 43.0284 106.24C43.3144 106.533 43.6774 106.68 44.1174 106.68Z" fill="#FCFCFC"/>
<path d="M48.8956 102.082H50.6116V108H48.8956V102.082ZM49.7536 101.257C49.4383 101.257 49.1816 101.165 48.9836 100.982C48.7856 100.798 48.6866 100.571 48.6866 100.3C48.6866 100.028 48.7856 99.8011 48.9836 99.6178C49.1816 99.4344 49.4383 99.3428 49.7536 99.3428C50.0689 99.3428 50.3256 99.4308 50.5236 99.6068C50.7216 99.7828 50.8206 100.003 50.8206 100.267C50.8206 100.553 50.7216 100.791 50.5236 100.982C50.3256 101.165 50.0689 101.257 49.7536 101.257Z" fill="#FCFCFC"/>
<path d="M55.8012 101.994C56.5345 101.994 57.1249 102.214 57.5722 102.654C58.0269 103.094 58.2542 103.746 58.2542 104.612V108H56.5382V104.876C56.5382 104.406 56.4355 104.058 56.2302 103.831C56.0249 103.596 55.7279 103.479 55.3392 103.479C54.9065 103.479 54.5619 103.614 54.3052 103.886C54.0485 104.15 53.9202 104.546 53.9202 105.074V108H52.2042V102.082H53.8432V102.775C54.0705 102.525 54.3529 102.335 54.6902 102.203C55.0275 102.063 55.3979 101.994 55.8012 101.994Z" fill="#FCFCFC"/>
<path d="M65.9791 102.082V107.01C65.9791 108.095 65.6968 108.902 65.1321 109.43C64.5675 109.958 63.7425 110.222 62.6571 110.222C62.0851 110.222 61.5424 110.152 61.0291 110.013C60.5158 109.873 60.0905 109.672 59.7531 109.408L60.4351 108.176C60.6845 108.381 60.9998 108.542 61.3811 108.66C61.7625 108.784 62.1438 108.847 62.5251 108.847C63.1191 108.847 63.5554 108.711 63.8341 108.44C64.1201 108.176 64.2631 107.772 64.2631 107.23V106.977C63.8158 107.468 63.1925 107.714 62.3931 107.714C61.8505 107.714 61.3518 107.596 60.8971 107.362C60.4498 107.12 60.0941 106.782 59.8301 106.35C59.5661 105.917 59.4341 105.418 59.4341 104.854C59.4341 104.289 59.5661 103.79 59.8301 103.358C60.0941 102.925 60.4498 102.591 60.8971 102.357C61.3518 102.115 61.8505 101.994 62.3931 101.994C63.2511 101.994 63.9038 102.276 64.3511 102.841V102.082H65.9791ZM62.7341 106.306C63.1888 106.306 63.5591 106.174 63.8451 105.91C64.1384 105.638 64.2851 105.286 64.2851 104.854C64.2851 104.421 64.1384 104.073 63.8451 103.809C63.5591 103.537 63.1888 103.402 62.7341 103.402C62.2794 103.402 61.9054 103.537 61.6121 103.809C61.3188 104.073 61.1721 104.421 61.1721 104.854C61.1721 105.286 61.3188 105.638 61.6121 105.91C61.9054 106.174 62.2794 106.306 62.7341 106.306Z" fill="#FCFCFC"/>
<path d="M69.5673 108.088C69.0759 108.088 68.5956 108.029 68.1263 107.912C67.6569 107.787 67.2829 107.633 67.0043 107.45L67.5763 106.218C67.8403 106.386 68.1593 106.526 68.5333 106.636C68.9073 106.738 69.2739 106.79 69.6333 106.79C70.3593 106.79 70.7223 106.61 70.7223 106.251C70.7223 106.082 70.6233 105.961 70.4253 105.888C70.2273 105.814 69.9229 105.752 69.5123 105.701C69.0283 105.627 68.6286 105.543 68.3133 105.448C67.9979 105.352 67.7229 105.184 67.4883 104.942C67.2609 104.7 67.1473 104.355 67.1473 103.908C67.1473 103.534 67.2536 103.204 67.4663 102.918C67.6863 102.624 68.0016 102.397 68.4123 102.236C68.8303 102.074 69.3216 101.994 69.8863 101.994C70.3043 101.994 70.7186 102.041 71.1293 102.137C71.5473 102.225 71.8919 102.349 72.1633 102.511L71.5913 103.732C71.0706 103.438 70.5023 103.292 69.8863 103.292C69.5196 103.292 69.2446 103.343 69.0613 103.446C68.8779 103.548 68.7863 103.68 68.7863 103.842C68.7863 104.025 68.8853 104.153 69.0833 104.227C69.2813 104.3 69.5966 104.37 70.0293 104.436C70.5133 104.516 70.9093 104.604 71.2173 104.7C71.5253 104.788 71.7929 104.953 72.0203 105.195C72.2476 105.437 72.3613 105.774 72.3613 106.207C72.3613 106.573 72.2513 106.9 72.0313 107.186C71.8113 107.472 71.4886 107.695 71.0633 107.857C70.6453 108.011 70.1466 108.088 69.5673 108.088Z" fill="#FCFCFC"/>
<path d="M79.9893 100.3C80.6713 100.3 81.2616 100.413 81.7602 100.641C82.2662 100.868 82.6549 101.191 82.9262 101.609C83.1976 102.027 83.3333 102.522 83.3333 103.094C83.3333 103.658 83.1976 104.153 82.9262 104.579C82.6549 104.997 82.2662 105.319 81.7602 105.547C81.2616 105.767 80.6713 105.877 79.9893 105.877H78.4382V108H76.6562V100.3H79.9893ZM79.8903 104.425C80.4256 104.425 80.8326 104.311 81.1113 104.084C81.3899 103.849 81.5293 103.519 81.5293 103.094C81.5293 102.661 81.3899 102.331 81.1113 102.104C80.8326 101.869 80.4256 101.752 79.8903 101.752H78.4382V104.425H79.8903Z" fill="#FCFCFC"/>
<path d="M84.6055 100.3H86.3875V106.548H90.2485V108H84.6055V100.3Z" fill="#FCFCFC"/>
<path d="M94.8002 108.132C94.0156 108.132 93.3042 107.963 92.6662 107.626C92.0356 107.281 91.5369 106.808 91.1702 106.207C90.8109 105.598 90.6312 104.912 90.6312 104.15C90.6312 103.387 90.8109 102.705 91.1702 102.104C91.5369 101.495 92.0356 101.022 92.6662 100.685C93.3042 100.34 94.0192 100.168 94.8112 100.168C95.4786 100.168 96.0799 100.285 96.6152 100.52C97.1579 100.754 97.6126 101.092 97.9792 101.532L96.8352 102.588C96.3146 101.986 95.6692 101.686 94.8992 101.686C94.4226 101.686 93.9972 101.792 93.6232 102.005C93.2492 102.21 92.9559 102.5 92.7432 102.874C92.5379 103.248 92.4352 103.673 92.4352 104.15C92.4352 104.626 92.5379 105.052 92.7432 105.426C92.9559 105.8 93.2492 106.093 93.6232 106.306C93.9972 106.511 94.4226 106.614 94.8992 106.614C95.6692 106.614 96.3146 106.309 96.8352 105.701L97.9792 106.757C97.6126 107.204 97.1579 107.545 96.6152 107.78C96.0726 108.014 95.4676 108.132 94.8002 108.132Z" fill="#FCFCFC"/>
</svg>
