<svg width="120" height="20" viewBox="0 0 120 20" fill="none" xmlns="http://www.w3.org/2000/svg">
<g clip-path="url(#clip0_822_2)">
<path d="M115.39 19.5501H119.11V0.000116639H115.39V19.5501ZM109.57 19.5501H113.29V0.000116639H109.57V19.5501ZM100.72 17.2801C99.41 17.2801 98.53 16.8101 98.53 15.5001C98.53 14.1901 99.49 13.7501 101.43 13.3101C102.36 13.0901 103.37 12.8701 104.03 12.4901V14.6001C104.03 15.9701 102.86 17.2801 100.72 17.2801ZM104.44 19.5501H108.02V19.4101C107.69 19.1601 107.53 18.5301 107.53 17.4701V10.3301C107.53 7.05012 105.84 5.16012 101.62 5.16012C97.52 5.16012 95.69 7.32012 95.58 9.78012H98.89C99 8.44012 99.85 7.81012 101.6 7.81012C103.16 7.81012 103.95 8.47012 103.95 9.48012C103.95 10.5501 102.88 10.7401 100.56 11.0701C97.44 11.5101 94.93 12.4901 94.93 15.5801C94.93 18.3701 96.95 19.8701 99.82 19.8701C102.23 19.8701 103.24 19.0501 103.95 17.9801H104C104.09 18.6201 104.22 19.2801 104.44 19.5501V19.5501ZM79.21 19.5501H82.57L84.48 12.6601C84.78 11.5401 85.14 10.2301 85.14 10.2301H85.2C85.2 10.2301 85.53 11.5401 85.83 12.6601L87.69 19.5501H91.08L95.26 5.52012H91.65L89.87 12.0301C89.57 13.1801 89.24 14.6501 89.24 14.6501H89.18C89.18 14.6501 88.82 13.1701 88.52 12.0001L86.7 5.52012H83.53L81.78 12.0001C81.48 13.1501 81.18 14.6501 81.18 14.6501H81.12C81.12 14.6501 80.79 13.1701 80.49 12.0301L78.8 5.52012H75.11L79.21 19.5501V19.5501ZM60.31 0.000116639H56.6V19.5501H60.32V11.5901C60.32 9.68012 61.52 8.36012 63.16 8.36012C64.72 8.36012 65.59 9.43012 65.59 10.9301V19.5401H69.31V10.3801C69.31 7.32012 67.37 5.13012 64.47 5.13012C62.56 5.13012 61.41 5.87012 60.4 7.35012H60.32V0.000116639H60.31ZM47.21 7.98012H49.15V16.2101C49.15 18.8601 51.15 19.5701 52.95 19.5701C54.43 19.5701 55.27 19.5201 55.27 19.5201V16.7901C55.27 16.7901 54.64 16.8201 54.18 16.8201C53.36 16.8201 52.79 16.4601 52.79 15.4201V7.98012H55.2V5.52012H52.79V1.15012H49.15V5.52012H47.21V7.98012V7.98012ZM42.26 5.52012H38.68V19.5501H42.4V12.7101C42.4 9.76012 44.15 8.47012 46.58 8.72012H46.66V5.47012C46.45 5.39012 46.2 5.36012 45.79 5.36012C44.15 5.36012 43.19 6.18012 42.35 7.77012H42.27V5.52012H42.26ZM36.6 19.5501V5.52012H32.88V13.6101C32.88 15.4701 31.81 16.7801 30.06 16.7801C28.47 16.7801 27.74 15.8801 27.74 14.2401V5.52012H24.05V14.8701C24.05 17.9301 25.8 19.9301 28.92 19.9301C30.89 19.9301 31.98 19.1901 32.94 17.9101H33.02V19.5501H36.6V19.5501ZM15.49 17.1201C13.19 17.1201 11.93 15.2901 11.93 12.5501C11.93 9.82012 13.19 7.96012 15.49 7.96012C17.76 7.96012 19.04 9.82012 19.04 12.5501C19.04 15.2801 17.75 17.1201 15.49 17.1201ZM15.49 19.9601C19.84 19.9601 22.82 16.7301 22.82 12.5501C22.82 8.37012 19.84 5.14012 15.49 5.14012C11.14 5.14012 8.16 8.37012 8.16 12.5501C8.16 16.7301 11.14 19.9601 15.49 19.9601V19.9601ZM0 8.09012H1.91V19.5501H5.63V8.09012H8.15V5.52012H5.63V4.48012C5.63 3.03012 6.4 2.81012 8.15 2.89012V0.0301166C4.57 -0.349883 1.91 0.850117 1.91 4.27012V5.53012H0V8.09012V8.09012Z" fill="white"/>
</g>
<defs>
<clipPath id="clip0_822_2">
<rect width="119.11" height="19.96" fill="white"/>
</clipPath>
</defs>
</svg>
