<svg width="84" height="21" viewBox="0 0 84 21" fill="none" xmlns="http://www.w3.org/2000/svg">
<path d="M10.9673 7.53833H7.47266V11.033H10.9673V7.53833Z" fill="white"/>
<path d="M17.9563 11.0331V4.04375C17.9563 2.0891 16.4163 0.549072 14.4616 0.549072H3.97759C2.02294 0.549072 0.48291 2.0891 0.48291 4.04375V14.5278C0.48291 16.4824 2.02294 18.0225 3.97759 18.0225H10.967V14.5278H14.4616V11.0331H10.967V14.5278H3.97759V4.10298H14.4616V11.0923H17.9563V11.0331Z" fill="white"/>
<path d="M17.9561 14.5278H14.4614V18.0225H17.9561V14.5278Z" fill="white"/>
<path d="M38.7465 16.4231L41.3527 20.8063H37.9765L36.1403 17.7855C35.311 18.0224 34.4226 18.2001 33.4748 18.2001C28.2032 18.2001 24.8862 14.2316 24.8862 9.19684C24.8862 4.16214 28.2032 0.193604 33.4748 0.193604C38.7465 0.193604 42.0635 4.16214 42.0635 9.19684C42.1227 12.2177 40.8788 14.7646 38.7465 16.4231ZM34.541 15.0608L31.5794 10.1446H35.0149L37.1472 13.8169C38.2726 12.7508 38.865 11.0923 38.865 9.25607C38.865 5.82063 36.8511 3.27366 33.4748 3.27366C30.0986 3.27366 28.0847 5.82063 28.0847 9.25607C28.0847 12.6915 30.0986 15.1793 33.4748 15.1793C33.8895 15.12 34.2449 15.12 34.541 15.0608Z" fill="white"/>
<path d="M52.7256 17.7856H45.2031V0.608398H53.0217C56.161 0.608398 57.7603 2.74074 57.7603 4.81386C57.7603 6.23542 56.9903 7.83469 55.0356 8.54547C57.5826 9.37471 58.4711 11.2109 58.4711 12.8102C58.5303 15.2979 56.4572 17.7856 52.7256 17.7856ZM52.1333 7.47929C53.7325 7.47929 54.5025 6.41312 54.5025 5.46541C54.5025 4.5177 53.7325 3.62922 52.2517 3.62922H48.3424V7.53853H52.1333V7.47929ZM55.2725 12.3955C55.2725 11.2701 54.3841 10.204 52.6663 10.204H48.4016V14.7648H52.4294C54.3841 14.7648 55.2725 13.5209 55.2725 12.3955Z" fill="white"/>
<path d="M63.3872 12.3363C63.4465 14.4094 64.7495 15.3571 66.5857 15.3571C67.7704 15.3571 68.8365 14.9425 69.2512 13.9355H72.0943C71.4427 16.601 69.0142 18.0225 66.4673 18.0225C63.2687 18.0225 60.4849 15.8902 60.4849 11.507C60.4849 7.06462 63.328 4.87305 66.5857 4.87305C69.6658 4.87305 72.272 6.88693 72.272 11.0924V12.3363H63.3872ZM63.4465 10.1447H69.1919C69.1919 8.48619 68.1258 7.53848 66.4673 7.53848C65.0457 7.53848 63.7426 8.30849 63.4465 10.1447Z" fill="white"/>
<path d="M77.7801 0.312256H74.7593V17.7264H77.7801V0.312256Z" fill="white"/>
<path d="M83.9998 0.312256H80.979V17.7264H83.9998V0.312256Z" fill="white"/>
</svg>
