<svg width="135" height="38" viewBox="0 0 135 38" fill="none" xmlns="http://www.w3.org/2000/svg">
<path fill-rule="evenodd" clip-rule="evenodd" d="M28.844 11.3696L13.8965 3.36646C12.9336 2.85089 11.7637 2.9144 10.8622 3.5312L6.33651 6.62781C6.38773 6.65092 6.43881 6.67514 6.48973 6.70049L22.2692 14.5554C23.7099 15.2726 24.6207 16.7434 24.6207 18.3527V32.2095L29.4487 27.7486C30.0484 27.1946 30.3894 26.4153 30.3894 25.5989V13.9499C30.3894 12.8707 29.7955 11.879 28.844 11.3696ZM2.75311 29.1145C2.91795 29.2251 3.09032 29.3267 3.26972 29.4186L17.8362 36.8795C19.7367 37.8529 22.0426 37.5367 23.611 36.0877L30.9168 29.3375C31.9596 28.374 32.5527 27.0187 32.5527 25.5989V13.9499C32.5527 12.073 31.5198 10.3484 29.8652 9.46247L14.9176 1.45931C13.243 0.562665 11.2084 0.673132 9.64062 1.74582L2.71583 6.48393C2.33664 6.74338 1.99914 7.04943 1.70889 7.39155C0.88972 8.14932 0.357666 9.23529 0.357666 10.4978V25.2953C0.357666 26.9046 1.26844 28.3754 2.70916 29.0926L2.75311 29.1145ZM3.85999 27.2489L19.4526 35.0109C20.8344 35.6987 22.4573 34.6937 22.4573 33.1502V18.3527C22.4573 17.5641 22.0111 16.8435 21.3051 16.492L5.52569 8.63712C4.73772 8.24487 3.87131 8.40314 3.27218 8.89785C2.88253 9.40338 2.66336 10.0298 2.66336 10.6848V24.8882C2.66336 25.8297 3.11521 26.7033 3.85999 27.2489Z" fill="white"/>
<path d="M18.3425 27.9061C18.3425 27.7451 18.2513 27.5979 18.1071 27.5263L15.4976 26.2299C15.2157 26.0898 14.8847 26.2949 14.8847 26.6098V29.1149C14.8847 29.276 14.976 29.4231 15.1202 29.4948L17.7296 30.7911C18.0116 30.9312 18.3425 30.7261 18.3425 30.4113V27.9061Z" fill="white"/>
<path d="M9.12427 26.3391C9.12427 26.5006 9.21603 26.6482 9.36094 26.7196L12.408 28.2212C12.6899 28.3601 13.0197 28.1549 13.0197 27.8407L13.0197 20.0602C13.0197 19.8986 12.928 19.7511 12.7831 19.6797L9.73596 18.1781C9.45407 18.0392 9.12428 18.2443 9.12428 18.5586L9.12427 26.3391Z" fill="white"/>
<path d="M5.2688 16.5679C5.2688 16.729 5.36003 16.8762 5.5043 16.9478L17.7297 23.0194C18.0116 23.1594 18.3425 22.9543 18.3425 22.6395L18.3425 19.6753C18.3425 19.5142 18.2513 19.367 18.107 19.2954L5.88165 13.2238C5.59968 13.0838 5.2688 13.2889 5.2688 13.6038L5.2688 16.5679Z" fill="white"/>
<path d="M21.636 10.329C21.8955 10.1478 21.8724 9.75651 21.5933 9.6072L15.0516 6.1073C14.9108 6.03196 14.7396 6.0421 14.6087 6.13353L13.0861 7.19673C12.8266 7.37792 12.8497 7.76922 13.1288 7.91852L19.6705 11.4184C19.8113 11.4938 19.9825 11.4836 20.1135 11.3922L21.636 10.329Z" fill="white"/>
<path d="M48.5625 29.2399L46.8771 26.7225C46.4362 26.8078 45.9668 26.8505 45.4691 26.8505C44.061 26.8505 42.7668 26.5234 41.5863 25.8691C40.4059 25.2007 39.4743 24.2762 38.7916 23.0958C38.1089 21.9153 37.7676 20.5855 37.7676 19.1063C37.7676 17.6272 38.1089 16.2974 38.7916 15.1169C39.4743 13.9365 40.4059 13.0191 41.5863 12.3649C42.7668 11.6964 44.061 11.3622 45.4691 11.3622C46.8913 11.3622 48.1856 11.6964 49.3518 12.3649C50.5323 13.0191 51.4567 13.9365 52.1252 15.1169C52.8079 16.2974 53.1492 17.6272 53.1492 19.1063C53.1492 20.3579 52.9003 21.5099 52.4025 22.5624C51.9047 23.6007 51.215 24.4753 50.3332 25.1865L53.5546 29.2399H48.5625ZM42.0343 19.1063C42.0343 20.2726 42.3401 21.2042 42.9517 21.9011C43.5632 22.598 44.4024 22.9464 45.4691 22.9464C46.5215 22.9464 47.3535 22.598 47.9651 21.9011C48.5767 21.2042 48.8825 20.2726 48.8825 19.1063C48.8825 17.9117 48.5767 16.973 47.9651 16.2903C47.3678 15.5934 46.5357 15.2449 45.4691 15.2449C44.4024 15.2449 43.5632 15.5934 42.9517 16.2903C42.3401 16.973 42.0343 17.9117 42.0343 19.1063Z" fill="white"/>
<path d="M67.3162 14.7329V26.7012H63.1347V24.6958C62.7934 25.3358 62.2956 25.8478 61.6414 26.2318C60.9871 26.6158 60.2191 26.8078 59.3373 26.8078C57.9577 26.8078 56.8697 26.3527 56.0733 25.4425C55.291 24.518 54.8999 23.2593 54.8999 21.6664V14.7329H59.0813V21.1544C59.0813 21.8371 59.2591 22.3775 59.6147 22.7757C59.9845 23.1598 60.4751 23.3518 61.0867 23.3518C61.7125 23.3518 62.2103 23.1526 62.5801 22.7544C62.9498 22.3562 63.1347 21.7944 63.1347 21.069V14.7329H67.3162Z" fill="white"/>
<path d="M69.291 11.4262C69.291 10.8004 69.5186 10.2884 69.9737 9.89016C70.4288 9.47771 71.0262 9.27148 71.7657 9.27148C72.5053 9.27148 73.0955 9.47771 73.5364 9.89016C73.9773 10.2884 74.1978 10.8004 74.1978 11.4262C74.1978 12.0235 73.9702 12.5213 73.5151 12.9196C73.0742 13.3178 72.4911 13.5169 71.7657 13.5169C71.0262 13.5169 70.4288 13.3178 69.9737 12.9196C69.5186 12.5213 69.291 12.0235 69.291 11.4262ZM73.8351 14.7329V26.7012H69.6324V14.7329H73.8351Z" fill="white"/>
<path d="M81.6148 14.5836C83.165 14.5836 84.4664 15.0174 85.5188 15.8849C86.5713 16.7383 87.2326 17.9259 87.5029 19.4477H83.0655C82.9659 19.0352 82.781 18.7223 82.5108 18.509C82.2548 18.2814 81.9205 18.1677 81.5081 18.1677C80.9961 18.1677 80.5765 18.3881 80.2494 18.829C79.9365 19.2557 79.7801 19.8815 79.7801 20.7064C79.7801 21.5455 79.9365 22.1784 80.2494 22.6051C80.5765 23.0318 80.9961 23.2451 81.5081 23.2451C81.9205 23.2451 82.2548 23.1384 82.5108 22.9251C82.781 22.6975 82.9659 22.3775 83.0655 21.9651H87.5029C87.2326 23.4869 86.5713 24.6816 85.5188 25.5491C84.4664 26.4167 83.165 26.8505 81.6148 26.8505C80.4201 26.8505 79.3605 26.6087 78.436 26.1251C77.5258 25.6274 76.8147 24.9162 76.3027 23.9918C75.7906 23.0531 75.5346 21.958 75.5346 20.7064C75.5346 19.4548 75.7906 18.3668 76.3027 17.4423C76.8147 16.5178 77.5329 15.8138 78.4574 15.3303C79.3818 14.8325 80.4343 14.5836 81.6148 14.5836Z" fill="white"/>
<path d="M96.662 26.7012L93.398 21.7517V26.7012H89.1952V10.9142H93.398V19.3837L96.6834 14.7329H101.569L96.9181 20.7277L101.697 26.7012H96.662Z" fill="white"/>
<path d="M114.233 11.5969V14.9463H110.158V26.7012H105.977V14.9463H101.945V11.5969H114.233Z" fill="white"/>
<path d="M115.271 11.4262C115.271 10.8004 115.499 10.2884 115.954 9.89016C116.409 9.47771 117.006 9.27148 117.746 9.27148C118.485 9.27148 119.076 9.47771 119.516 9.89016C119.957 10.2884 120.178 10.8004 120.178 11.4262C120.178 12.0235 119.95 12.5213 119.495 12.9196C119.054 13.3178 118.471 13.5169 117.746 13.5169C117.006 13.5169 116.409 13.3178 115.954 12.9196C115.499 12.5213 115.271 12.0235 115.271 11.4262ZM119.815 14.7329V26.7012H115.612V14.7329H119.815Z" fill="white"/>
<path d="M129.878 14.5836C130.83 14.5836 131.691 14.8325 132.459 15.3303C133.227 15.8138 133.831 16.5178 134.272 17.4423C134.713 18.3668 134.934 19.4548 134.934 20.7064C134.934 21.958 134.713 23.0531 134.272 23.9918C133.831 24.9162 133.227 25.6274 132.459 26.1251C131.691 26.6087 130.83 26.8505 129.878 26.8505C129.038 26.8505 128.313 26.6727 127.701 26.3171C127.09 25.9474 126.635 25.4425 126.336 24.8025V32.4186H122.133V14.7329H126.336V16.6316C126.635 15.9916 127.09 15.4938 127.701 15.1383C128.313 14.7685 129.038 14.5836 129.878 14.5836ZM128.491 18.253C127.865 18.253 127.346 18.4734 126.933 18.9143C126.521 19.3552 126.315 19.9526 126.315 20.7064C126.315 21.4744 126.521 22.0788 126.933 22.5197C127.346 22.9606 127.865 23.1811 128.491 23.1811C129.145 23.1811 129.671 22.9677 130.07 22.5411C130.482 22.1002 130.688 21.4886 130.688 20.7064C130.688 19.9384 130.482 19.341 130.07 18.9143C129.671 18.4734 129.145 18.253 128.491 18.253Z" fill="white"/>
</svg>
