<?xml version="1.0" encoding="UTF-8" standalone="no"?>
<svg
   xmlns:dc="http://purl.org/dc/elements/1.1/"
   xmlns:cc="http://creativecommons.org/ns#"
   xmlns:rdf="http://www.w3.org/1999/02/22-rdf-syntax-ns#"
   xmlns:svg="http://www.w3.org/2000/svg"
   xmlns="http://www.w3.org/2000/svg"
   xmlns:sodipodi="http://sodipodi.sourceforge.net/DTD/sodipodi-0.dtd"
   xmlns:inkscape="http://www.inkscape.org/namespaces/inkscape"
   version="1.1"
   id="svg2"
   xml:space="preserve"
   width="990.85333"
   height="219.94667"
   viewBox="0 0 990.85333 219.94667"
   sodipodi:docname="New Tevalis Logo Transparent.eps"><metadata
     id="metadata8"><rdf:RDF><cc:Work
         rdf:about=""><dc:format>image/svg+xml</dc:format><dc:type
           rdf:resource="http://purl.org/dc/dcmitype/StillImage" /></cc:Work></rdf:RDF></metadata><defs
     id="defs6" /><sodipodi:namedview
     pagecolor="#ffffff"
     bordercolor="#666666"
     borderopacity="1"
     objecttolerance="10"
     gridtolerance="10"
     guidetolerance="10"
     inkscape:pageopacity="0"
     inkscape:pageshadow="2"
     inkscape:window-width="640"
     inkscape:window-height="480"
     id="namedview4" /><g
     id="g10"
     inkscape:groupmode="layer"
     inkscape:label="ink_ext_XXXXXX"
     transform="matrix(1.3333333,0,0,-1.3333333,0,219.94667)"><g
       id="g12"
       transform="scale(0.1)"><path
         d="m 2725.94,728.23 c 5.1,131.5 150.4,251.7 302.8,251.899 144.4,0.101 277.6,-116.899 284.7,-251.899 z m 715.9,242.301 c -120.2,181.899 -325.1,259.299 -534.5,210.299 -176.2,-41.3 -297.3,-149.2 -366.6,-314.498 -57.6,-137.402 -63.9,-279.602 -23.7,-422.402 47.3,-168.301 149.9,-290.899 313.7,-357.098 88.8,-35.9023 181.8,-46.1015 277.4,-34 135.9,17.1993 249.5,74.699 337.2,181 12.9,15.598 27.9,29.898 36.1,48.398 -40.5,35 -147.1,101.801 -179.7,112.602 -97,-127.703 -226,-156.402 -375.2,-113.801 -104.7,29.899 -193.2,139.801 -199.4,224.098 18.1,8.601 37.5,5 56.4,5 233.2,0.301 466.4,0.203 699.6,0.203 17.4,0 34.7,0.5 57.5,0.898 1.7,34.5 4.1,63 4.4,91.399 1.3,132.601 -29.5,256.402 -103.2,367.902"
         style="fill:#ffffff;fill-opacity:1;fill-rule:nonzero;stroke:none"
         id="path14" /><path
         d="m 5443.05,566.332 c -8,-67.703 -31.41,-129.902 -73,-184.703 -118.8,-156.899 -337.11,-162.598 -463.11,-11.399 -59.7,71.602 -85.7,155.5 -85.5,248.102 -0.4,89 24,170.098 79.2,240.699 122.8,156.899 343.5,157.499 466,0.5 67.21,-86.199 89.01,-185.902 76.41,-293.199 z m 213.49,567.198 c -0.1,10.6 -2.69,21.2 -4.09,31.1 -57.01,6.9 -169.01,5.4 -203.41,-2.8 -6.3,-26.5 1.8,-55.4 -6.2,-87.2 -15.19,10.4 -26.69,18.1 -38,26.1 -125.2,89.8 -263.3,111.9 -409.7,70.6 -152,-42.8 -256.9,-143.8 -325,-284.201 -52.2,-107.899 -68,-222.598 -55.3,-340.699 13.8,-127.098 61.3,-240.801 148.5,-335.899 87.8,-95.801 196.6,-151.9021 326.3,-162.9021 113.9,-9.5976 218.2,19.9024 312,85.9021 12.5,8.699 22.5,22.098 43,26.098 1.4,-30.598 2.7,-58.399 4.01,-85.5001 36.69,-8.6992 156.79,-9.5 208.2,-0.6992 V 975.43 c 0,52.7 0.19,105.4 -0.31,158.1"
         style="fill:#ffffff;fill-opacity:1;fill-rule:nonzero;stroke:none"
         id="path16" /><path
         d="m 4079.42,524.34 c 105.84,223.14 200.62,439.238 302.3,651.98 98.52,0 194.02,0 289.49,0 4.29,-19.18 -6.84,-32.34 -13.24,-46.32 C 4584.2,968.824 4509.89,807.895 4435.8,646.859 4354.36,469.871 4272.92,292.891 4191.73,115.781 c -7.87,-17.1599 -14.01,-35.1326 -21.29,-53.6013 -33.71,-6.3711 -130.73,-7.5508 -185.6,-2.2188 -7.87,21.3711 -14.06,42.3281 -23.05,62.0081 -152.62,334.082 -305.62,667.992 -458.41,1001.991 -7.14,15.61 -13.22,31.7 -19.57,47.04 5.25,3.19 7.76,6.05 10.29,6.06 91.08,0.49 182.16,0.78 273.24,0.89 7.82,0 15.65,-1.48 25.7,-2.5 93.81,-213.298 187.53,-426.368 286.38,-651.11"
         style="fill:#ffffff;fill-opacity:1;fill-rule:nonzero;stroke:none"
         id="path18" /><path
         d="m 7395.49,853.883 c -37.6,-5.746 -160.77,-6.746 -218.62,-1.727 -3.76,8.68 -8.65,18.399 -12.28,28.571 -20.83,58.414 -64.21,90.902 -123.09,101.339 -44.15,7.825 -89.28,7.707 -132.58,-7.867 -48.69,-17.511 -81.7,-63.949 -82.27,-112.808 -0.37,-31.528 12.44,-55.606 38.19,-72.891 25.48,-17.094 53.63,-28.207 83.53,-34.727 57.68,-12.578 115.37,-25.168 173.17,-37.214 50.32,-10.489 98.64,-26.633 144.03,-50.719 124.22,-65.93 179.97,-175.488 162.79,-318.598 -20.3,-169.254 -136.12,-257.3123 -261.61,-290.0701 -94.1,-24.5703 -190.1,-26.7617 -284.68,-2.8711 -158.93,40.1601 -255.59,143.0582 -293.99,301.6402 -2.99,12.391 -4.96,25.039 -7.03,37.629 -0.5,3.032 0.49,6.301 1.05,12.039 36.61,9.629 74.66,3.422 112.17,4.493 36.65,1.046 73.36,0.23 112.87,0.23 5.37,-14.012 10.48,-27 15.36,-40.082 30.11,-80.789 88.99,-122.02 174.36,-126.078 40.07,-1.91 79.98,-0.133 118.27,13.578 54.55,19.52 89.04,69.66 86.31,125.031 -1.69,34.028 -15.93,61.449 -44.38,80.778 -24.12,16.402 -51.17,26.121 -79.42,32.132 -48.39,10.289 -96.98,19.68 -145.45,29.59 -50.16,10.27 -99.3,23.848 -145.89,45.559 -8.68,4.051 -17.58,7.691 -25.98,12.242 -119.74,64.887 -171.37,162.559 -158.1,301.414 15.99,167.184 132.22,259.644 269.84,290.824 77.11,17.47 155.51,19 233.07,2.57 134.05,-28.4 225.61,-107.03 271.41,-236.898 7.93,-22.484 13.01,-46.008 18.74,-69.215 1.41,-5.703 0.21,-12.05 0.21,-17.894"
         style="fill:#ffffff;fill-opacity:1;fill-rule:nonzero;stroke:none"
         id="path20" /><path
         d="m 1985.98,931.418 c -39.21,1.348 -72.29,2.48 -106.88,3.668 -12.1,41.019 -5.45,80.874 -5.78,120.024 -0.33,39.5 -4.86,79.46 4.35,121.29 34.13,1.1 67.25,2.17 98.88,3.2 13.44,13.55 9.16,28.71 9.21,42.45 0.4,102.29 0.05,204.58 0.41,306.86 0.06,15.55 -3.96,32.02 5.83,46.18 34.7,7.34 190.12,8.49 238.66,1.82 13.3,-14.68 8.51,-33.04 8.59,-50 0.44,-99.09 0.13,-198.18 0.33,-297.27 0.03,-15.61 -2.34,-31.73 6.55,-49.86 67.55,-4.13 135.92,0.33 206.45,-2.71 10.38,-40.81 3.93,-80.54 5.11,-119.68 1.16,-38.25 0.25,-76.566 0.25,-116.89 -10.75,-2.625 -19.55,-6.504 -28.39,-6.641 -44.75,-0.687 -89.51,-0.254 -134.26,-0.535 -15.78,-0.101 -31.55,-1.121 -44.49,-1.609 -14.64,-12.024 -11.1,-25.664 -11.11,-37.844 -0.17,-119.863 0.03,-239.73 0.23,-359.601 0.06,-35.149 -0.55,-70.36 1.06,-105.45 0.86,-18.898 3.23,-38.488 9.37,-56.23 12.67,-36.61 39.99,-56.879 79.04,-59.508 22.19,-1.492 44.47,-1.641 68.51,-2.453 10.72,-40.328 4.02,-80.258 5.16,-119.609 1.1,-38.079 -0.18,-76.231 -0.42,-116.2192 -11.76,-2.211 -20.81,-5.4492 -29.84,-5.3594 -49.47,0.5195 -99.35,-1.6211 -147.6,12.1484 C 2097.65,117.98 2023.31,204.73 1994.09,331.52 c -6.73,29.218 -7.61,60.242 -7.76,90.441 -0.75,150.238 -0.35,300.473 -0.35,450.707 0,17.441 0,34.883 0,58.75"
         style="fill:#ffffff;fill-opacity:1;fill-rule:nonzero;stroke:none"
         id="path22" /><path
         d="m 5803.62,1573.46 c 38.78,6.34 188.13,7.22 233.41,1.36 1.21,-8.23 3.08,-17.23 3.72,-26.32 0.68,-9.54 0.21,-19.17 0.21,-28.76 0,-465.11 0,-930.22 0,-1395.33 0,-17.43 0,-34.8592 0,-54.0584 -41.23,-11.6211 -81.05,-4.4297 -120.17,-5.9727 -38.05,-1.5078 -76.21,-0.3281 -117.05,-0.3281 -1.6,12.0312 -3.28,20.9687 -3.85,29.9883 -0.62,9.5509 -0.21,19.1719 -0.21,28.7619 0,465.109 -0.04,930.219 0.13,1395.329 0.01,18.69 -2.77,37.92 3.81,55.33"
         style="fill:#ffffff;fill-opacity:1;fill-rule:nonzero;stroke:none"
         id="path24" /><path
         d="m 6203.81,1168.98 c 52.11,6.78 220.85,5.59 257.73,-1.85 0.98,-10.08 2.77,-20.85 2.97,-31.64 5.74,-323.451 2.81,-1017.549 -4.82,-1066.7009 -27.11,-6.7578 -55.8,-2.418 -84.04,-3.1407 -28.75,-0.7382 -57.55,-0.4101 -86.32,-0.0976 -28.37,0.3086 -56.91,-1.6406 -87.13,2.168 -1.53,13.5 -3.62,24.2617 -3.86,35.0512 -6.49,295.781 -3,1019.49 5.47,1066.21"
         style="fill:#ffffff;fill-opacity:1;fill-rule:nonzero;stroke:none"
         id="path26" /><path
         d="m 582.582,1405.59 c -2.027,133.25 111.703,243.2 243.238,243.86 126.586,0.64 246.54,-101.63 246.45,-246.16 -0.09,-133.81 -110.184,-244.52 -243.942,-244.03 -151.723,0.56 -249.621,125.94 -245.746,246.33"
         style="fill:#ffffff;fill-opacity:1;fill-rule:nonzero;stroke:none"
         id="path28" /><path
         d="m 1403.47,581.18 c -115.97,-3.5 -242.19,92.929 -243.17,243.765 -0.89,136.043 110.97,247.165 246.96,245.615 146.12,-1.66 245.26,-124.353 243.18,-249.431 C 1648.27,690.449 1537.1,576.93 1403.47,581.18"
         style="fill:#ffffff;fill-opacity:1;fill-rule:nonzero;stroke:none"
         id="path30" /><path
         d="M 245.336,489.211 C 382.996,491.969 491.453,373.371 490.289,242.352 489.301,131.23 402.207,0.390625 244.883,0.191406 100.801,0 -1.73828,116.051 0.0234375,247.602 1.94141,391.082 120.129,492.34 245.336,489.211"
         style="fill:#ffffff;fill-opacity:1;fill-rule:nonzero;stroke:none"
         id="path32" /><path
         d="m 250.41,1648.66 c 114.203,3.8 241.625,-89.59 243.684,-243.29 1.812,-135.6 -111.016,-247.85 -246.59,-246.14 C 107.297,1160.98 4.625,1274.1 4.15625,1403.47 3.64453,1545.33 123.004,1653.35 250.41,1648.66"
         style="fill:#ffffff;fill-opacity:1;fill-rule:nonzero;stroke:none"
         id="path34" /><path
         d="M 243.602,581.191 C 134.406,577.59 2.65625,667.371 1.30859,825.867 0.152344,961.66 113.254,1072.45 249.246,1070.57 390.383,1068.62 491.508,951.43 491.285,825.023 491.039,687.223 374.277,576.09 243.602,581.191"
         style="fill:#ffffff;fill-opacity:1;fill-rule:nonzero;stroke:none"
         id="path36" /><path
         d="M 1648.77,245.711 C 1652.26,129.391 1558.78,-0.710938 1402.42,0.21875 1250.94,1.12109 1159,126.148 1158.81,244.262 c -0.21,131.457 108.05,246.328 246.94,245.488 137.54,-0.84 245,-115.852 243.02,-244.039"
         style="fill:#ffffff;fill-opacity:1;fill-rule:nonzero;stroke:none"
         id="path38" /><path
         d="m 1652.41,1406.13 c 1.39,-138.19 -109.4,-246.56 -245.32,-246.95 -133.66,-0.38 -245,109.68 -244.48,243.53 0.61,156.95 129.9,245.25 241.04,246.86 127.58,1.86 248.73,-100.99 248.76,-243.44"
         style="fill:#ffffff;fill-opacity:1;fill-rule:nonzero;stroke:none"
         id="path40" /><path
         d="m 823.746,581.199 c -119.371,-4.051 -243.418,96.746 -243.687,242.785 -0.25,137.063 108.816,247.136 245.57,246.686 121.894,-0.39 243.081,-94.029 243.901,-243.783 C 1070.4,665.816 934.574,575.762 823.746,581.199"
         style="fill:#ffffff;fill-opacity:1;fill-rule:nonzero;stroke:none"
         id="path42" /><path
         d="M 822.016,489.172 C 944.023,493.539 1068.9,394.121 1068.14,243.859 1067.43,102.309 955.688,0.5 824.605,0 688.355,-0.511719 577.754,106 578.465,246.051 579.227,396.148 703.906,492.5 822.016,489.172"
         style="fill:#ffffff;fill-opacity:1;fill-rule:nonzero;stroke:none"
         id="path44" /><path
         d="m 6482.93,1423.96 c 0.25,-84.55 -67.93,-152.09 -152.65,-151.23 -82.64,0.84 -148.67,67.47 -148.93,150.3 -0.26,84.85 67.83,152.15 152.82,151.06 83.13,-1.07 148.52,-67.06 148.76,-150.13"
         style="fill:#ffffff;fill-opacity:1;fill-rule:nonzero;stroke:none"
         id="path46" /></g></g></svg>
