<svg width="496" height="123" viewBox="0 0 496 123" fill="none" xmlns="http://www.w3.org/2000/svg">
<path d="M6.17834 1.45682H38.6883V10.6486H11.0379V24.6781H37.2369V33.8713H11.0379V49.3526H40.1398V58.5444H0.880615V6.75574C0.880615 3.82934 3.2526 1.45682 6.17834 1.45682Z" fill="white"/>
<path d="M52.8726 1.45682H66.3338L93.9856 43.8696H94.1469V1.45682H104.303V58.5444H91.4053L63.1912 14.7612H63.0299V58.5444H52.8726V1.45682Z" fill="white"/>
<path d="M138.241 1.45682H147.028L171.614 58.5444H160.007L154.685 45.4812H129.937L124.778 58.5444H113.412L138.241 1.45682ZM151.138 36.7734L142.351 13.5507L133.404 36.7734H151.138Z" fill="white"/>
<path d="M180.719 1.45682H202.968C211.594 1.45682 220.461 5.40674 220.461 15.809C220.461 22.2585 216.43 26.5339 210.546 28.3069V28.4682C217.635 29.1177 223.018 35.1361 222.878 42.2565C222.878 54.673 212.077 58.5444 201.275 58.5444H180.719V1.45682ZM190.876 24.6781H200.146C206.918 24.6781 210.303 21.776 210.303 17.502C210.303 12.5843 206.918 10.1646 199.26 10.1646H190.876V24.6781ZM190.876 49.8366H200.227C205.468 49.8366 212.722 48.9486 212.722 41.4499C212.722 35.4844 208.852 33.3874 200.631 33.3874H190.876V49.8366Z" fill="white"/>
<path d="M235.694 1.45682H245.851V49.3526H270.115V58.5444H235.694V1.45682Z" fill="white"/>
<path d="M280.27 1.45682H318.078V10.6486H290.428V24.6781H316.626V33.8713H290.428V49.3526H319.528V58.5444H280.27V1.45682Z" fill="white"/>
<path d="M350.724 1.45682H359.512L384.098 58.5444H372.49L367.168 45.4812H342.421L337.262 58.5444H325.896L350.724 1.45682ZM363.622 36.7734L354.835 13.5507L345.888 36.7734H363.622Z" fill="white"/>
<path d="M393.203 1.45682H403.36V49.3526H427.625V58.5444H393.203V1.45682Z" fill="white"/>
<path d="M437.781 1.45682H447.938V49.3526H472.202V58.5444H437.781V1.45682Z" fill="white"/>
<path d="M480.135 2.35677H475.898V13.7697H474.377V2.35677H470.138V0.942108H480.135V2.35677Z" fill="white"/>
<path d="M476.113 13.9832H474.163V2.57021H469.924V0.728722H480.35V2.57021H476.113V13.9832ZM474.591 13.5549H475.685V2.14338H479.923V1.15698H470.353V2.14338H474.591V13.5549Z" fill="white"/>
<path d="M482.547 0.942314H484.811L489.158 10.9977H489.195L493.576 0.942314H495.786V13.7685H494.266V3.00792H494.229L489.629 13.7685H488.705L484.104 3.00792H484.069V13.7685H482.547V0.942314Z" fill="white"/>
<path d="M493.437 0.727814L489.177 10.5034L484.953 0.727814H482.334V13.9822H484.283V3.96826L488.563 13.9822H489.769L494.051 3.96826V13.9822H496.001V0.727814H493.437ZM489.334 11.2114L493.717 1.15607H495.574V13.5554H494.479V3.00755L494.443 2.79342H494.088L489.487 13.5554H488.846L484.3 2.92332L484.209 2.79342H483.855V13.5554H482.761V1.15607H484.67L488.96 11.083L489.054 11.2114H489.334Z" fill="white"/>
<path d="M87.156 110.326C86.3511 111.234 85.4462 112.049 84.4601 112.757C83.6722 113.317 82.8002 113.747 81.8783 114.029C80.952 114.292 79.993 114.419 79.0296 114.409C78.1447 114.432 77.2642 114.266 76.4478 113.925C75.7556 113.625 75.1419 113.17 74.6538 112.596C74.1643 112.007 73.8061 111.32 73.5991 110.583C73.3651 109.758 73.2509 108.905 73.2581 108.048C73.278 106.566 73.5249 105.096 73.9888 103.688C74.4583 102.171 75.209 100.753 76.2009 99.5116C77.1557 98.3025 78.3688 97.3232 79.7518 96.6437C81.1219 95.9685 82.629 95.6202 84.1561 95.6273C85.3777 95.5374 86.5923 95.8657 87.6027 96.558C88.4176 97.2932 88.8429 98.3681 88.7516 99.463C88.8001 101.539 87.6099 103.443 85.7231 104.307C83.7036 105.383 80.7065 105.921 76.7318 105.921C76.5748 106.733 76.4992 107.561 76.5049 108.389C76.4164 109.416 76.6919 110.442 77.2827 111.286C77.9564 111.947 78.8869 112.278 79.8274 112.188C80.9306 112.202 82.021 111.941 82.9986 111.428C84.1018 110.802 85.1066 110.015 85.9786 109.092L87.156 110.326ZM77.0544 104.307C78.0805 104.304 79.1038 104.237 80.1214 104.107C80.8907 104.011 81.6499 103.845 82.3906 103.613C82.9487 103.44 83.4796 103.187 83.9662 102.863C84.3516 102.604 84.6884 102.278 84.9624 101.904C85.2022 101.573 85.3763 101.199 85.4762 100.802C85.5718 100.408 85.6189 100.003 85.6175 99.5958C85.656 98.9477 85.4648 98.3053 85.0766 97.7828C84.6727 97.3275 84.0804 97.0848 83.4724 97.1276C82.5205 97.1505 81.6028 97.4888 80.8621 98.0869C79.9487 98.7935 79.1809 99.67 78.6029 100.669C77.9264 101.807 77.4069 103.03 77.0544 104.307Z" fill="white"/>
<path d="M108.639 96.8807C106.183 99.5016 103.614 102.091 100.931 104.648L102.696 108.808C103.165 109.921 103.539 110.742 103.817 111.267C104.018 111.678 104.274 112.062 104.576 112.406C104.772 112.616 105.003 112.79 105.26 112.919C105.607 113.056 105.97 113.143 106.342 113.176L106.133 114.106H101.405L98.766 106.472C98.462 106.738 98.061 107.107 97.56 107.583C97.0605 108.058 96.5767 108.563 96.1086 109.102C95.7418 109.506 95.4107 109.941 95.121 110.403C94.9583 110.669 94.8341 110.957 94.7513 111.257C94.6942 111.5 94.6643 111.748 94.6657 111.998C94.65 112.284 94.7485 112.565 94.9411 112.777C95.2052 113.003 95.5334 113.143 95.8802 113.176L95.6719 114.106H90.26L89.9003 113.176C92.6719 110.201 95.3993 107.46 98.0824 104.952L96.2798 100.718C95.9116 99.857 95.6148 99.2018 95.3864 98.7521C95.208 98.3796 94.9882 98.0298 94.7313 97.7072C94.5344 97.4688 94.2875 97.2747 94.0106 97.1376C93.6395 96.982 93.2442 96.8949 92.8432 96.8807L93.0515 95.9499H97.7784L100.303 103.109C100.924 102.539 101.512 101.951 102.07 101.343C102.5 100.893 102.893 100.411 103.247 99.8999C103.446 99.6058 103.604 99.286 103.721 98.9506C103.811 98.6679 103.855 98.3724 103.854 98.0769C103.854 97.3803 103.449 96.982 102.639 96.8807L102.848 95.9499H108.26L108.639 96.8807Z" fill="white"/>
<path d="M123.19 100.508C123.197 99.804 123.117 99.1031 122.953 98.4193C122.851 98.0339 122.624 97.6927 122.307 97.4501C121.93 97.2131 121.489 97.1003 121.045 97.1274C119.735 97.1403 118.489 97.6942 117.599 98.6563C116.452 99.8925 115.599 101.373 115.102 102.986C114.482 104.715 114.155 106.535 114.135 108.371C114.132 108.874 114.179 109.377 114.276 109.871C114.357 110.305 114.526 110.719 114.77 111.086C115.007 111.43 115.326 111.708 115.7 111.894C116.161 112.106 116.665 112.206 117.172 112.188C118.207 112.215 119.233 111.989 120.162 111.532C121.151 110.984 122.05 110.289 122.831 109.473L123.988 110.63C122.976 111.807 121.757 112.784 120.39 113.517C119.18 114.125 117.843 114.437 116.488 114.429C114.921 114.537 113.388 113.938 112.311 112.796C111.275 111.438 110.769 109.751 110.888 108.048C110.914 106.53 111.17 105.026 111.647 103.585C112.115 102.035 112.869 100.586 113.868 99.3115C114.776 98.1381 115.946 97.1945 117.286 96.5579C118.593 95.9497 120.02 95.6385 121.463 95.6471C122.348 95.6385 123.235 95.6956 124.111 95.817C124.786 95.9155 125.454 96.0482 126.115 96.2167L125.184 100.508H123.19Z" fill="white"/>
<path d="M136.175 86.9483H137.296L132.359 109.357C132.219 109.965 132.131 110.425 132.093 110.735C132.059 110.996 132.039 111.259 132.036 111.523C132.021 111.831 132.086 112.14 132.226 112.415C132.363 112.639 132.57 112.813 132.816 112.909C133.238 113.057 133.678 113.146 134.124 113.174L133.973 114.105H128.049L132.948 92.3043C133.074 91.7476 133.162 91.3293 133.214 91.0509C133.264 90.7711 133.302 90.5056 133.328 90.253C133.352 89.9989 133.365 89.7776 133.365 89.5877C133.385 89.2851 133.312 88.9839 133.157 88.7241C133.008 88.5214 132.799 88.3715 132.559 88.2973C132.102 88.1788 131.634 88.1146 131.163 88.106L131.39 87.1196L136.175 86.9483Z" fill="white"/>
<path d="M141.336 95.95H147.317L144.905 105.617C144.728 106.325 144.572 107.032 144.44 107.734C144.314 108.369 144.247 109.015 144.24 109.661C144.183 110.341 144.346 111.02 144.705 111.598C145.069 112.015 145.607 112.234 146.158 112.188C146.796 112.155 147.411 111.934 147.923 111.551C148.69 110.997 149.369 110.332 149.936 109.576C150.577 108.786 151.139 107.938 151.617 107.04C152.064 106.138 152.386 105.18 152.576 104.192L154.303 95.95H157.588L154.701 108.92C154.626 109.263 154.537 109.713 154.436 110.269C154.346 110.719 154.294 111.177 154.284 111.637C154.24 112.064 154.407 112.485 154.73 112.766C155.239 113.046 155.812 113.187 156.392 113.174L156.183 114.105H150.752L151.968 109.339L151.721 109.263C150.746 110.738 149.545 112.048 148.16 113.146C147.173 113.932 145.957 114.375 144.695 114.409C143.663 114.483 142.649 114.114 141.905 113.393C141.214 112.548 140.875 111.47 140.956 110.382C140.96 109.934 140.996 109.487 141.06 109.043C141.129 108.531 141.227 107.995 141.354 107.439L142.948 100.696C143.075 100.14 143.161 99.6972 143.205 99.3674C143.247 99.0905 143.268 98.8121 143.272 98.5323C143.322 98.0827 143.152 97.6373 142.817 97.3361C142.319 97.0506 141.757 96.9007 141.184 96.8993L141.336 95.95Z" fill="white"/>
<path d="M172.472 100.375C172.428 99.4642 172.084 98.592 171.495 97.8968C170.835 97.3315 169.976 97.0546 169.111 97.1274C168.556 97.1188 168.005 97.233 167.497 97.46C166.527 97.8854 165.91 98.859 165.94 99.9196C165.936 100.362 166.033 100.802 166.225 101.202C166.47 101.657 166.795 102.067 167.185 102.408C167.777 102.936 168.408 103.418 169.074 103.851C170.085 104.469 170.962 105.283 171.656 106.243C172.158 107.046 172.415 107.976 172.397 108.921C172.429 109.995 172.131 111.053 171.542 111.951C170.965 112.786 170.152 113.431 169.207 113.802C168.144 114.222 167.008 114.427 165.864 114.41C164.818 114.415 163.774 114.333 162.742 114.163C161.791 114.003 160.851 113.794 159.922 113.537L160.815 109.434H162.295C162.302 110.396 162.656 111.324 163.293 112.046C163.979 112.663 164.887 112.974 165.807 112.91C166.762 112.967 167.704 112.666 168.448 112.065C169.081 111.5 169.43 110.682 169.397 109.834C169.405 109.331 169.308 108.833 169.111 108.37C168.897 107.905 168.593 107.487 168.219 107.136C167.681 106.64 167.103 106.189 166.491 105.788C165.803 105.331 165.155 104.816 164.554 104.249C164.08 103.794 163.691 103.257 163.407 102.663C163.128 102.067 162.99 101.414 162.999 100.755C162.974 99.7854 163.245 98.8319 163.776 98.021C164.323 97.2259 165.092 96.6121 165.989 96.2538C167.053 95.8284 168.192 95.6228 169.34 95.6471C171.213 95.6142 173.08 95.8898 174.864 96.4636L173.991 100.375H172.472Z" fill="white"/>
<path d="M181.431 109.358C181.291 110.003 181.202 110.476 181.165 110.772C181.131 111.021 181.111 111.272 181.108 111.523C181.091 111.832 181.156 112.14 181.298 112.416C181.435 112.64 181.642 112.814 181.886 112.909C182.308 113.056 182.749 113.146 183.196 113.175L183.025 114.106H177.139L180.006 101.305C180.17 100.571 180.284 99.9862 180.349 99.5494C180.406 99.1868 180.437 98.8228 180.443 98.4574C180.459 98.1633 180.403 97.8706 180.282 97.6023C180.162 97.3896 179.971 97.2283 179.741 97.1469C179.315 97.0184 178.874 96.9542 178.431 96.957L178.639 95.9506L183.272 95.7793H184.392L181.431 109.358ZM186.12 88.5062L185.247 92.1906H181.886L182.759 88.5062H186.12Z" fill="white"/>
<path d="M204.27 95.9499L204.782 96.8992C204.314 98.027 203.956 98.8621 203.709 99.4059C203.463 99.9498 203.128 100.631 202.703 101.447C202.279 102.264 201.804 103.122 201.28 104.021C200.755 104.92 200.157 105.883 199.484 106.907C198.814 107.934 198.052 109.06 197.197 110.288C196.343 111.517 195.34 112.89 194.188 114.409H191.815L190.049 100.071C189.984 99.4002 189.859 98.735 189.678 98.0869C189.583 97.7415 189.38 97.436 189.099 97.2133C188.738 96.9963 188.324 96.8821 187.903 96.8807L188.113 95.9499H192.992L194.435 111.047C196.233 108.645 197.852 106.112 199.276 103.47C200.17 101.945 200.709 100.238 200.852 98.4752C200.906 98.0355 200.767 97.593 200.472 97.2604C200.091 97.0034 199.64 96.8707 199.182 96.8807L199.372 95.9499H204.27Z" fill="white"/>
<path d="M220.388 110.326C219.583 111.234 218.678 112.049 217.692 112.757C216.904 113.317 216.032 113.747 215.11 114.029C214.182 114.292 213.223 114.419 212.261 114.409C211.376 114.432 210.496 114.266 209.679 113.925C208.987 113.624 208.373 113.17 207.885 112.596C207.396 112.007 207.038 111.32 206.831 110.583C206.597 109.758 206.481 108.905 206.49 108.048C206.51 106.566 206.756 105.096 207.22 103.688C207.69 102.171 208.441 100.753 209.432 99.5116C210.387 98.3025 211.6 97.3232 212.983 96.6437C214.352 95.9685 215.861 95.6202 217.388 95.6273C218.608 95.5374 219.824 95.8657 220.834 96.558C221.649 97.2932 222.074 98.3681 221.982 99.463C222.032 101.539 220.84 103.443 218.953 104.307C216.935 105.383 213.938 105.921 209.963 105.921C209.806 106.733 209.731 107.561 209.736 108.389C209.647 109.416 209.923 110.442 210.514 111.286C211.188 111.947 212.118 112.278 213.059 112.188C214.162 112.202 215.253 111.941 216.229 111.428C217.333 110.802 218.338 110.015 219.21 109.092L220.388 110.326ZM210.286 104.307C211.312 104.304 212.335 104.237 213.353 104.107C214.122 104.011 214.881 103.845 215.622 103.613C216.18 103.44 216.711 103.187 217.198 102.863C217.583 102.604 217.92 102.279 218.194 101.904C218.434 101.573 218.608 101.199 218.708 100.802C218.803 100.408 218.85 100.003 218.849 99.5958C218.888 98.9477 218.696 98.3053 218.308 97.7828C217.904 97.3275 217.312 97.0848 216.704 97.1276C215.752 97.1505 214.834 97.4888 214.094 98.0869C213.18 98.7935 212.412 99.67 211.834 100.669C211.158 101.807 210.638 103.03 210.286 104.307Z" fill="white"/>
<path d="M232.706 86.9483H233.826L228.89 109.357C228.75 109.965 228.661 110.425 228.624 110.735C228.59 110.996 228.57 111.259 228.567 111.523C228.552 111.831 228.617 112.14 228.757 112.415C228.894 112.639 229.101 112.813 229.346 112.909C229.769 113.057 230.209 113.146 230.655 113.174L230.504 114.105H224.58L229.478 92.3043C229.605 91.7476 229.693 91.3293 229.745 91.0509C229.795 90.7711 229.833 90.5056 229.859 90.253C229.883 89.9989 229.896 89.7776 229.896 89.5877C229.916 89.2851 229.843 88.9839 229.688 88.7241C229.539 88.5214 229.329 88.3715 229.09 88.2973C228.633 88.1788 228.165 88.1146 227.694 88.106L227.921 87.1196L232.706 86.9483Z" fill="white"/>
<path d="M237.508 100.09C237.435 99.4149 237.316 98.7454 237.147 98.0873C237.059 97.7505 236.866 97.4521 236.596 97.2323C236.227 96.9996 235.798 96.8782 235.363 96.8811L235.571 95.9504H240.451L241.894 111.048C246.173 105.199 248.312 101.008 248.312 98.4756C248.365 98.0345 248.226 97.592 247.932 97.2608C247.551 97.0039 247.1 96.8711 246.641 96.8811L246.831 95.9504H251.73L252.242 96.8997C251.515 98.7811 250.654 100.608 249.669 102.37C248.625 104.256 247.347 106.32 245.834 108.561C244.322 110.801 242.642 113.13 240.794 115.549C239.699 117.032 238.506 118.441 237.224 119.766C236.6 120.388 235.91 120.939 235.163 121.407C234.595 121.755 233.982 122.024 233.341 122.205C232.73 122.366 232.102 122.446 231.471 122.442C231.083 122.438 230.695 122.404 230.312 122.338C229.937 122.282 229.569 122.189 229.212 122.062L230.028 118.511H231.508C231.501 118.876 231.607 119.234 231.812 119.537C232.011 119.794 232.323 119.937 232.647 119.917C233 119.923 233.351 119.881 233.692 119.793C234.014 119.697 234.324 119.56 234.612 119.384C235.033 119.119 235.429 118.815 235.79 118.474C236.348 117.954 236.872 117.399 237.357 116.811C237.939 116.121 238.59 115.289 239.312 114.314L237.508 100.09Z" fill="white"/>
<path d="M267.786 109.358C267.646 110.003 267.558 110.476 267.521 110.772C267.486 111.021 267.466 111.272 267.464 111.523C267.447 111.832 267.512 112.14 267.653 112.416C267.79 112.64 267.997 112.814 268.241 112.909C268.664 113.056 269.105 113.146 269.552 113.175L269.38 114.106H263.495L266.362 101.305C266.526 100.571 266.64 99.9862 266.704 99.5494C266.76 99.1868 266.793 98.8228 266.799 98.4574C266.813 98.1633 266.759 97.8706 266.637 97.6023C266.517 97.3896 266.326 97.2283 266.096 97.1469C265.671 97.0184 265.23 96.9542 264.786 96.957L264.995 95.9506L269.627 95.7793H270.748L267.786 109.358ZM272.476 88.5062L271.602 92.1906H268.241L269.115 88.5062H272.476Z" fill="white"/>
<path d="M290.985 114.106H285.004L287.416 104.459C287.567 103.838 287.717 103.154 287.863 102.407C287.998 101.745 288.071 101.071 288.081 100.394C288.138 99.715 287.975 99.0355 287.616 98.4574C287.252 98.0419 286.712 97.8235 286.163 97.8678C285.542 97.8992 284.943 98.1133 284.445 98.4859C283.717 99.0041 283.067 99.6236 282.518 100.327C281.874 101.103 281.306 101.935 280.818 102.816C280.313 103.781 279.95 104.813 279.745 105.883L278.018 114.106H274.733L277.618 101.135C277.681 100.844 277.767 100.413 277.875 99.8435C277.972 99.3738 278.027 98.897 278.036 98.4188C278.051 98.1347 277.997 97.8507 277.875 97.5923C277.752 97.3839 277.556 97.2283 277.324 97.1569C276.896 97.0327 276.452 96.9656 276.006 96.957L276.233 95.9506L280.543 95.7793H281.626L280.353 100.717L280.581 100.793C281.566 99.3181 282.778 98.0077 284.169 96.9085C285.155 96.1262 286.367 95.6837 287.626 95.6466C288.658 95.5724 289.672 95.9421 290.416 96.663C291.107 97.5081 291.446 98.5844 291.365 99.6722C291.362 100.172 291.321 100.67 291.242 101.164C291.159 101.702 291.068 102.18 290.967 102.597L289.373 109.358C289.186 110.066 289.077 110.792 289.049 111.523C289.033 111.832 289.099 112.14 289.238 112.416C289.377 112.64 289.582 112.814 289.828 112.909C290.25 113.058 290.691 113.146 291.138 113.175L290.985 114.106Z" fill="white"/>
<path d="M308.546 100.508C308.553 99.804 308.473 99.1031 308.309 98.4193C308.206 98.0339 307.979 97.6927 307.663 97.4501C307.286 97.2131 306.845 97.1003 306.401 97.1274C305.091 97.1403 303.845 97.6942 302.956 98.6563C301.807 99.8925 300.953 101.373 300.458 102.986C299.837 104.715 299.51 106.535 299.49 108.371C299.488 108.874 299.535 109.377 299.632 109.871C299.713 110.305 299.882 110.719 300.126 111.086C300.362 111.43 300.682 111.708 301.056 111.894C301.517 112.106 302.021 112.206 302.528 112.188C303.562 112.215 304.588 111.989 305.517 111.532C306.507 110.984 307.406 110.289 308.186 109.473L309.344 110.63C308.332 111.807 307.113 112.784 305.746 113.517C304.536 114.125 303.198 114.437 301.844 114.429C300.278 114.537 298.744 113.938 297.667 112.796C296.63 111.438 296.125 109.751 296.244 108.048C296.269 106.53 296.526 105.026 297.003 103.585C297.472 102.035 298.225 100.586 299.224 99.3115C300.131 98.1381 301.302 97.1945 302.642 96.5579C303.949 95.9497 305.376 95.6385 306.819 95.6471C307.704 95.6385 308.59 95.6956 309.468 95.817C310.142 95.9155 310.81 96.0482 311.47 96.2167L310.54 100.508H308.546Z" fill="white"/>
<path d="M321.531 86.9483H322.651L317.715 109.357C317.575 109.965 317.486 110.425 317.449 110.735C317.415 110.996 317.395 111.259 317.392 111.523C317.376 111.831 317.442 112.14 317.582 112.415C317.719 112.641 317.926 112.813 318.17 112.909C318.594 113.057 319.033 113.146 319.48 113.174L319.329 114.105H313.405L318.303 92.3043C318.43 91.7476 318.518 91.3293 318.57 91.0509C318.62 90.7711 318.658 90.5056 318.684 90.253C318.708 89.9989 318.721 89.7776 318.721 89.5877C318.741 89.2851 318.668 88.9839 318.512 88.7241C318.364 88.5214 318.154 88.3715 317.914 88.2973C317.458 88.1788 316.99 88.1146 316.519 88.106L316.746 87.1196L321.531 86.9483Z" fill="white"/>
<path d="M326.691 95.95H332.673L330.261 105.617C330.084 106.325 329.928 107.032 329.795 107.734C329.67 108.369 329.603 109.015 329.596 109.661C329.539 110.341 329.701 111.02 330.061 111.598C330.425 112.014 330.963 112.234 331.514 112.188C332.152 112.155 332.767 111.934 333.279 111.551C334.046 110.997 334.724 110.332 335.292 109.576C335.932 108.786 336.495 107.938 336.973 107.04C337.42 106.138 337.742 105.18 337.93 104.192L339.659 95.95H342.944L340.058 108.92C339.981 109.263 339.893 109.713 339.792 110.269C339.702 110.719 339.652 111.177 339.64 111.637C339.596 112.064 339.763 112.485 340.087 112.766C340.595 113.046 341.167 113.187 341.748 113.174L341.538 114.105H336.109L337.324 109.339L337.077 109.263C336.102 110.738 334.902 112.048 333.516 113.146C332.53 113.932 331.313 114.375 330.052 114.409C329.019 114.483 328.004 114.114 327.261 113.393C326.57 112.548 326.23 111.47 326.312 110.382C326.316 109.934 326.352 109.487 326.416 109.043C326.484 108.531 326.583 107.995 326.71 107.439L328.305 100.696C328.431 100.14 328.517 99.6972 328.561 99.3674C328.602 99.0905 328.624 98.8121 328.628 98.5323C328.678 98.0827 328.508 97.6373 328.173 97.3361C327.676 97.0506 327.112 96.9007 326.54 96.8993L326.691 95.95Z" fill="white"/>
<path d="M357.828 100.375C357.784 99.4642 357.44 98.592 356.85 97.8968C356.191 97.3315 355.332 97.0546 354.467 97.1274C353.912 97.1188 353.361 97.233 352.853 97.46C351.882 97.8854 351.266 98.859 351.296 99.9196C351.291 100.362 351.389 100.802 351.581 101.202C351.825 101.657 352.151 102.067 352.54 102.408C353.133 102.936 353.765 103.418 354.43 103.851C355.44 104.469 356.318 105.283 357.012 106.243C357.514 107.046 357.771 107.976 357.752 108.921C357.785 109.995 357.487 111.053 356.897 111.951C356.321 112.786 355.507 113.431 354.563 113.802C353.499 114.222 352.363 114.427 351.22 114.41C350.174 114.415 349.129 114.333 348.097 114.163C347.147 114.003 346.206 113.794 345.277 113.537L346.171 109.434H347.651C347.658 110.396 348.012 111.324 348.648 112.046C349.335 112.663 350.242 112.974 351.164 112.91C352.118 112.967 353.06 112.666 353.803 112.065C354.437 111.5 354.785 110.682 354.752 109.834C354.761 109.331 354.664 108.833 354.467 108.37C354.253 107.905 353.949 107.487 353.575 107.136C353.037 106.64 352.46 106.189 351.847 105.788C351.159 105.331 350.511 104.816 349.91 104.249C349.436 103.794 349.047 103.257 348.762 102.663C348.486 102.067 348.346 101.414 348.354 100.755C348.33 99.7854 348.601 98.8319 349.132 98.021C349.679 97.2259 350.448 96.6121 351.344 96.2538C352.409 95.8284 353.548 95.6228 354.695 95.6471C356.569 95.6142 358.436 95.8898 360.22 96.4636L359.347 100.375H357.828Z" fill="white"/>
<path d="M366.786 109.358C366.646 110.003 366.558 110.476 366.521 110.772C366.487 111.021 366.467 111.272 366.464 111.523C366.447 111.832 366.512 112.14 366.654 112.416C366.791 112.64 366.997 112.814 367.242 112.909C367.664 113.056 368.105 113.146 368.552 113.175L368.38 114.106H362.495L365.362 101.305C365.526 100.571 365.64 99.9862 365.704 99.5494C365.762 99.1868 365.793 98.8228 365.799 98.4574C365.814 98.1633 365.759 97.8706 365.637 97.6023C365.517 97.3896 365.326 97.2283 365.096 97.1469C364.671 97.0184 364.23 96.9542 363.786 96.957L363.995 95.9506L368.627 95.7793H369.749L366.786 109.358ZM371.476 88.5062L370.603 92.1906H367.242L368.115 88.5062H371.476Z" fill="white"/>
<path d="M389.626 95.9499L390.138 96.8992C389.67 98.027 389.312 98.8621 389.065 99.4059C388.819 99.9498 388.484 100.631 388.058 101.447C387.635 102.264 387.159 103.122 386.636 104.021C386.11 104.92 385.512 105.883 384.84 106.907C384.169 107.934 383.407 109.06 382.552 110.288C381.699 111.517 380.696 112.89 379.544 114.409H377.17L375.405 100.071C375.339 99.4002 375.217 98.735 375.034 98.0869C374.938 97.7415 374.736 97.436 374.455 97.2133C374.093 96.9963 373.68 96.8821 373.259 96.8807L373.468 95.9499H378.348L379.791 111.047C381.589 108.645 383.207 106.112 384.632 103.47C385.527 101.945 386.065 100.238 386.207 98.4752C386.262 98.0355 386.123 97.593 385.828 97.2604C385.447 97.0034 384.996 96.8707 384.538 96.8807L384.727 95.9499H389.626Z" fill="white"/>
<path d="M405.743 110.326C404.938 111.234 404.033 112.049 403.047 112.757C402.26 113.317 401.387 113.747 400.466 114.029C399.538 114.292 398.579 114.419 397.617 114.409C396.732 114.432 395.851 114.266 395.035 113.925C394.343 113.625 393.729 113.17 393.241 112.596C392.752 112.007 392.393 111.32 392.186 110.583C391.952 109.758 391.837 108.905 391.845 108.048C391.865 106.566 392.112 105.096 392.576 103.688C393.046 102.171 393.796 100.753 394.788 99.5116C395.743 98.3025 396.956 97.3232 398.339 96.6437C399.708 95.9685 401.216 95.6202 402.743 95.6273C403.964 95.5374 405.18 95.8657 406.19 96.558C407.005 97.2932 407.43 98.3681 407.337 99.463C407.387 101.539 406.196 103.443 404.309 104.307C402.291 105.383 399.294 105.921 395.319 105.921C395.162 106.733 395.086 107.561 395.092 108.389C395.004 109.416 395.279 110.442 395.87 111.286C396.544 111.947 397.474 112.278 398.415 112.188C399.518 112.202 400.608 111.941 401.586 111.428C402.689 110.802 403.694 110.015 404.566 109.092L405.743 110.326ZM395.642 104.307C396.668 104.304 397.691 104.237 398.709 104.107C399.478 104.011 400.237 103.845 400.978 103.613C401.536 103.44 402.067 103.187 402.554 102.863C402.939 102.604 403.276 102.279 403.55 101.904C403.789 101.573 403.964 101.199 404.063 100.802C404.159 100.408 404.206 100.003 404.205 99.5958C404.243 98.9477 404.052 98.3053 403.664 97.7828C403.26 97.3275 402.668 97.0848 402.06 97.1276C401.108 97.1505 400.19 97.4888 399.449 98.0869C398.536 98.7935 397.768 99.67 397.19 100.669C396.514 101.807 395.994 103.03 395.642 104.307Z" fill="white"/>
</svg>
