<svg width="160" height="38" viewBox="0 0 160 38" fill="none" xmlns="http://www.w3.org/2000/svg">
<path fill-rule="evenodd" clip-rule="evenodd" d="M16.7395 0.0231382C16.9321 0.00781051 17.1269 0 17.3235 0C21.3357 0 24.5882 3.25239 24.5882 7.26463C24.5882 10.9807 21.7982 14.0451 18.1986 14.4772C14.7921 16.1163 12.9641 20.8021 16.7049 24.4262C21.2212 28.8018 34.9277 24.8297 31.8131 6.00006C31.7104 5.37941 32.4665 4.99745 32.8931 5.45685C35.0377 7.76516 37.9848 11.9398 38 18.0256V18.1225C37.9932 20.7628 37.4344 23.7606 36.0217 27.1191C36.0135 27.1388 36.0042 27.1586 35.9941 27.1776C31.4855 35.7372 24.5295 37.9887 19.0927 38H19.014C17.1327 37.9963 15.4371 37.7255 14.0918 37.3572C3.68385 34.5083 -2.2477 23.7773 0.798877 13.0266C2.31175 7.6874 6.54972 2.51662 13.3209 0.655789C13.9058 0.495022 15.4796 0 16.4265 0C16.5409 0 16.6462 0.00722434 16.7395 0.0231382Z" fill="#F7F7F7"/>
<path fill-rule="evenodd" clip-rule="evenodd" d="M63.0628 23.0711C63.0628 24.3274 63.4263 25.3533 64.1538 26.1488C64.8812 26.9448 65.73 27.3427 66.6998 27.3427C67.6693 27.3427 68.4906 26.9448 69.1621 26.1488C69.8334 25.3533 70.1693 24.3274 70.1693 23.0711C70.1693 21.8155 69.8334 20.7703 69.1621 19.9359C68.4906 19.102 67.6603 18.6847 66.672 18.6847C65.6831 18.6847 64.8345 19.102 64.1258 19.9359C63.4169 20.7703 63.0628 21.8155 63.0628 23.0711ZM58.8379 23.0711C58.8379 20.7415 59.5373 18.8241 60.9363 17.3185C62.3352 15.8133 63.8925 15.0605 65.6089 15.0605C67.3248 15.0605 68.8261 15.7221 70.1134 17.0454V15.755C70.1134 15.5144 70.3064 15.3194 70.5446 15.3194H73.9068C74.145 15.3194 74.3381 15.5144 74.3381 15.755V35.5029C74.3381 35.984 73.9519 36.3741 73.4756 36.3741H70.9759C70.4995 36.3741 70.1134 35.984 70.1134 35.5029V29.5572C68.9195 30.5351 67.5576 31.0241 66.0283 31.0241C64.1071 31.0241 62.4286 30.2814 60.9922 28.795C59.5559 27.3092 58.8379 25.4009 58.8379 23.0711Z" fill="white"/>
<path fill-rule="evenodd" clip-rule="evenodd" d="M85.8664 19.6619C85.8664 18.585 85.8664 17.5082 85.8664 16.4313C85.8664 15.8299 86.3491 15.3423 86.9445 15.3423C87.4989 15.3423 88.0532 15.3423 88.6076 15.3423L88.9962 15.3362C89.5916 15.3268 90.0818 15.8066 90.0912 16.408C90.0912 16.4137 90.0913 16.4194 90.0913 16.4251V29.9222C90.0913 30.4034 89.7051 30.7934 89.2288 30.7934H86.7289C86.2525 30.7934 85.8664 30.4034 85.8664 29.9222V28.7513C84.8217 30.2662 83.4744 31.0236 81.8237 31.0236C80.1728 31.0236 78.7881 30.4914 77.6687 29.4272C76.5498 28.363 75.9902 26.7861 75.9902 24.6959V19.6619C75.9902 18.5819 75.9902 17.5019 75.9902 16.4219C75.9902 15.8241 76.4672 15.3381 77.059 15.3329L78.6498 15.3188H79.1366C79.732 15.3188 80.2147 15.8064 80.2147 16.4079V23.7467C80.2147 26.1245 81.0636 27.3131 82.7608 27.3131C83.6003 27.3131 84.3278 27.0018 84.9433 26.3783C85.5586 25.7555 85.8664 24.8494 85.8664 23.6602V19.6619Z" fill="white"/>
<path fill-rule="evenodd" clip-rule="evenodd" d="M92.4769 13.3489C92.0015 12.8599 91.7637 12.2607 91.7637 11.5512C91.7637 10.8418 92.0015 10.2425 92.4769 9.75348C92.9527 9.26451 93.5353 9.02002 94.2255 9.02002C94.9155 9.02002 95.4988 9.26451 95.9742 9.75348C96.45 10.2425 96.6876 10.8418 96.6876 11.5512C96.6876 12.2607 96.45 12.8599 95.9742 13.3489C95.4988 13.8379 94.9155 14.0823 94.2255 14.0823C93.5353 14.0823 92.9527 13.8379 92.4769 13.3489Z" fill="white"/>
<path fill-rule="evenodd" clip-rule="evenodd" d="M114.521 30.7935H112.049C111.573 30.7935 111.187 30.4034 111.187 29.9223V10.3224C111.187 9.84122 111.573 9.45117 112.049 9.45117H114.521C114.997 9.45117 115.383 9.84122 115.383 10.3224C115.383 11.4701 115.383 12.6179 115.383 13.7657V17.0449C116.652 15.7215 118.073 15.06 119.65 15.06C121.226 15.06 122.555 15.6353 123.637 16.786C124.718 17.9363 125.26 19.4705 125.26 21.3879V29.9223C125.26 30.4034 124.873 30.7935 124.397 30.7935H121.925C121.449 30.7935 121.063 30.4034 121.063 29.9223V22.3371C121.063 19.9597 120.214 18.7704 118.517 18.7704C117.677 18.7704 116.945 19.0824 116.32 19.7052C115.695 20.3285 115.383 21.2441 115.383 22.4521V29.9223C115.383 30.4034 114.997 30.7935 114.521 30.7935Z" fill="white"/>
<path fill-rule="evenodd" clip-rule="evenodd" d="M96.5137 30.7031C94.1364 30.7031 92.2093 28.7566 92.2093 26.3555V16.0865C92.2093 15.6053 92.5955 15.2153 93.0718 15.2153H95.6511C96.1275 15.2153 96.5137 15.6053 96.5137 16.0865V25.6865V30.7031Z" fill="white"/>
<path fill-rule="evenodd" clip-rule="evenodd" d="M44.5729 25.464H47.5696C47.8354 25.464 48.0658 25.6498 48.1246 25.9116C48.3654 26.982 49.3076 27.8503 50.9136 27.8503C52.5451 27.8503 53.6788 27.0453 53.7065 25.7515C53.7341 24.8602 53.347 24.084 51.4113 23.509L49.1162 22.8477C44.913 21.4964 44.1941 18.9376 44.1941 17.1551C44.1941 13.6187 47.0976 11.2324 50.7477 11.2324C54.0681 11.2324 56.6447 13.0838 57.1141 16.2364C57.1893 16.7415 56.8448 17.2126 56.3448 17.2885C56.2997 17.2954 56.2542 17.2988 56.2086 17.2988L53.9076 17.2988C53.5154 17.2988 53.1731 17.0304 53.0759 16.6466C52.8319 15.6835 52.0166 15.0563 50.6924 15.0563C49.2821 15.0563 48.2313 15.8613 48.2313 17.0401C48.2313 17.5576 48.4249 18.5063 50.2776 19.0526L52.5451 19.8001C57.163 21.1802 57.8267 23.8827 57.7714 25.7803C57.7161 29.7191 54.2872 31.5879 50.9136 31.5879C46.8727 31.5879 44.1386 29.4877 44.0005 26.0662C43.9876 25.7469 44.2334 25.4775 44.5495 25.4645C44.5573 25.4642 44.5651 25.464 44.5729 25.464V25.464Z" fill="white"/>
<path fill-rule="evenodd" clip-rule="evenodd" d="M98.692 26.6324L101.262 26.6324C101.627 26.6324 101.952 26.8642 102.074 27.2113C102.086 27.2452 102.099 27.2756 102.112 27.3026C102.36 27.8239 102.902 28.184 103.82 28.184C104.765 28.184 105.689 27.744 105.689 26.7481C105.689 26.4934 105.689 25.9608 104.171 25.4281L102.391 24.8029C99.0045 23.8302 98.4329 21.5607 98.4329 20.1017C98.4329 17.1838 100.698 15.2153 103.732 15.2153C106.117 15.2153 108.012 16.3794 108.682 18.4489C108.742 18.6339 108.794 18.8836 108.839 19.1982V19.1982C108.908 19.6743 108.581 20.1163 108.109 20.1853C108.069 20.1913 108.027 20.1944 107.986 20.1944L105.987 20.1943C105.607 20.1943 105.272 19.943 105.162 19.5755C105.137 19.4943 105.11 19.4272 105.08 19.3742C104.851 18.967 104.404 18.7122 103.688 18.7122C102.698 18.7122 102.083 19.2217 102.083 19.9859C102.083 20.287 102.171 20.8659 103.49 21.2828L105.227 21.8618C109.206 23.1586 109.426 25.5902 109.426 26.725C109.426 30.245 106.37 31.5882 103.82 31.5882C100.835 31.5882 98.7724 30.0764 98.3258 27.6556C98.3007 27.5196 98.2794 27.3346 98.262 27.1007H98.262C98.2441 26.8608 98.4221 26.6517 98.6597 26.6336C98.6704 26.6328 98.6812 26.6324 98.692 26.6324Z" fill="white"/>
<path fill-rule="evenodd" clip-rule="evenodd" d="M138.949 26.1378L140.998 27.5745C141.355 27.8243 141.443 28.3188 141.196 28.6789C141.17 28.7158 141.142 28.7504 141.111 28.7824C139.495 30.4457 137.405 31.2622 134.842 31.2321C130.512 31.1812 126.958 27.9835 126.958 23.1105C126.958 18.2376 130.512 15.0884 134.842 15.0884C139.139 15.0884 142.564 18.3702 142.564 23.2431C142.564 23.6409 142.531 24.2708 142.499 24.6686H131.449C131.675 26.4586 133.582 27.2542 135.165 27.2542C136.125 27.2542 137.078 26.8892 138.023 26.1593V26.1593C138.294 25.9501 138.668 25.9414 138.949 26.1378ZM131.514 21.7846H138.04C137.814 19.8951 136.134 19.1326 134.874 19.1326C133.614 19.1326 131.901 19.8288 131.514 21.7846ZM155.423 23.1105C155.423 20.7901 153.775 19.431 151.934 19.431C150.027 19.431 148.444 20.8895 148.444 23.1105C148.444 25.3978 150.027 26.8564 151.934 26.8564C153.808 26.8564 155.423 25.3315 155.423 23.1105ZM159.193 30.9006H156.306C155.872 30.9006 155.52 30.5453 155.52 30.107V28.978C154.777 30.4034 152.967 31.2321 151.093 31.2321C147.216 31.2321 143.791 28.0829 143.791 23.21C143.791 18.2376 147.216 15.0884 151.093 15.0884C152.967 15.0884 154.777 15.884 155.52 17.3094V7.79361C155.52 7.35531 155.872 7 156.306 7H159.193C159.627 7 159.979 7.35531 159.979 7.79361V30.107C159.979 30.5453 159.627 30.9006 159.193 30.9006Z" fill="white"/>
</svg>
