<svg width="149" height="21" viewBox="0 0 149 21" fill="none" xmlns="http://www.w3.org/2000/svg">
<path d="M0.154102 0.89H6.5761L10.7361 15.164L14.8961 0.89H21.1881V20H17.2881V4.842L12.8941 19.818H8.4221L4.0541 4.816V20H0.154102V0.89ZM23.2677 20L30.8077 0.89H35.0977L42.5857 20H38.2177L36.8137 16.152H29.0137L27.6097 20H23.2677ZM30.3397 12.59H35.5137L32.9397 5.518L30.3397 12.59ZM45.1839 0.89H48.3559L54.8299 17.582L61.3299 0.89H64.4759V20H62.3179V3.724L56.0519 19.818H53.5819L47.3419 3.672V20H45.1839V0.89ZM69.4065 20V0.89H81.9645V2.866H71.5905V9.288H81.2105V11.264H71.5905V18.024H82.0165V20H69.4065ZM86.2151 20V0.89H92.6891C98.2011 0.89 101.555 4.036 101.555 10.198C101.555 16.36 98.2011 20 92.6891 20H86.2151ZM88.3991 18.024H92.5071C96.7191 18.024 99.3971 15.268 99.3971 10.198C99.3971 5.05 96.7191 2.866 92.5071 2.866H88.3991V18.024ZM105.283 0.89H107.441V20H105.283V0.89ZM121.025 0.473999C124.379 0.473999 127.629 2.034 129.267 4.998L127.525 6.298C126.355 3.802 123.859 2.45 121.077 2.45C117.073 2.45 113.381 5.206 113.381 10.432C113.381 15.58 116.969 18.414 121.077 18.414C123.937 18.414 126.433 17.01 127.551 14.514L129.345 15.788C127.681 18.596 124.639 20.39 120.973 20.39C115.799 20.39 111.171 16.672 111.171 10.406C111.171 4.166 115.877 0.473999 121.025 0.473999ZM130.495 20L138.399 0.89H140.713L148.565 20H146.199L144.015 14.514H135.071L132.861 20H130.495ZM135.851 12.616H143.235L139.569 3.438L135.851 12.616Z" fill="white"/>
</svg>
